<svg width="941" height="351" viewBox="0 0 941 351" fill="none" xmlns="http://www.w3.org/2000/svg">
<path d="M743.103 254.267L743.112 254.291L743.122 254.315C746.994 263.593 753.595 271.233 762.834 277.234C769.075 281.286 775.722 283.809 782.762 284.768C789.108 285.702 795.252 285.516 801.176 284.193C802.172 289.808 804.389 295.216 807.796 300.407C811.66 306.294 816.797 311.306 823.173 315.447C837.212 324.564 852.018 326.763 867.42 321.919L867.427 321.917L867.434 321.914C882.863 316.941 896.327 305.905 907.879 289.077C913.297 281.186 917.722 272.76 921.154 263.802C924.712 254.635 926.185 245.977 925.484 237.856C925.026 229.482 921.448 222.986 914.719 218.616C908.685 214.697 902.698 213.339 896.922 215.042L896.912 215.045C891.495 216.672 886.569 221.031 882.044 227.622C880.249 230.237 878.718 233.703 877.407 237.941C876.115 242.121 875.33 244.494 875.02 245.227L874.976 245.331L874.944 245.44C872.279 254.528 869.997 260.263 868.15 262.953C864.979 267.573 861.922 270.164 859.064 271.168C856.338 272.126 853.464 271.752 850.256 269.668C848.648 268.624 847.646 267.484 847.099 266.283C846.562 265.104 846.396 263.721 846.702 262.056C847.649 258.318 850.151 253.391 854.389 247.218C857.25 243.049 859.501 239.934 861.15 237.848L861.178 237.812L861.205 237.775L868.661 227.401L868.674 227.383L868.686 227.365C872.411 221.94 873.988 216.153 873.315 210.073C872.724 203.637 869.112 198.387 862.867 194.332C856.643 190.289 850.388 189.006 844.27 190.915L844.244 190.923L844.219 190.931C838.501 192.877 833.753 196.691 829.96 202.216L829.952 202.227L829.945 202.239L818.654 219.171C813.678 226.418 809.36 231.413 805.706 234.304C804.03 235.596 802.535 236.194 801.204 236.308C799.897 236.42 798.54 236.084 797.082 235.137C794.035 233.158 793.191 231.293 793.403 229.548C793.798 227.073 795.592 223.313 799.143 218.14C800.885 215.602 803.267 212.901 806.319 210.039L806.325 210.033L806.331 210.027C809.466 207.036 811.477 205.089 812.323 204.221C818.316 199.052 822.584 194.707 824.982 191.214C829.369 184.824 831.373 178.508 830.685 172.334C829.985 166.059 826.407 160.942 820.317 156.986C813.582 152.613 805.968 151.845 797.692 154.539L797.692 154.539L797.684 154.542C789.857 157.126 782.276 161.818 774.934 168.529C767.643 175.193 761.236 182.546 755.717 190.586C748.116 201.658 743.154 212.678 740.898 223.643L740.894 223.657L740.892 223.672C738.794 234.738 739.505 244.955 743.103 254.267Z" fill="#E0C745" stroke="#8F4545" stroke-width="4"/>
<path d="M619.116 174.877L619.119 174.899L619.123 174.921C620.874 186.15 625.694 196.306 633.533 205.364C641.379 214.43 651.76 221.595 664.609 226.889C679.163 232.887 690.842 235.559 699.451 234.523L699.47 234.521L699.489 234.518C707.982 233.332 714.013 229.961 716.655 223.918C718.258 220.253 718.158 216.642 716.263 213.282C714.571 210.046 711.566 207.652 707.532 205.99C705.501 205.153 703.285 204.556 700.894 204.188C695.063 203.12 689.847 201.63 685.233 199.729C676.378 196.08 670.731 190.954 668.015 184.381C672.651 187.657 678.23 190.627 684.724 193.303C698.282 198.89 711.294 200.864 723.72 199.112L723.73 199.111C736.759 197.209 746.145 189.587 751.816 176.619C755.305 168.638 756.305 160.067 754.861 150.959C753.482 141.63 749.417 132.969 742.749 124.988C736.046 116.966 727.08 110.674 715.925 106.077C703.535 100.972 691.167 99.1778 678.853 100.754C666.593 102.323 655.583 106.637 645.864 113.698L645.852 113.706L645.841 113.714C636.291 120.852 629.091 129.972 624.253 141.037C619.345 152.262 617.617 163.553 619.116 174.877ZM701.166 161.487L701.139 161.49L701.113 161.494C698.09 161.959 694.866 161.53 691.399 160.102C688.381 158.858 685.84 157.271 683.749 155.354C682.119 153.577 681.058 151.549 680.549 149.241C681.803 146.725 683.894 144.805 686.967 143.486C690.331 142.051 694.031 142.085 698.22 143.811C702.556 145.597 705.087 147.838 706.253 150.365L706.267 150.396L706.283 150.426C707.671 153.179 707.749 155.659 706.712 158.032C705.916 159.852 704.28 161.091 701.166 161.487Z" fill="#E0C745" stroke="#8F4545" stroke-width="4"/>
<path d="M467.728 148.603L467.728 148.616L467.729 148.629C468.222 163.053 470.558 174.197 474.936 181.832C479.43 189.669 486.627 193.995 496.241 194.836C503.681 195.487 509.766 194.343 514.138 190.998L514.14 190.996C518.556 187.608 521.513 182.841 523.08 176.845C524.776 171.059 526.171 163.301 527.285 153.618L527.285 153.615C528.45 143.364 530.47 135.716 533.237 130.523C534.679 127.924 536.338 126.166 538.162 125.099C539.973 124.04 542.083 123.581 544.578 123.8C547.088 124.019 549.02 124.817 550.498 126.103C551.985 127.397 553.152 129.31 553.906 131.994L553.913 132.021L553.922 132.047C555.654 137.615 556.097 145.557 555.096 156.013C554.167 165.722 553.888 173.495 554.289 179.284L554.292 179.316L554.295 179.348C554.904 185.332 556.921 190.34 560.448 194.237L560.465 194.256L560.483 194.274C564.326 198.307 570.253 200.499 577.872 201.165C583.47 201.655 588.427 200.664 592.621 198.057C596.802 195.459 600.041 191.368 602.416 185.973C607.25 175.287 610.429 161.612 612.018 145.019C613.258 132.061 611.947 120.018 608.047 108.92C604.32 97.8066 598.085 88.6642 589.342 81.5455C580.559 74.2001 569.68 69.9989 556.805 68.8725C551.046 68.3687 546.491 68.3304 543.233 68.8248L543.218 68.8271L543.203 68.8296C540.982 69.2014 538.502 69.8534 535.773 70.7719L536.631 61.8052C537.716 50.4734 538.071 40.9232 537.678 33.1773C537.277 25.2702 535.212 18.4195 531.407 12.7068C527.415 6.71407 520.944 3.46531 512.402 2.71799C502.434 1.84593 494.476 4.93034 488.901 12.1443C483.566 18.8926 479.728 28.2796 477.272 40.1498L477.269 40.165L477.266 40.1801C475.012 51.9872 472.884 68.3882 470.877 89.3532C468.476 114.441 467.421 134.203 467.728 148.603Z" fill="#E0C745" stroke="#8F4545" stroke-width="4"/>
<path d="M375.861 164.599L375.833 164.582L375.805 164.565C373.433 163.165 371.079 162.12 368.744 161.451C366.231 160.731 363.203 160.674 359.752 161.144C353.535 161.993 348.454 164.327 344.675 168.258C340.928 172.116 339.573 177.107 340.419 182.95C341.744 192.098 348.194 198.595 358.905 202.618C369.612 206.639 383.187 207.442 399.499 205.217C418.218 202.663 432.886 197.272 443.31 188.885C454.007 180.401 458.654 169.897 456.864 157.535C455.471 147.914 450.823 140.682 442.9 136.083C435.466 131.637 426.073 128.467 414.794 126.509L414.786 126.508L414.778 126.506C412.84 126.186 411.555 125.67 410.757 125.086C410.02 124.546 409.66 123.929 409.548 123.16C409.428 122.328 409.627 121.7 410.184 121.103L410.246 121.037L410.301 120.966C410.944 120.137 411.693 119.714 412.618 119.587C414.055 119.391 415.288 119.46 416.35 119.74L416.394 119.751L416.438 119.761C417.885 120.074 419.249 120.48 420.53 120.976L420.582 120.996L420.634 121.013C423.002 121.785 424.901 122.362 426.317 122.735L426.469 122.775L426.625 122.791C428.365 122.97 430.491 122.865 432.952 122.529C439.291 121.665 444.33 119.457 447.805 115.707C451.558 111.835 452.877 106.751 452.01 100.762C451.07 94.2669 447.468 88.8197 441.476 84.432C435.495 79.8929 427.835 76.8089 418.595 75.097C409.504 73.3538 399.638 73.224 389.012 74.6737C376.705 76.353 366.004 79.8433 356.956 85.1892C348.114 90.3044 341.42 96.4752 336.983 103.74L336.98 103.746C332.707 110.801 331.017 118.004 332.072 125.292C333.017 131.818 336.087 137.626 341.167 142.688C346.276 147.778 353.501 151.688 362.691 154.513C364.356 155.055 367.633 155.903 372.44 157.05C377.651 158.327 381.177 159.497 383.171 160.527L383.226 160.555L383.282 160.58C384.803 161.253 385.667 162.369 385.935 164.218C386.05 165.01 385.855 165.387 385.542 165.676C385.112 166.073 384.192 166.521 382.436 166.76C381.244 166.923 380.258 166.843 379.435 166.588C378.608 166.239 377.429 165.594 375.861 164.599Z" fill="#E0C745" stroke="#8F4545" stroke-width="4"/>
<path d="M234.331 248.792L234.344 248.795L234.357 248.797C245.908 251.179 258.499 249.477 272.056 243.891C279.633 240.769 285.749 237.559 290.353 234.245C294.706 231.159 298.456 227.641 301.591 223.691C305.155 224.752 308.414 225.352 311.35 225.453C314.802 225.571 318.675 224.68 322.919 222.931C328.798 220.508 332.833 216.615 334.768 211.223C336.831 205.878 336.716 200.513 334.411 195.241C333.054 192.138 330.991 189.449 328.26 187.179C326.066 185.177 323.525 183.638 320.657 182.558C320.79 179.272 320.278 175.364 319.196 170.882C318.088 165.52 316.277 159.977 313.775 154.256C309.095 143.55 302.351 134.747 293.54 127.891C284.826 120.906 274.191 116.903 261.731 115.815C249.284 114.483 235.69 116.918 220.996 122.973C213.475 126.072 206.485 130.355 200.026 135.81C193.447 141.138 188.562 147.2 185.434 154.005L185.427 154.021L185.42 154.037C182.386 160.963 182.384 167.973 185.427 174.933C188.027 180.878 191.746 184.993 196.742 186.793L196.771 186.803L196.8 186.813C201.626 188.392 206.982 187.834 212.727 185.467C216.024 184.108 218.647 182.733 220.503 181.316C222.426 179.906 224.388 178.181 226.391 176.153C228.286 174.235 230.097 172.65 231.824 171.385C233.474 170.177 235.845 168.912 239.005 167.61C246.149 164.666 251.712 164.003 255.885 165.164L255.913 165.172L255.942 165.179C258.873 165.905 261.092 167.236 262.685 169.184C260.77 169.354 258.52 169.769 255.986 170.377C251.399 171.265 246.674 172.716 241.812 174.72C228.592 180.167 218.654 187.653 212.16 197.247C205.586 206.959 204.451 217.062 208.939 227.326C214.023 238.954 222.513 246.195 234.331 248.792ZM271.166 208.093L271.146 208.124L271.127 208.156C270.022 210.004 267.949 211.681 264.608 213.058C261.295 214.423 258.503 214.764 256.155 214.302C253.987 213.774 252.774 212.737 252.138 211.282C251.502 209.826 251.576 208.259 252.69 206.379C253.979 204.417 256.171 202.704 259.484 201.339C262.825 199.962 265.508 199.68 267.644 200.192L267.681 200.201L267.719 200.208C270.102 200.687 271.343 201.718 271.954 203.116C272.565 204.514 272.467 206.096 271.166 208.093Z" fill="#E0C745" stroke="#8F4545" stroke-width="4"/>
<path d="M134.842 318.548L134.856 318.544L134.871 318.539C148.945 314.48 162.159 307.052 174.512 296.313C183.742 288.289 190.75 279.484 195.488 269.889C200.202 260.345 202.465 251.193 202.165 242.46C201.99 233.637 199.384 226.303 194.198 220.638C189.823 215.859 184.626 213.213 178.654 212.923C172.54 212.514 166.817 214.755 161.547 219.336C158.164 222.277 155.692 225.39 154.252 228.695L154.243 228.715L154.235 228.735C152.994 231.768 152.015 235.503 151.274 239.904C150.385 244.873 149.118 249.122 147.496 252.675L147.489 252.69L147.482 252.705C146.064 255.958 143.155 259.594 138.549 263.598C132.883 268.524 126.712 270.404 119.91 269.417C112.987 268.189 106.794 264.656 101.318 258.674C96.3408 253.237 94.0962 247.063 94.5054 240.052C94.9363 232.787 97.8503 226.857 103.275 222.141C107.744 218.256 111.546 216.26 114.704 215.778L114.762 215.77L114.819 215.757C118.274 215.028 122.514 214.915 127.586 215.484C132.928 216.084 137.563 216.051 141.443 215.319C145.562 214.542 149.863 212.057 154.335 208.17C160.511 202.801 163.659 196.566 163.401 189.521C163.273 182.58 160.723 176.399 155.824 171.047C148.339 162.87 139.083 157.577 128.111 155.198C117.268 152.713 105.79 153.402 93.7238 157.176C81.5247 160.844 69.939 167.481 58.9642 177.021C47.2871 187.172 39.2775 199.168 34.9909 212.994C30.7183 226.776 30.1881 240.678 33.4048 254.667C36.6207 268.653 43.1546 281.032 52.9892 291.776C65.0803 304.985 78.2483 313.803 92.5091 318.087L92.52 318.091C106.615 322.24 120.738 322.394 134.842 318.548Z" fill="#E0C745" stroke="#8F4545" stroke-width="4"/>
</svg>
