<svg width="914" height="322" viewBox="0 0 914 322" fill="none" xmlns="http://www.w3.org/2000/svg">
<path d="M721.844 233.343L721.853 233.366L721.863 233.389C725.632 241.91 732.053 248.921 741.035 254.426C747.103 258.144 753.568 260.459 760.417 261.34C766.566 262.194 772.522 262.029 778.27 260.826C779.246 265.965 781.402 270.911 784.702 275.656C788.461 281.06 793.457 285.659 799.656 289.458C813.303 297.82 827.708 299.846 842.71 295.394L842.717 295.392L842.724 295.39C857.752 290.818 870.861 280.675 882.102 265.224C887.374 257.978 891.68 250.241 895.02 242.017C898.483 233.596 899.919 225.637 899.236 218.171C898.788 210.46 895.296 204.489 888.749 200.476C882.883 196.882 877.046 195.624 871.395 197.196L871.384 197.199C866.075 198.704 861.261 202.732 856.851 208.793C855.094 211.209 853.6 214.404 852.324 218.297C851.067 222.133 850.308 224.299 850.011 224.961L849.964 225.065L849.93 225.174C847.341 233.508 845.13 238.741 843.354 241.182C840.284 245.402 837.341 247.746 834.608 248.652C832.003 249.516 829.234 249.186 826.121 247.279C824.564 246.324 823.599 245.285 823.075 244.199C822.562 243.136 822.403 241.893 822.694 240.395C823.608 236.996 826.024 232.5 830.135 226.849C832.915 223.029 835.098 220.177 836.697 218.269L836.727 218.233L836.755 218.196L843.999 208.685L844.013 208.668L844.026 208.65C847.667 203.644 849.21 198.303 848.552 192.698C847.974 186.76 844.445 181.935 838.374 178.214C832.323 174.506 826.225 173.317 820.239 175.079L820.213 175.086L820.187 175.095C814.598 176.889 809.956 180.409 806.251 185.502L806.242 185.513L806.234 185.524L795.266 201.046C790.437 207.683 786.254 212.245 782.725 214.88C781.117 216.05 779.691 216.586 778.425 216.688C777.178 216.789 775.873 216.487 774.462 215.622C771.5 213.808 770.718 212.118 770.915 210.583C771.293 208.35 773.016 204.93 776.463 200.192C778.146 197.879 780.45 195.412 783.409 192.794L783.415 192.788L783.422 192.782C786.459 190.047 788.414 188.261 789.242 187.46C795.064 182.722 799.223 178.728 801.566 175.508C805.846 169.624 807.809 163.798 807.136 158.1C806.451 152.311 802.956 147.607 797.035 143.978C790.482 139.962 783.061 139.251 774.986 141.732L774.986 141.732L774.978 141.734C767.352 144.11 759.967 148.424 752.819 154.589C745.725 160.707 739.492 167.458 734.122 174.839C726.726 185.005 721.895 195.128 719.697 205.203L719.694 205.218L719.691 205.233C717.649 215.401 718.342 224.789 721.844 233.343Z" fill="#FFE350" stroke="#8F4545" stroke-width="4"/>
<path d="M601.401 160.565L601.404 160.587L601.408 160.61C603.114 170.934 607.808 180.258 615.427 188.565C623.053 196.881 633.141 203.448 645.622 208.302C659.758 213.799 671.106 216.25 679.478 215.299L679.497 215.297L679.516 215.295C687.756 214.209 693.701 211.113 696.316 205.47C697.904 202.042 697.794 198.675 695.94 195.57C694.286 192.588 691.36 190.394 687.447 188.873C685.474 188.106 683.322 187.558 680.999 187.221C675.334 186.242 670.266 184.876 665.783 183.133C657.403 179.875 651.997 175.338 649.29 169.57C653.723 172.48 659.023 175.123 665.164 177.511C678.333 182.632 690.976 184.444 703.057 182.836L703.067 182.835C715.751 181.088 724.931 174.072 730.475 162.108C733.885 154.748 734.858 146.85 733.451 138.473C732.106 129.892 728.146 121.937 721.664 114.618C715.148 107.26 706.436 101.491 695.601 97.278C683.567 92.5984 671.549 90.9524 659.578 92.3981C647.659 93.8376 636.944 97.7962 627.476 104.286L627.464 104.295L627.452 104.303C618.148 110.866 611.127 119.255 606.409 129.436C601.624 139.763 599.94 150.153 601.401 160.565ZM681.255 148.075L681.229 148.078L681.202 148.082C678.275 148.507 675.145 148.116 671.773 146.805C668.841 145.664 666.373 144.209 664.343 142.453C662.779 140.845 661.763 139.018 661.268 136.952C662.462 134.734 664.44 133.023 667.372 131.835C670.612 130.531 674.199 130.554 678.275 132.14C682.494 133.78 684.945 135.834 686.067 138.131L686.082 138.16L686.097 138.189C687.436 140.695 687.494 142.914 686.52 145.016C685.793 146.586 684.281 147.712 681.255 148.075Z" fill="#FFE350" stroke="#8F4545" stroke-width="4"/>
<path d="M454.351 136.426L454.351 136.44L454.351 136.453C454.832 149.699 457.105 159.959 461.382 166.998C465.774 174.226 472.782 178.178 482.094 178.947C489.305 179.542 495.215 178.5 499.479 175.422L499.481 175.42C503.793 172.298 506.696 167.892 508.233 162.342C509.887 157.017 511.245 149.888 512.327 141.006L512.327 141.003C513.457 131.623 515.413 124.65 518.079 119.929C519.461 117.578 521.053 115.985 522.811 115.014C524.563 114.048 526.617 113.623 529.054 113.824C531.506 114.027 533.387 114.763 534.815 115.936C536.247 117.112 537.363 118.841 538.084 121.264L538.092 121.292L538.101 121.319C539.77 126.378 540.203 133.618 539.232 143.186C538.328 152.094 538.056 159.237 538.448 164.566L538.45 164.599L538.454 164.633C539.051 170.17 541.031 174.8 544.476 178.392L544.494 178.41L544.511 178.428C548.257 182.136 554.014 184.139 561.4 184.749C566.825 185.197 571.637 184.293 575.72 181.898C579.8 179.505 582.971 175.73 585.297 170.747C590.009 160.916 593.103 148.347 594.648 133.118C595.857 121.201 594.579 110.122 590.777 99.914C587.143 89.6878 581.066 81.2887 572.566 74.7575C564.027 68.0192 553.461 64.1722 540.966 63.1406C535.373 62.6789 530.952 62.6441 527.792 63.0967L527.778 63.0987L527.763 63.101C525.619 63.4396 523.227 64.0322 520.593 64.8667L521.408 56.8311C522.463 46.4347 522.808 37.6649 522.426 30.5457C522.034 23.2532 520.015 16.9339 516.298 11.6698C512.397 6.14378 506.101 3.17663 497.828 2.49358C488.176 1.6968 480.428 4.50598 474.973 11.1656C469.763 17.3849 466.021 26.0294 463.629 36.9388L463.625 36.9548L463.622 36.9708C461.43 47.8077 459.361 62.8533 457.411 82.0762C455.078 105.08 454.051 123.209 454.351 136.426Z" fill="#FFE350" stroke="#8F4545" stroke-width="4"/>
<path d="M365.13 150.905L365.102 150.888L365.073 150.872C362.764 149.587 360.474 148.627 358.206 148.014C355.767 147.354 352.83 147.302 349.483 147.733C343.457 148.509 338.523 150.644 334.843 154.256C331.179 157.815 329.833 162.452 330.667 167.893C331.975 176.416 338.335 182.397 348.722 186.078C359.125 189.765 372.307 190.5 388.148 188.461C406.326 186.121 420.571 181.182 430.7 173.491C441.092 165.714 445.67 156.032 443.913 144.579C442.547 135.671 437.98 128.992 430.259 124.762C423.027 120.682 413.899 117.776 402.946 115.981L402.938 115.98L402.93 115.979C401.041 115.685 399.799 115.21 399.038 114.685C398.343 114.205 398.04 113.686 397.945 113.065C397.842 112.395 397.998 111.878 398.523 111.347L398.585 111.284L398.642 111.216C399.252 110.474 399.977 110.078 400.894 109.96C402.295 109.78 403.499 109.843 404.532 110.1L404.575 110.111L404.618 110.119C406.024 110.407 407.349 110.779 408.593 111.233L408.643 111.252L408.694 111.267C410.995 111.975 412.841 112.504 414.216 112.846L414.362 112.883L414.512 112.897C416.198 113.061 418.26 112.965 420.649 112.657C426.793 111.866 431.687 109.848 435.073 106.401C438.743 102.827 440.052 98.1031 439.197 92.5321C438.27 86.4867 434.719 81.4486 428.883 77.4156C423.057 73.2443 415.609 70.4177 406.638 68.8493C397.809 67.2517 388.228 67.1329 377.91 68.4612C365.959 69.9999 355.568 73.1978 346.78 78.0977C338.193 82.7851 331.679 88.4462 327.356 95.1268L327.352 95.1329C323.187 101.621 321.521 108.278 322.558 115.035C323.486 121.087 326.502 126.456 331.46 131.117C336.444 135.803 343.478 139.39 352.402 141.979C354.02 142.475 357.204 143.253 361.874 144.304C366.937 145.475 370.361 146.548 372.294 147.49L372.348 147.517L372.404 147.54C373.868 148.15 374.643 149.131 374.887 150.721C374.984 151.355 374.832 151.64 374.548 151.887C374.134 152.247 373.237 152.66 371.521 152.881C370.356 153.031 369.393 152.957 368.593 152.723C367.793 152.405 366.65 151.816 365.13 150.905Z" fill="#FFE350" stroke="#8F4545" stroke-width="4"/>
<path d="M227.708 228.379L227.721 228.382L227.735 228.385C238.969 230.571 251.204 229.008 264.372 223.888C271.732 221.026 277.674 218.084 282.147 215.045C286.374 212.217 290.016 208.994 293.064 205.372C296.526 206.343 299.692 206.893 302.544 206.985C305.902 207.093 309.665 206.275 313.786 204.673C319.489 202.455 323.422 198.886 325.313 193.915C327.329 188.988 327.222 184.019 324.956 179.128C323.622 176.249 321.596 173.757 318.922 171.66C316.805 169.837 314.363 168.435 311.619 167.443C311.726 164.44 311.225 160.888 310.188 156.836C309.109 151.905 307.344 146.81 304.908 141.554C300.345 131.706 293.769 123.607 285.183 117.302C276.685 110.875 266.33 107.203 254.222 106.205C242.122 104.983 228.914 107.217 214.641 112.767C207.335 115.608 200.543 119.534 194.268 124.535C187.876 129.42 183.124 134.982 180.079 141.234L180.072 141.249L180.065 141.264C177.105 147.64 177.094 154.119 180.08 160.563C182.626 166.058 186.279 169.873 191.179 171.539L191.208 171.549L191.238 171.558C195.948 173.013 201.156 172.496 206.732 170.327C209.934 169.082 212.483 167.822 214.286 166.523C216.154 165.23 218.062 163.648 220.009 161.788C221.848 160.031 223.607 158.578 225.285 157.419C226.887 156.311 229.192 155.151 232.262 153.957C239.208 151.256 244.608 150.653 248.644 151.713L248.673 151.72L248.702 151.727C251.424 152.363 253.49 153.502 254.993 155.144C253.163 155.308 251.028 155.683 248.633 156.225C244.177 157.039 239.587 158.369 234.864 160.206C222.023 165.199 212.365 172.061 206.05 180.865C199.654 189.78 198.523 199.1 202.922 208.594C207.894 219.324 216.199 225.993 227.708 228.379ZM263.375 190.809L263.355 190.838L263.335 190.869C262.27 192.551 260.261 194.089 257.011 195.353C253.789 196.605 251.08 196.915 248.811 196.494C246.72 196.013 245.606 195.084 245.026 193.832C244.446 192.581 244.49 191.201 245.565 189.489C246.811 187.701 248.936 186.131 252.157 184.879C255.408 183.615 258.011 183.359 260.072 183.825L260.109 183.834L260.147 183.841C262.455 184.279 263.59 185.207 264.142 186.399C264.695 187.591 264.635 188.983 263.375 190.809Z" fill="#FFE350" stroke="#8F4545" stroke-width="4"/>
<mask id="path-6-outside-1_1_157" maskUnits="userSpaceOnUse" x="-5.87779" y="113.866" width="231.169" height="213.228" fill="black">
<rect fill="white" x="-5.87779" y="113.866" width="231.169" height="213.228"/>
<path d="M168.231 270.458C156.415 280.151 143.827 286.815 130.467 290.451C117.126 293.884 103.787 293.748 90.4493 290.043C77.0107 286.233 64.5098 278.369 52.9467 266.449C43.6151 256.829 37.4241 245.76 34.3736 233.241C31.3231 220.723 31.8246 208.295 35.8782 195.957C39.9317 183.62 47.5047 172.901 58.5972 163.802C69.0868 155.198 80.1046 149.259 91.6506 145.984C103.095 142.604 113.888 142.013 124.029 144.209C134.291 146.306 142.921 150.962 149.92 158.177C154.383 162.777 156.67 168.036 156.781 173.953C157.012 179.772 154.295 185.005 148.628 189.654C144.408 193.115 140.544 195.158 137.036 195.783C133.528 196.407 129.24 196.451 124.172 195.914C119.105 195.376 114.756 195.47 111.128 196.193C107.518 196.713 103.483 198.802 99.022 202.462C93.3552 207.11 90.2979 212.997 89.85 220.124C89.4212 227.048 91.7933 233.176 96.9663 238.508C102.545 244.259 108.949 247.736 116.18 248.94C123.429 249.941 130.008 248.018 135.916 243.172C140.498 239.414 143.557 235.872 145.094 232.546C146.751 229.121 148.022 225.074 148.906 220.406C149.612 216.447 150.534 213.156 151.671 210.534C152.928 207.813 155.124 205.166 158.259 202.595C163.082 198.639 168.148 196.831 173.456 197.17C178.664 197.405 183.246 199.561 187.201 203.639C191.867 208.449 194.28 214.73 194.441 222.485C194.722 230.14 192.625 238.244 188.148 246.798C183.672 255.352 177.033 263.239 168.231 270.458Z"/>
</mask>
<path d="M168.231 270.458C156.415 280.151 143.827 286.815 130.467 290.451C117.126 293.884 103.787 293.748 90.4493 290.043C77.0107 286.233 64.5098 278.369 52.9467 266.449C43.6151 256.829 37.4241 245.76 34.3736 233.241C31.3231 220.723 31.8246 208.295 35.8782 195.957C39.9317 183.62 47.5047 172.901 58.5972 163.802C69.0868 155.198 80.1046 149.259 91.6506 145.984C103.095 142.604 113.888 142.013 124.029 144.209C134.291 146.306 142.921 150.962 149.92 158.177C154.383 162.777 156.67 168.036 156.781 173.953C157.012 179.772 154.295 185.005 148.628 189.654C144.408 193.115 140.544 195.158 137.036 195.783C133.528 196.407 129.24 196.451 124.172 195.914C119.105 195.376 114.756 195.47 111.128 196.193C107.518 196.713 103.483 198.802 99.022 202.462C93.3552 207.11 90.2979 212.997 89.85 220.124C89.4212 227.048 91.7933 233.176 96.9663 238.508C102.545 244.259 108.949 247.736 116.18 248.94C123.429 249.941 130.008 248.018 135.916 243.172C140.498 239.414 143.557 235.872 145.094 232.546C146.751 229.121 148.022 225.074 148.906 220.406C149.612 216.447 150.534 213.156 151.671 210.534C152.928 207.813 155.124 205.166 158.259 202.595C163.082 198.639 168.148 196.831 173.456 197.17C178.664 197.405 183.246 199.561 187.201 203.639C191.867 208.449 194.28 214.73 194.441 222.485C194.722 230.14 192.625 238.244 188.148 246.798C183.672 255.352 177.033 263.239 168.231 270.458Z" fill="#FFE350"/>
<path d="M130.467 290.451L131.622 294.142L131.652 294.134L131.682 294.126L130.467 290.451ZM90.4493 290.043L89.2589 293.704L89.2702 293.707L89.2815 293.71L90.4493 290.043ZM34.3736 233.241L30.313 234.046L30.313 234.046L34.3736 233.241ZM35.8782 195.957L39.8628 197.098L39.8628 197.098L35.8782 195.957ZM91.6506 145.984L92.9103 149.646L92.933 149.64L92.9557 149.633L91.6506 145.984ZM124.029 144.209L123.113 147.938L123.138 147.943L123.164 147.949L124.029 144.209ZM156.781 173.953L152.62 173.983L152.62 174.02L152.622 174.058L156.781 173.953ZM137.036 195.783L136.209 192.021L136.209 192.021L137.036 195.783ZM111.128 196.193L111.809 199.978L111.928 199.961L112.045 199.938L111.128 196.193ZM89.85 220.124L85.695 219.867L85.6948 219.87L89.85 220.124ZM116.18 248.94L115.476 252.71L115.538 252.721L115.601 252.729L116.18 248.94ZM145.094 232.546L141.289 230.959L141.275 230.989L141.261 231.018L145.094 232.546ZM148.906 220.406L153.006 221.099L153.01 221.08L153.013 221.062L148.906 220.406ZM151.671 210.534L147.838 209.006L147.82 209.045L147.803 209.085L151.671 210.534ZM173.456 197.17L173.207 200.992L173.25 200.995L173.292 200.997L173.456 197.17ZM194.441 222.485L190.28 222.521L190.281 222.55L190.282 222.578L194.441 222.485ZM188.148 246.798L184.396 245.109L184.396 245.109L188.148 246.798ZM165.446 267.587C154.02 276.96 141.955 283.319 129.252 286.776L131.682 294.126C145.7 290.311 158.811 283.341 171.016 273.329L165.446 267.587ZM129.311 286.761C116.73 289.998 104.196 289.871 91.6171 286.376L89.2815 293.71C103.377 297.626 117.522 297.77 131.622 294.142L129.311 286.761ZM91.6398 286.382C79.0864 282.824 67.2093 275.426 56.0394 263.912L49.8541 268.986C61.8103 281.311 74.9349 289.643 89.2589 293.704L91.6398 286.382ZM56.0394 263.912C47.1845 254.784 41.3276 244.311 38.4342 232.437L30.313 234.046C33.5205 247.209 40.0458 258.875 49.8541 268.986L56.0394 263.912ZM38.4342 232.437C35.5425 220.57 36.0143 208.812 39.8628 197.098L31.8935 194.816C27.635 207.778 27.1037 220.876 30.313 234.046L38.4342 232.437ZM39.8628 197.098C43.6828 185.471 50.8177 175.339 61.3823 166.674L55.812 160.931C44.1917 170.463 36.1806 181.768 31.8935 194.816L39.8628 197.098ZM61.3823 166.674C71.5037 158.371 82.015 152.736 92.9103 149.646L90.3909 142.321C78.1941 145.781 66.6699 152.025 55.812 160.931L61.3823 166.674ZM92.9557 149.633C103.799 146.431 113.819 145.925 123.113 147.938L124.946 140.48C113.957 138.1 102.391 138.778 90.3455 142.335L92.9557 149.633ZM123.164 147.949C132.569 149.871 140.419 154.107 146.827 160.713L153.013 155.64C145.424 147.817 136.013 142.741 124.895 140.469L123.164 147.949ZM146.827 160.713C150.646 164.65 152.527 169.027 152.62 173.983L160.942 173.924C160.813 167.045 158.12 160.904 153.013 155.64L146.827 160.713ZM152.622 174.058C152.799 178.507 150.801 182.715 145.843 186.783L151.413 192.525C157.788 187.296 161.226 181.036 160.94 173.849L152.622 174.058ZM145.843 186.783C141.881 190.032 138.679 191.581 136.209 192.021L137.863 199.544C142.409 198.735 146.934 196.199 151.413 192.525L145.843 186.783ZM136.209 192.021C133.252 192.547 129.419 192.617 124.61 192.107L123.735 199.72C129.062 200.284 133.804 200.267 137.863 199.544L136.209 192.021ZM124.61 192.107C119.244 191.539 114.414 191.61 110.21 192.448L112.045 199.938C115.099 199.329 118.965 199.214 123.735 199.72L124.61 192.107ZM110.447 192.407C105.699 193.091 100.947 195.727 96.2369 199.591L101.807 205.333C106.019 201.878 109.338 200.334 111.809 199.978L110.447 192.407ZM96.2369 199.591C89.7399 204.92 86.2049 211.753 85.695 219.867L94.005 220.382C94.3908 214.242 96.9705 209.3 101.807 205.333L96.2369 199.591ZM85.6948 219.87C85.2011 227.842 87.9788 234.968 93.8736 241.045L100.059 235.971C95.6078 231.383 93.6414 226.253 94.0052 220.378L85.6948 219.87ZM93.8736 241.045C99.9884 247.348 107.2 251.332 115.476 252.71L116.883 245.171C110.699 244.141 105.102 241.17 100.059 235.971L93.8736 241.045ZM115.601 252.729C124.183 253.914 131.968 251.566 138.701 246.043L133.131 240.301C128.048 244.471 122.676 245.968 116.759 245.152L115.601 252.729ZM138.701 246.043C143.506 242.102 147.055 238.122 148.926 234.074L141.261 231.018C140.058 233.622 137.489 236.726 133.131 240.301L138.701 246.043ZM148.898 234.132C150.724 230.359 152.078 225.999 153.006 221.099L144.806 219.713C143.966 224.15 142.778 227.883 141.289 230.959L148.898 234.132ZM153.013 221.062C153.689 217.271 154.547 214.268 155.538 211.983L147.803 209.085C146.52 212.044 145.535 215.623 144.799 219.75L153.013 221.062ZM155.503 212.062C156.461 209.987 158.228 207.776 161.044 205.466L155.474 199.724C152.02 202.557 149.395 205.638 147.838 209.006L155.503 212.062ZM161.044 205.466C165.233 202.03 169.248 200.739 173.207 200.992L173.706 193.348C167.047 192.922 160.93 195.248 155.474 199.724L161.044 205.466ZM173.292 200.997C177.224 201.174 180.794 202.758 184.109 206.176L190.294 201.102C185.697 196.364 180.104 193.635 173.621 193.343L173.292 200.997ZM184.109 206.176C187.972 210.158 190.134 215.488 190.28 222.521L198.602 222.448C198.427 213.973 195.763 206.739 190.294 201.102L184.109 206.176ZM190.282 222.578C190.535 229.483 188.652 236.976 184.396 245.109L191.901 248.487C196.598 239.513 198.909 230.796 198.601 222.391L190.282 222.578ZM184.396 245.109C180.186 253.153 173.902 260.651 165.446 267.587L171.016 273.329C180.164 265.826 187.158 257.55 191.901 248.487L184.396 245.109Z" fill="#8F4545" mask="url(#path-6-outside-1_1_157)"/>
</svg>
