<svg width="936" height="526" viewBox="0 0 936 526" fill="none" xmlns="http://www.w3.org/2000/svg">
<g id="Group 8">
<g id="Vector 36">
<path d="M913.614 12.2648C894.312 11.0132 15.8473 12.2648 15.8473 12.2648L18.3219 44.8062H915.811C917.573 44.8062 923.512 44.1479 929.451 48.9781C935.39 53.8084 934.4 58.9909 935.39 66.5004C932.674 57.7113 928.847 54.412 916.088 52.7329H18.5075C18.5694 52.9415 18.5693 53.5673 18.3219 55.2361C17.827 58.5736 10.8982 57.7472 9.90843 57.7393C8.91861 57.7313 5.80258 55.5653 5.94915 51.4813L1.98987 6.42405C2.39061 3.01516 4.82929 1.13526 7.92879 1.00053C10.6394 0.971686 13.744 2.1332 14.3626 3.92087C14.3626 3.92087 893.43 4.55501 910.149 4.33808C926.869 4.12116 931.555 16.277 931.926 21.026C932.296 25.7749 932.915 13.5164 913.614 12.2648Z" fill="#DF4818"/>
<path d="M15.8473 12.2648C15.8473 12.2648 894.312 11.0132 913.614 12.2648C932.915 13.5164 932.296 25.7749 931.926 21.026C931.555 16.277 926.869 4.12116 910.15 4.33808C893.43 4.55501 14.3626 3.92087 14.3626 3.92087C13.744 2.1332 10.6394 0.971686 7.92879 1.00053C4.82929 1.13526 2.39061 3.01516 1.98987 6.42405L5.94915 51.4813C5.80258 55.5653 8.91861 57.7313 9.90843 57.7393C10.8982 57.7472 17.827 58.5736 18.3219 55.2361C18.8168 51.8985 18.3219 52.7329 18.3219 52.7329H916.088C928.847 54.412 932.674 57.7113 935.39 66.5004C934.4 58.9909 935.39 53.8084 929.451 48.9781C923.512 44.1479 917.573 44.8062 915.811 44.8062H18.3219L15.8473 12.2648Z" stroke="black"/>
</g>
<path id="Vector 37" d="M1 489.955L1.98982 7.67578L5.9491 53.9846L7.43383 56.905V525L1 489.955Z" fill="#C73E12" stroke="black"/>
<path id="Vector 38" d="M18.8168 524.165V53.1501C18.6454 56.5041 17.4836 57.4461 13.8677 57.7393C12.3216 57.8911 11.4547 57.8536 9.90839 57.7393C9.13248 57.6309 8.53727 57.1487 7.43384 56.1837V524.583L18.8168 524.165Z" fill="#DF4818" stroke="black"/>
<path id="Vector 39" d="M19.3116 524.165V53.1501L916.088 52.7329C927.767 54.4496 932.163 57.2279 935.39 66.0832V508.312C935.39 517.073 926.898 524.625 916.088 524.165H19.3116Z" fill="#FA531E" stroke="black"/>
<path id="Vector 47" d="M19.3116 524.165V53.1501L916.088 52.7329C927.933 53.2788 932.275 56.4375 935.39 66.0832V508.312C935.39 517.073 926.898 524.625 916.088 524.165H19.3116Z" fill="#FA531E" stroke="black"/>
<path id="Vector 40" d="M931.925 21.4432L934.895 64.4145C933.972 51.0642 927.966 44.8062 918.068 44.8062H18.3218L15.8473 12.2649H914.109C926.663 12.7257 930.847 16.4323 931.925 21.4432Z" fill="#F6F6F6" stroke="black"/>
<path id="Vector 41" d="M933.905 49.3951C932.42 40.6339 928.511 37.0591 919.553 36.8792H647.847" stroke="black"/>
<path id="Vector 42" d="M932.915 44.389C932.42 34.7935 928.708 30.4366 918.563 29.7871H552.33" stroke="black"/>
<path id="Vector 48" d="M932.915 36.8792C932.096 28.6138 929.203 25.43 919.058 24.7805H884.909" stroke="black"/>
<path id="Vector 50" d="M932.42 30.2042C931.601 21.9387 928.213 18.7549 918.068 18.1055H469.185" stroke="black"/>
<path id="Vector 44" d="M24.7557 38.9656H669.623M34.6539 21.0261H564.207M332.59 31.8732H811.167" stroke="black"/>
<path id="Vector 45" d="M45.5419 18.9399H415.734M73.2568 29.7871H513.727" stroke="black"/>
</g>
</svg>
