<svg width="936" height="526" viewBox="0 0 936 526" fill="none" xmlns="http://www.w3.org/2000/svg">
<g id="Group 4">
<g id="Vector 36">
<path d="M913.614 11.775C894.312 10.5222 15.8473 11.775 15.8473 11.775L18.3219 44.3474H915.811C917.573 44.3474 923.512 43.6886 929.451 48.5234C935.39 53.3582 934.4 58.5457 935.39 66.0624C932.674 57.2649 928.847 53.9625 916.088 52.2817H18.5075C18.5694 52.4906 18.5693 53.1169 18.3219 54.7873C17.827 58.1281 10.8982 57.3008 9.90843 57.2929C8.91861 57.285 5.80258 55.1168 5.94915 51.029L1.98987 5.92863C2.39061 2.51648 4.82929 0.634781 7.92879 0.499915C10.6394 0.471048 13.744 1.63367 14.3626 3.42305C14.3626 3.42305 893.43 4.0578 910.149 3.84066C926.869 3.62353 931.555 15.791 931.926 20.5445C932.296 25.298 932.915 13.0278 913.614 11.775Z" fill="#E0C745"/>
<path d="M15.8473 11.775C15.8473 11.775 894.312 10.5222 913.614 11.775C932.915 13.0278 932.296 25.298 931.926 20.5445C931.555 15.791 926.869 3.62353 910.15 3.84066C893.43 4.0578 14.3626 3.42305 14.3626 3.42305C13.744 1.63367 10.6394 0.471048 7.92879 0.499915C4.82929 0.634781 2.39061 2.51648 1.98987 5.92863L5.94915 51.029C5.80258 55.1168 8.91861 57.285 9.90843 57.2929C10.8982 57.3008 17.827 58.1281 18.3219 54.7873C18.8168 51.4465 18.3219 52.2817 18.3219 52.2817H916.088C928.847 53.9625 932.674 57.2649 935.39 66.0624C934.4 58.5457 935.39 53.3582 929.451 48.5234C923.512 43.6886 917.573 44.3474 915.811 44.3474H18.3219L15.8473 11.775Z" stroke="black"/>
</g>
<path id="Vector 37" d="M1 489.922L1.98982 7.18152L5.9491 53.5346L7.43383 56.4578V525L1 489.922Z" fill="#B6A23B" stroke="black"/>
<path id="Vector 38" d="M18.8168 524.165V52.6993C18.6454 56.0565 17.4836 56.9994 13.8677 57.2929C12.3216 57.4448 11.4547 57.4073 9.90839 57.2929C9.13248 57.1844 8.53727 56.7018 7.43384 55.7358V524.582L18.8168 524.165Z" fill="#E0C745" stroke="black"/>
<path id="Vector 39" d="M19.3116 524.165V52.6993L916.088 52.2817C927.767 54.0001 932.163 56.7811 935.39 65.6448V508.296C935.39 517.066 926.898 524.625 916.088 524.165H19.3116Z" fill="#FFE350" stroke="black"/>
<path id="Vector 47" d="M19.3116 524.165V52.6993L916.088 52.2817C927.933 52.8282 932.275 55.9899 935.39 65.6448V508.296C935.39 517.066 926.898 524.625 916.088 524.165H19.3116Z" fill="#FFE350" stroke="black"/>
<path id="Vector 40" d="M931.925 20.9621L934.895 63.9745C933.972 50.6114 927.966 44.3475 918.068 44.3475H18.3218L15.8473 11.775H914.109C926.663 12.2362 930.847 15.9464 931.925 20.9621Z" fill="#F6F6F6" stroke="black"/>
<path id="Vector 41" d="M933.905 48.941C932.42 40.1714 928.511 36.5933 919.553 36.4131H647.847" stroke="black"/>
<path id="Vector 42" d="M932.915 43.9298C932.42 34.3251 928.708 29.964 918.563 29.314H552.33" stroke="black"/>
<path id="Vector 48" d="M932.915 36.4131C932.096 28.1398 929.203 24.9529 919.058 24.3029H884.909" stroke="black"/>
<path id="Vector 50" d="M932.42 29.7316C931.601 21.4583 928.213 18.2714 918.068 17.6213H469.185" stroke="black"/>
<path id="Vector 44" d="M24.7557 38.501H669.623M34.6539 20.5444H564.207M332.59 31.4019H811.167" stroke="black"/>
<path id="Vector 45" d="M45.5419 18.4564H415.734M73.2568 29.3139H513.727" stroke="black"/>
</g>
</svg>
