<svg width="1166" height="374" viewBox="0 0 1166 374" fill="none" xmlns="http://www.w3.org/2000/svg">
<path d="M74.1893 99.3075C55.4358 225.952 80.8476 267.333 129.509 273L142 257.823C86.5805 247.716 78.8231 203.243 95.0084 92L74.1893 99.3075Z" fill="#72522D" stroke="black" stroke-width="2"/>
<path d="M1091.89 99.3478C1110.39 226.692 1085.33 268.302 1037.32 274L1025 258.739C1079.67 248.576 1087.32 203.858 1071.36 92L1091.89 99.3478Z" fill="#72522D" stroke="black" stroke-width="2"/>
<path d="M234 186.82C196.818 200.041 176.532 215.964 141.481 257C116.103 249.12 105.251 242.898 97.5633 225.559C85.9917 200.754 84.5724 168.959 95.221 91.9357C146.45 70.4118 167.376 66.833 191.254 75.0924C210.51 87.2114 221.28 119.068 234 186.82Z" fill="#CE9278" stroke="#CE9278"/>
<path d="M932 188.065C969.437 201.429 989.862 217.523 1025.15 259C1050.7 251.036 1061.63 244.746 1069.37 227.221C1081.02 202.15 1082.45 170.012 1071.73 92.1609C1020.15 70.4054 999.08 66.7882 975.039 75.1364C955.651 87.3857 944.807 119.585 932 188.065Z" fill="#CE9278" stroke="#CE9278"/>
<path d="M200.855 9.21889C241.577 45.2231 255 181.58 255 181.58C235.416 187 243.48 185.16 235.416 187C212.375 69.9245 195.677 71.8984 164.573 71.8984C133.468 71.8984 71.797 107.878 34.9657 107.878C-1.86565 107.878 -5.78291 85.4062 13.0778 79.1825C22.2566 76.1537 54.1812 62.373 95.2845 39.3999C134.954 17.228 179.951 -9.26358 200.855 9.21889Z" fill="#72522D" stroke="black" stroke-width="2"/>
<path d="M965.931 8.28649C925.37 44.682 912 182.521 912 182.521C931.507 188 923.475 186.14 931.507 188C954.456 69.652 971.088 71.6473 1002.07 71.6473C1033.05 71.6473 1094.48 108.018 1131.16 108.018C1167.85 108.018 1171.75 85.3019 1152.97 79.0106C1143.82 75.9488 1112.03 62.0183 1071.08 38.7956C1031.57 16.3827 986.752 -10.3969 965.931 8.28649Z" fill="#72522D" stroke="black" stroke-width="2"/>
<path d="M129 273C155.495 240.981 187.29 196.605 255 182" stroke="black" stroke-width="2"/>
<path d="M1037 274C1010.71 241.63 979.173 196.765 912 182" stroke="black" stroke-width="2"/>
<path d="M190.553 4.4021C225.107 25.1076 241.887 75.4632 254 182.064L235.788 186C229.326 173.069 224.039 103.916 195.84 77.4911C167.641 51.0666 62.4828 108.413 54.2581 103.916C46.0335 99.4177 60.1329 99.4177 98.9063 67.3711C149.429 21.2688 171.077 -3.31629 190.553 4.4021Z" fill="#6B4C27"/>
<path d="M976.133 3.41743C941.75 24.3492 925.053 75.2552 913 183.021L931.122 187C937.552 173.928 942.813 104.018 970.872 77.3052C998.931 50.5919 1103.57 108.565 1111.75 104.018C1119.94 99.4715 1105.91 99.4715 1067.33 67.0746C1017.05 20.4685 995.512 -4.38532 976.133 3.41743Z" fill="#6B4C27"/>
<path d="M199.855 8.25269C240.577 44.4526 254 181.55 254 181.55C234.416 187 242.48 185.15 234.416 187C211.375 69.2882 194.677 71.2729 163.573 71.2729C132.468 71.2729 70.797 107.448 33.9657 107.448C-2.86565 107.448 -6.78291 84.8541 12.0778 78.5965C21.2566 75.5512 53.1812 61.6956 94.2845 38.5978C133.954 16.3053 178.951 -10.3302 199.855 8.25269Z" stroke="black" stroke-width="2"/>
<path d="M966.931 7.28649C926.37 43.682 913 181.521 913 181.521C932.507 187 924.475 185.14 932.507 187C955.456 68.652 972.088 70.6473 1003.07 70.6473C1034.05 70.6473 1095.48 107.018 1132.16 107.018C1168.85 107.018 1172.75 84.3019 1153.97 78.0106C1144.82 74.9488 1113.03 61.0183 1072.08 37.7956C1032.57 15.3827 987.752 -11.3969 966.931 7.28649Z" stroke="black" stroke-width="2"/>
<path d="M848.103 277.267L848.112 277.291L848.122 277.315C851.994 286.593 858.595 294.233 867.834 300.234C874.075 304.286 880.722 306.809 887.762 307.768C894.108 308.702 900.252 308.516 906.176 307.193C907.172 312.808 909.389 318.216 912.796 323.407C916.66 329.294 921.797 334.306 928.173 338.447C942.212 347.564 957.018 349.763 972.42 344.919L972.427 344.917L972.434 344.914C987.863 339.941 1001.33 328.905 1012.88 312.077C1018.3 304.186 1022.72 295.76 1026.15 286.802C1029.71 277.635 1031.18 268.977 1030.48 260.856C1030.03 252.482 1026.45 245.986 1019.72 241.616C1013.68 237.697 1007.7 236.339 1001.92 238.042L1001.91 238.045C996.495 239.672 991.569 244.031 987.044 250.622C985.249 253.237 983.718 256.703 982.407 260.941C981.115 265.121 980.33 267.494 980.02 268.227L979.976 268.331L979.944 268.44C977.279 277.528 974.997 283.263 973.15 285.953C969.979 290.573 966.922 293.164 964.064 294.168C961.338 295.126 958.464 294.752 955.256 292.668C953.648 291.624 952.646 290.484 952.099 289.283C951.562 288.104 951.396 286.721 951.702 285.056C952.649 281.318 955.151 276.391 959.389 270.218C962.25 266.049 964.501 262.934 966.15 260.848L966.178 260.812L966.205 260.775L973.661 250.401L973.674 250.383L973.686 250.365C977.411 244.94 978.988 239.153 978.315 233.073C977.724 226.637 974.112 221.387 967.867 217.332C961.643 213.289 955.388 212.006 949.27 213.915L949.244 213.923L949.219 213.931C943.501 215.877 938.753 219.691 934.96 225.216L934.952 225.227L934.945 225.239L923.654 242.171C918.678 249.418 914.36 254.413 910.706 257.304C909.03 258.596 907.535 259.194 906.204 259.308C904.897 259.42 903.54 259.084 902.082 258.137C899.035 256.158 898.191 254.293 898.403 252.548C898.798 250.073 900.592 246.313 904.143 241.14C905.885 238.602 908.267 235.901 911.319 233.039L911.325 233.033L911.331 233.027C914.466 230.036 916.477 228.089 917.323 227.221C923.316 222.052 927.584 217.707 929.982 214.214C934.369 207.824 936.373 201.508 935.685 195.334C934.985 189.059 931.407 183.942 925.317 179.986C918.582 175.613 910.968 174.845 902.692 177.539L902.692 177.539L902.684 177.542C894.857 180.126 887.276 184.818 879.934 191.529C872.643 198.193 866.236 205.546 860.717 213.586C853.116 224.658 848.154 235.678 845.898 246.643L845.894 246.657L845.892 246.672C843.794 257.738 844.505 267.955 848.103 277.267Z" fill="#E0C745" stroke="#8F4545" stroke-width="4"/>
<path d="M724.116 197.877L724.119 197.899L724.123 197.921C725.874 209.15 730.694 219.306 738.533 228.364C746.379 237.43 756.76 244.595 769.609 249.889C784.163 255.887 795.842 258.559 804.451 257.523L804.47 257.521L804.489 257.518C812.982 256.332 819.013 252.961 821.655 246.918C823.258 243.253 823.158 239.642 821.263 236.282C819.571 233.046 816.566 230.652 812.532 228.99C810.501 228.153 808.285 227.556 805.894 227.188C800.063 226.12 794.847 224.63 790.233 222.729C781.378 219.08 775.731 213.954 773.015 207.381C777.651 210.657 783.23 213.627 789.724 216.303C803.282 221.89 816.294 223.864 828.72 222.112L828.73 222.111C841.759 220.209 851.145 212.587 856.816 199.619C860.305 191.638 861.305 183.067 859.861 173.959C858.482 164.63 854.417 155.969 847.749 147.988C841.046 139.966 832.08 133.674 820.925 129.077C808.535 123.972 796.167 122.178 783.853 123.754C771.593 125.323 760.583 129.637 750.864 136.698L750.852 136.706L750.841 136.714C741.291 143.852 734.091 152.972 729.253 164.037C724.345 175.262 722.617 186.553 724.116 197.877ZM806.166 184.487L806.139 184.49L806.113 184.494C803.09 184.959 799.866 184.53 796.399 183.102C793.381 181.858 790.84 180.271 788.749 178.354C787.119 176.577 786.058 174.549 785.549 172.241C786.803 169.725 788.894 167.805 791.967 166.486C795.331 165.051 799.031 165.085 803.22 166.811C807.556 168.597 810.087 170.838 811.253 173.365L811.267 173.396L811.283 173.426C812.671 176.179 812.749 178.659 811.712 181.032C810.916 182.852 809.28 184.091 806.166 184.487Z" fill="#E0C745" stroke="#8F4545" stroke-width="4"/>
<path d="M572.728 171.603L572.728 171.616L572.729 171.629C573.222 186.053 575.558 197.197 579.936 204.832C584.43 212.669 591.627 216.995 601.241 217.836C608.681 218.487 614.766 217.343 619.138 213.998L619.14 213.996C623.556 210.608 626.513 205.841 628.08 199.845C629.776 194.059 631.171 186.301 632.285 176.618L632.285 176.615C633.45 166.364 635.47 158.716 638.237 153.523C639.679 150.924 641.338 149.166 643.162 148.099C644.973 147.04 647.083 146.581 649.578 146.8C652.088 147.019 654.02 147.817 655.498 149.103C656.985 150.397 658.152 152.31 658.906 154.994L658.913 155.021L658.922 155.047C660.654 160.615 661.097 168.557 660.096 179.013C659.167 188.722 658.888 196.495 659.289 202.284L659.292 202.316L659.295 202.348C659.904 208.332 661.921 213.34 665.448 217.237L665.465 217.256L665.483 217.274C669.326 221.307 675.253 223.499 682.872 224.165C688.47 224.655 693.427 223.664 697.621 221.057C701.802 218.459 705.041 214.368 707.416 208.973C712.25 198.287 715.429 184.612 717.018 168.019C718.258 155.061 716.947 143.018 713.047 131.92C709.32 120.807 703.085 111.664 694.342 104.545C685.559 97.2001 674.68 92.9989 661.805 91.8725C656.046 91.3687 651.491 91.3304 648.233 91.8248L648.218 91.8271L648.203 91.8296C645.982 92.2014 643.502 92.8534 640.773 93.7719L641.631 84.8052C642.716 73.4734 643.071 63.9232 642.678 56.1773C642.277 48.2702 640.212 41.4195 636.407 35.7068C632.415 29.7141 625.944 26.4653 617.402 25.718C607.434 24.8459 599.476 27.9303 593.901 35.1443C588.566 41.8926 584.728 51.2796 582.272 63.1498L582.269 63.165L582.266 63.1801C580.012 74.9872 577.884 91.3882 575.877 112.353C573.476 137.441 572.421 157.203 572.728 171.603Z" fill="#E0C745" stroke="#8F4545" stroke-width="4"/>
<path d="M480.861 187.599L480.833 187.582L480.805 187.565C478.433 186.165 476.079 185.12 473.744 184.451C471.231 183.731 468.203 183.674 464.752 184.144C458.535 184.993 453.454 187.327 449.675 191.258C445.928 195.116 444.573 200.107 445.419 205.95C446.744 215.098 453.194 221.595 463.905 225.618C474.612 229.639 488.187 230.442 504.499 228.217C523.218 225.663 537.886 220.272 548.31 211.885C559.007 203.401 563.654 192.897 561.864 180.535C560.471 170.914 555.823 163.682 547.9 159.083C540.466 154.637 531.073 151.467 519.794 149.509L519.786 149.508L519.778 149.506C517.84 149.186 516.555 148.67 515.757 148.086C515.02 147.546 514.66 146.929 514.548 146.16C514.428 145.328 514.627 144.7 515.184 144.103L515.246 144.037L515.301 143.966C515.944 143.137 516.693 142.714 517.618 142.587C519.055 142.391 520.288 142.46 521.35 142.74L521.394 142.751L521.438 142.761C522.885 143.074 524.249 143.48 525.53 143.976L525.582 143.996L525.634 144.013C528.002 144.785 529.901 145.362 531.317 145.735L531.469 145.775L531.625 145.791C533.365 145.97 535.491 145.865 537.952 145.529C544.291 144.665 549.33 142.457 552.805 138.707C556.558 134.835 557.877 129.751 557.01 123.762C556.07 117.267 552.468 111.82 546.476 107.432C540.495 102.893 532.835 99.8089 523.595 98.097C514.504 96.3538 504.638 96.224 494.012 97.6737C481.705 99.353 471.004 102.843 461.956 108.189C453.114 113.304 446.42 119.475 441.983 126.74L441.98 126.746C437.707 133.801 436.017 141.004 437.072 148.292C438.017 154.818 441.087 160.626 446.167 165.688C451.276 170.778 458.501 174.688 467.691 177.513C469.356 178.055 472.633 178.903 477.44 180.05C482.651 181.327 486.177 182.497 488.171 183.527L488.226 183.555L488.282 183.58C489.803 184.253 490.667 185.369 490.935 187.218C491.05 188.01 490.855 188.387 490.542 188.676C490.112 189.073 489.192 189.521 487.436 189.76C486.244 189.923 485.258 189.843 484.435 189.588C483.608 189.239 482.429 188.594 480.861 187.599Z" fill="#E0C745" stroke="#8F4545" stroke-width="4"/>
<path d="M339.331 271.792L339.344 271.795L339.357 271.797C350.908 274.179 363.499 272.477 377.056 266.891C384.633 263.769 390.749 260.559 395.353 257.245C399.706 254.159 403.456 250.641 406.591 246.691C410.155 247.752 413.414 248.352 416.35 248.453C419.802 248.571 423.675 247.68 427.919 245.931C433.798 243.508 437.833 239.615 439.768 234.223C441.831 228.878 441.716 223.513 439.411 218.241C438.054 215.138 435.991 212.449 433.26 210.179C431.066 208.177 428.525 206.638 425.657 205.558C425.79 202.272 425.278 198.364 424.196 193.882C423.088 188.52 421.277 182.977 418.775 177.256C414.095 166.55 407.351 157.747 398.54 150.891C389.826 143.906 379.191 139.903 366.731 138.815C354.284 137.483 340.69 139.918 325.996 145.973C318.475 149.072 311.485 153.355 305.026 158.81C298.447 164.138 293.562 170.2 290.434 177.005L290.427 177.021L290.42 177.037C287.386 183.963 287.384 190.973 290.427 197.933C293.027 203.878 296.746 207.993 301.742 209.793L301.771 209.803L301.8 209.813C306.626 211.392 311.982 210.834 317.727 208.467C321.024 207.108 323.647 205.733 325.503 204.316C327.426 202.906 329.388 201.181 331.391 199.153C333.286 197.235 335.097 195.65 336.824 194.385C338.474 193.177 340.845 191.912 344.005 190.61C351.149 187.666 356.712 187.003 360.885 188.164L360.913 188.172L360.942 188.179C363.873 188.905 366.092 190.236 367.685 192.184C365.77 192.354 363.52 192.769 360.986 193.377C356.399 194.265 351.674 195.716 346.812 197.72C333.592 203.167 323.654 210.653 317.16 220.247C310.586 229.959 309.451 240.062 313.939 250.326C319.023 261.954 327.513 269.195 339.331 271.792ZM376.166 231.093L376.146 231.124L376.127 231.156C375.022 233.004 372.949 234.681 369.608 236.058C366.295 237.423 363.503 237.764 361.155 237.302C358.987 236.774 357.774 235.737 357.138 234.282C356.502 232.826 356.576 231.259 357.69 229.379C358.979 227.417 361.171 225.704 364.484 224.339C367.825 222.962 370.508 222.68 372.644 223.192L372.681 223.201L372.719 223.208C375.102 223.687 376.343 224.718 376.954 226.116C377.565 227.514 377.467 229.096 376.166 231.093Z" fill="#E0C745" stroke="#8F4545" stroke-width="4"/>
<path d="M239.842 341.548L239.856 341.544L239.871 341.539C253.945 337.48 267.159 330.052 279.512 319.313C288.742 311.289 295.75 302.484 300.488 292.889C305.202 283.345 307.465 274.193 307.165 265.46C306.99 256.637 304.384 249.303 299.198 243.638C294.823 238.859 289.626 236.213 283.654 235.923C277.54 235.514 271.817 237.755 266.547 242.336C263.164 245.277 260.692 248.39 259.252 251.695L259.243 251.715L259.235 251.735C257.994 254.768 257.015 258.503 256.274 262.904C255.385 267.873 254.118 272.122 252.496 275.675L252.489 275.69L252.482 275.705C251.064 278.958 248.155 282.594 243.549 286.598C237.883 291.524 231.712 293.404 224.91 292.417C217.987 291.189 211.794 287.656 206.318 281.674C201.341 276.237 199.096 270.063 199.505 263.052C199.936 255.787 202.85 249.857 208.275 245.141C212.744 241.256 216.546 239.26 219.704 238.778L219.762 238.77L219.819 238.757C223.274 238.028 227.514 237.915 232.586 238.484C237.928 239.084 242.563 239.051 246.443 238.319C250.562 237.542 254.863 235.057 259.335 231.17C265.511 225.801 268.659 219.566 268.401 212.521C268.273 205.58 265.723 199.399 260.824 194.047C253.339 185.87 244.083 180.577 233.111 178.198C222.268 175.713 210.79 176.402 198.724 180.176C186.525 183.844 174.939 190.481 163.964 200.021C152.287 210.172 144.277 222.168 139.991 235.994C135.718 249.776 135.188 263.678 138.405 277.667C141.621 291.653 148.155 304.032 157.989 314.776C170.08 327.985 183.248 336.803 197.509 341.087L197.52 341.091C211.615 345.24 225.738 345.394 239.842 341.548Z" fill="#E0C745" stroke="#8F4545" stroke-width="4"/>
<path d="M844.844 273.343L844.853 273.366L844.863 273.389C848.632 281.91 855.053 288.921 864.035 294.426C870.103 298.144 876.568 300.459 883.417 301.34C889.566 302.194 895.522 302.029 901.27 300.826C902.246 305.965 904.402 310.911 907.702 315.656C911.461 321.06 916.457 325.659 922.656 329.458C936.303 337.82 950.708 339.846 965.71 335.394L965.717 335.392L965.724 335.39C980.752 330.818 993.861 320.675 1005.1 305.224C1010.37 297.978 1014.68 290.241 1018.02 282.017C1021.48 273.596 1022.92 265.637 1022.24 258.171C1021.79 250.46 1018.3 244.489 1011.75 240.476C1005.88 236.882 1000.05 235.624 994.395 237.196L994.384 237.199C989.075 238.704 984.261 242.732 979.851 248.793C978.094 251.209 976.6 254.404 975.324 258.297C974.067 262.133 973.308 264.299 973.011 264.961L972.964 265.065L972.93 265.174C970.341 273.508 968.13 278.741 966.354 281.182C963.284 285.402 960.341 287.746 957.608 288.652C955.003 289.516 952.234 289.186 949.121 287.279C947.564 286.324 946.599 285.285 946.075 284.199C945.562 283.136 945.403 281.893 945.694 280.395C946.608 276.996 949.024 272.5 953.135 266.849C955.915 263.029 958.098 260.177 959.697 258.269L959.727 258.233L959.755 258.196L966.999 248.685L967.013 248.668L967.026 248.65C970.667 243.644 972.21 238.303 971.552 232.698C970.974 226.76 967.445 221.935 961.374 218.214C955.323 214.506 949.225 213.317 943.239 215.079L943.213 215.086L943.187 215.095C937.598 216.889 932.956 220.409 929.251 225.502L929.242 225.513L929.234 225.524L918.266 241.046C913.437 247.683 909.254 252.245 905.725 254.88C904.117 256.05 902.691 256.586 901.425 256.688C900.178 256.789 898.873 256.487 897.462 255.622C894.5 253.808 893.718 252.118 893.915 250.583C894.293 248.35 896.016 244.93 899.463 240.192C901.146 237.879 903.45 235.412 906.409 232.794L906.415 232.788L906.422 232.782C909.459 230.047 911.414 228.261 912.242 227.46C918.064 222.722 922.223 218.728 924.566 215.508C928.846 209.624 930.809 203.798 930.136 198.1C929.451 192.311 925.956 187.607 920.035 183.978C913.482 179.962 906.061 179.251 897.986 181.732L897.986 181.732L897.978 181.734C890.352 184.11 882.967 188.424 875.819 194.589C868.725 200.707 862.492 207.458 857.122 214.839C849.726 225.005 844.895 235.128 842.697 245.203L842.694 245.218L842.691 245.233C840.649 255.401 841.342 264.789 844.844 273.343Z" fill="#FFE350" stroke="#8F4545" stroke-width="4"/>
<path d="M724.401 200.565L724.404 200.587L724.408 200.61C726.114 210.934 730.808 220.258 738.427 228.565C746.053 236.881 756.141 243.448 768.622 248.302C782.758 253.799 794.106 256.25 802.478 255.299L802.497 255.297L802.516 255.295C810.756 254.209 816.701 251.113 819.316 245.47C820.904 242.042 820.794 238.675 818.94 235.57C817.286 232.588 814.36 230.394 810.447 228.873C808.474 228.106 806.322 227.558 803.999 227.221C798.334 226.242 793.266 224.876 788.783 223.133C780.403 219.875 774.997 215.338 772.29 209.57C776.723 212.48 782.023 215.123 788.164 217.511C801.333 222.632 813.976 224.444 826.057 222.836L826.067 222.835C838.751 221.088 847.931 214.072 853.475 202.108C856.885 194.748 857.858 186.85 856.451 178.473C855.106 169.892 851.146 161.937 844.664 154.618C838.148 147.26 829.436 141.491 818.601 137.278C806.567 132.598 794.549 130.952 782.578 132.398C770.659 133.838 759.944 137.796 750.476 144.286L750.464 144.295L750.452 144.303C741.148 150.866 734.127 159.255 729.409 169.436C724.624 179.763 722.94 190.153 724.401 200.565ZM804.255 188.075L804.229 188.078L804.202 188.082C801.275 188.507 798.145 188.116 794.773 186.805C791.841 185.664 789.373 184.209 787.343 182.453C785.779 180.845 784.763 179.018 784.268 176.952C785.462 174.734 787.44 173.023 790.372 171.835C793.612 170.531 797.199 170.554 801.275 172.14C805.494 173.78 807.945 175.834 809.067 178.131L809.082 178.16L809.097 178.189C810.436 180.695 810.494 182.914 809.52 185.016C808.793 186.586 807.281 187.712 804.255 188.075Z" fill="#FFE350" stroke="#8F4545" stroke-width="4"/>
<path d="M577.351 176.426L577.351 176.44L577.351 176.453C577.832 189.699 580.105 199.959 584.382 206.998C588.774 214.226 595.782 218.178 605.094 218.947C612.305 219.542 618.215 218.5 622.479 215.422L622.481 215.42C626.793 212.298 629.696 207.892 631.233 202.342C632.887 197.017 634.245 189.888 635.327 181.006L635.327 181.003C636.457 171.623 638.413 164.65 641.079 159.929C642.461 157.578 644.053 155.985 645.811 155.014C647.563 154.048 649.617 153.623 652.054 153.824C654.506 154.027 656.387 154.763 657.815 155.936C659.247 157.112 660.363 158.841 661.084 161.264L661.092 161.292L661.101 161.319C662.77 166.378 663.203 173.618 662.232 183.186C661.328 192.094 661.056 199.237 661.448 204.566L661.45 204.599L661.454 204.633C662.051 210.17 664.031 214.8 667.476 218.392L667.494 218.41L667.511 218.428C671.257 222.136 677.014 224.139 684.4 224.749C689.825 225.197 694.637 224.293 698.72 221.898C702.8 219.505 705.971 215.73 708.297 210.747C713.009 200.916 716.103 188.347 717.648 173.118C718.857 161.201 717.579 150.122 713.777 139.914C710.143 129.688 704.066 121.289 695.566 114.757C687.027 108.019 676.461 104.172 663.966 103.141C658.373 102.679 653.952 102.644 650.792 103.097L650.778 103.099L650.763 103.101C648.619 103.44 646.227 104.032 643.593 104.867L644.408 96.8311C645.463 86.4347 645.808 77.6649 645.426 70.5457C645.034 63.2532 643.015 56.9339 639.298 51.6698C635.397 46.1438 629.101 43.1766 620.828 42.4936C611.176 41.6968 603.428 44.506 597.973 51.1656C592.763 57.3849 589.021 66.0294 586.629 76.9388L586.625 76.9548L586.622 76.9708C584.43 87.8077 582.361 102.853 580.411 122.076C578.078 145.08 577.051 163.209 577.351 176.426Z" fill="#FFE350" stroke="#8F4545" stroke-width="4"/>
<path d="M488.13 190.905L488.102 190.888L488.073 190.872C485.764 189.587 483.474 188.627 481.206 188.014C478.767 187.354 475.83 187.302 472.483 187.733C466.457 188.509 461.523 190.644 457.843 194.256C454.179 197.815 452.833 202.452 453.667 207.893C454.975 216.416 461.335 222.397 471.722 226.078C482.125 229.765 495.307 230.5 511.148 228.461C529.326 226.121 543.571 221.182 553.7 213.491C564.092 205.714 568.67 196.032 566.913 184.579C565.547 175.671 560.98 168.992 553.259 164.762C546.027 160.682 536.899 157.776 525.946 155.981L525.938 155.98L525.93 155.979C524.041 155.685 522.799 155.21 522.038 154.685C521.343 154.205 521.04 153.686 520.945 153.065C520.842 152.395 520.998 151.878 521.523 151.347L521.585 151.284L521.642 151.216C522.252 150.474 522.977 150.078 523.894 149.96C525.295 149.78 526.499 149.843 527.532 150.1L527.575 150.111L527.618 150.119C529.024 150.407 530.349 150.779 531.593 151.233L531.643 151.252L531.694 151.267C533.995 151.975 535.841 152.504 537.216 152.846L537.362 152.883L537.512 152.897C539.198 153.061 541.26 152.965 543.649 152.657C549.793 151.866 554.687 149.848 558.073 146.401C561.743 142.827 563.052 138.103 562.197 132.532C561.27 126.487 557.719 121.449 551.883 117.416C546.057 113.244 538.609 110.418 529.638 108.849C520.809 107.252 511.228 107.133 500.91 108.461C488.959 110 478.568 113.198 469.78 118.098C461.193 122.785 454.679 128.446 450.356 135.127L450.352 135.133C446.187 141.621 444.521 148.278 445.558 155.035C446.486 161.087 449.502 166.456 454.46 171.117C459.444 175.803 466.478 179.39 475.402 181.979C477.02 182.475 480.204 183.253 484.874 184.304C489.937 185.475 493.361 186.548 495.294 187.49L495.348 187.517L495.404 187.54C496.868 188.15 497.643 189.131 497.887 190.721C497.984 191.355 497.832 191.64 497.548 191.887C497.134 192.247 496.237 192.66 494.521 192.881C493.356 193.031 492.393 192.957 491.593 192.723C490.793 192.405 489.65 191.816 488.13 190.905Z" fill="#FFE350" stroke="#8F4545" stroke-width="4"/>
<path d="M350.708 268.379L350.721 268.382L350.735 268.385C361.969 270.571 374.204 269.008 387.372 263.888C394.732 261.026 400.674 258.084 405.147 255.045C409.374 252.217 413.016 248.994 416.064 245.372C419.526 246.343 422.692 246.893 425.544 246.985C428.902 247.093 432.665 246.275 436.786 244.673C442.489 242.455 446.422 238.886 448.313 233.915C450.329 228.988 450.222 224.019 447.956 219.128C446.622 216.249 444.596 213.757 441.922 211.66C439.805 209.837 437.363 208.435 434.619 207.443C434.726 204.44 434.225 200.888 433.188 196.836C432.109 191.905 430.344 186.81 427.908 181.554C423.345 171.706 416.769 163.607 408.183 157.302C399.685 150.875 389.33 147.203 377.222 146.205C365.122 144.983 351.914 147.217 337.641 152.767C330.335 155.608 323.543 159.534 317.268 164.535C310.876 169.42 306.124 174.982 303.079 181.234L303.072 181.249L303.065 181.264C300.105 187.64 300.094 194.119 303.08 200.563C305.626 206.058 309.279 209.873 314.179 211.539L314.208 211.549L314.238 211.558C318.948 213.013 324.156 212.496 329.732 210.327C332.934 209.082 335.483 207.822 337.286 206.523C339.154 205.23 341.062 203.648 343.009 201.788C344.848 200.031 346.607 198.578 348.285 197.419C349.887 196.311 352.192 195.151 355.262 193.957C362.208 191.256 367.608 190.653 371.644 191.713L371.673 191.72L371.702 191.727C374.424 192.363 376.49 193.502 377.993 195.144C376.163 195.308 374.028 195.683 371.633 196.225C367.177 197.039 362.587 198.369 357.864 200.206C345.023 205.199 335.365 212.061 329.05 220.865C322.654 229.78 321.523 239.1 325.922 248.594C330.894 259.324 339.199 265.993 350.708 268.379ZM386.375 230.809L386.355 230.838L386.335 230.869C385.27 232.551 383.261 234.089 380.011 235.353C376.789 236.605 374.08 236.915 371.811 236.494C369.72 236.013 368.606 235.084 368.026 233.832C367.446 232.581 367.49 231.201 368.565 229.489C369.811 227.701 371.936 226.131 375.157 224.879C378.408 223.615 381.011 223.359 383.072 223.825L383.109 223.834L383.147 223.841C385.455 224.279 386.59 225.207 387.142 226.399C387.695 227.591 387.635 228.983 386.375 230.809Z" fill="#FFE350" stroke="#8F4545" stroke-width="4"/>
<mask id="path-24-outside-1_1_182" maskUnits="userSpaceOnUse" x="117.122" y="153.866" width="231.169" height="213.228" fill="black">
<rect fill="white" x="117.122" y="153.866" width="231.169" height="213.228"/>
<path d="M291.231 310.458C279.415 320.151 266.827 326.815 253.467 330.451C240.126 333.884 226.787 333.748 213.449 330.043C200.011 326.233 187.51 318.369 175.947 306.449C166.615 296.829 160.424 285.76 157.374 273.241C154.323 260.723 154.825 248.295 158.878 235.957C162.932 223.62 170.505 212.901 181.597 203.802C192.087 195.198 203.105 189.259 214.651 185.984C226.095 182.604 236.888 182.013 247.029 184.209C257.291 186.306 265.921 190.962 272.92 198.177C277.383 202.777 279.67 208.036 279.781 213.953C280.012 219.772 277.295 225.005 271.628 229.654C267.408 233.115 263.544 235.158 260.036 235.783C256.528 236.407 252.24 236.451 247.172 235.914C242.105 235.376 237.756 235.47 234.128 236.193C230.518 236.713 226.483 238.802 222.022 242.462C216.355 247.11 213.298 252.997 212.85 260.124C212.421 267.048 214.793 273.176 219.966 278.508C225.545 284.259 231.949 287.736 239.18 288.94C246.429 289.941 253.008 288.018 258.916 283.172C263.498 279.414 266.557 275.872 268.094 272.546C269.751 269.121 271.022 265.074 271.906 260.406C272.612 256.447 273.534 253.156 274.671 250.534C275.928 247.813 278.124 245.166 281.259 242.595C286.082 238.639 291.148 236.831 296.456 237.17C301.664 237.405 306.246 239.561 310.201 243.639C314.867 248.449 317.28 254.73 317.441 262.485C317.722 270.14 315.625 278.244 311.148 286.798C306.672 295.352 300.033 303.239 291.231 310.458Z"/>
</mask>
<path d="M291.231 310.458C279.415 320.151 266.827 326.815 253.467 330.451C240.126 333.884 226.787 333.748 213.449 330.043C200.011 326.233 187.51 318.369 175.947 306.449C166.615 296.829 160.424 285.76 157.374 273.241C154.323 260.723 154.825 248.295 158.878 235.957C162.932 223.62 170.505 212.901 181.597 203.802C192.087 195.198 203.105 189.259 214.651 185.984C226.095 182.604 236.888 182.013 247.029 184.209C257.291 186.306 265.921 190.962 272.92 198.177C277.383 202.777 279.67 208.036 279.781 213.953C280.012 219.772 277.295 225.005 271.628 229.654C267.408 233.115 263.544 235.158 260.036 235.783C256.528 236.407 252.24 236.451 247.172 235.914C242.105 235.376 237.756 235.47 234.128 236.193C230.518 236.713 226.483 238.802 222.022 242.462C216.355 247.11 213.298 252.997 212.85 260.124C212.421 267.048 214.793 273.176 219.966 278.508C225.545 284.259 231.949 287.736 239.18 288.94C246.429 289.941 253.008 288.018 258.916 283.172C263.498 279.414 266.557 275.872 268.094 272.546C269.751 269.121 271.022 265.074 271.906 260.406C272.612 256.447 273.534 253.156 274.671 250.534C275.928 247.813 278.124 245.166 281.259 242.595C286.082 238.639 291.148 236.831 296.456 237.17C301.664 237.405 306.246 239.561 310.201 243.639C314.867 248.449 317.28 254.73 317.441 262.485C317.722 270.14 315.625 278.244 311.148 286.798C306.672 295.352 300.033 303.239 291.231 310.458Z" fill="#FFE350"/>
<path d="M253.467 330.451L254.622 334.142L254.652 334.134L254.682 334.126L253.467 330.451ZM213.449 330.043L212.259 333.704L212.27 333.707L212.282 333.71L213.449 330.043ZM157.374 273.241L153.313 274.046L153.313 274.046L157.374 273.241ZM158.878 235.957L162.863 237.098L162.863 237.098L158.878 235.957ZM214.651 185.984L215.91 189.646L215.933 189.64L215.956 189.633L214.651 185.984ZM247.029 184.209L246.113 187.938L246.138 187.943L246.164 187.949L247.029 184.209ZM279.781 213.953L275.62 213.983L275.62 214.02L275.622 214.058L279.781 213.953ZM260.036 235.783L259.209 232.021L259.209 232.021L260.036 235.783ZM234.128 236.193L234.809 239.978L234.928 239.961L235.045 239.938L234.128 236.193ZM212.85 260.124L208.695 259.867L208.695 259.87L212.85 260.124ZM239.18 288.94L238.476 292.71L238.538 292.721L238.601 292.729L239.18 288.94ZM268.094 272.546L264.289 270.959L264.275 270.989L264.261 271.018L268.094 272.546ZM271.906 260.406L276.006 261.099L276.01 261.08L276.013 261.062L271.906 260.406ZM274.671 250.534L270.838 249.006L270.82 249.045L270.803 249.085L274.671 250.534ZM296.456 237.17L296.207 240.992L296.25 240.995L296.292 240.997L296.456 237.17ZM317.441 262.485L313.28 262.521L313.281 262.55L313.282 262.578L317.441 262.485ZM311.148 286.798L307.396 285.109L307.396 285.109L311.148 286.798ZM288.446 307.587C277.02 316.96 264.955 323.319 252.252 326.776L254.682 334.126C268.7 330.311 281.811 323.341 294.016 313.329L288.446 307.587ZM252.311 326.761C239.73 329.998 227.196 329.871 214.617 326.376L212.282 333.71C226.377 337.626 240.522 337.77 254.622 334.142L252.311 326.761ZM214.64 326.382C202.086 322.824 190.209 315.426 179.039 303.912L172.854 308.986C184.81 321.311 197.935 329.643 212.259 333.704L214.64 326.382ZM179.039 303.912C170.184 294.784 164.328 284.311 161.434 272.437L153.313 274.046C156.521 287.209 163.046 298.875 172.854 308.986L179.039 303.912ZM161.434 272.437C158.542 260.57 159.014 248.812 162.863 237.098L154.894 234.816C150.635 247.778 150.104 260.876 153.313 274.046L161.434 272.437ZM162.863 237.098C166.683 225.471 173.818 215.339 184.382 206.674L178.812 200.931C167.192 210.463 159.181 221.768 154.894 234.816L162.863 237.098ZM184.382 206.674C194.504 198.371 205.015 192.736 215.91 189.646L213.391 182.321C201.194 185.781 189.67 192.025 178.812 200.931L184.382 206.674ZM215.956 189.633C226.799 186.431 236.819 185.925 246.113 187.938L247.946 180.48C236.957 178.1 225.391 178.778 213.346 182.335L215.956 189.633ZM246.164 187.949C255.569 189.871 263.419 194.107 269.827 200.713L276.013 195.64C268.424 187.817 259.013 182.741 247.895 180.469L246.164 187.949ZM269.827 200.713C273.646 204.65 275.527 209.027 275.62 213.983L283.942 213.924C283.813 207.045 281.12 200.904 276.013 195.64L269.827 200.713ZM275.622 214.058C275.799 218.507 273.801 222.715 268.843 226.783L274.413 232.525C280.788 227.296 284.226 221.036 283.94 213.849L275.622 214.058ZM268.843 226.783C264.881 230.032 261.679 231.581 259.209 232.021L260.863 239.544C265.409 238.735 269.934 236.199 274.413 232.525L268.843 226.783ZM259.209 232.021C256.252 232.547 252.419 232.617 247.61 232.107L246.735 239.72C252.062 240.284 256.804 240.267 260.863 239.544L259.209 232.021ZM247.61 232.107C242.244 231.539 237.414 231.61 233.21 232.448L235.045 239.938C238.099 239.329 241.965 239.214 246.735 239.72L247.61 232.107ZM233.447 232.407C228.699 233.091 223.947 235.727 219.237 239.591L224.807 245.333C229.019 241.878 232.338 240.334 234.809 239.978L233.447 232.407ZM219.237 239.591C212.74 244.92 209.205 251.753 208.695 259.867L217.005 260.382C217.391 254.242 219.971 249.3 224.807 245.333L219.237 239.591ZM208.695 259.87C208.201 267.842 210.979 274.968 216.874 281.045L223.059 275.971C218.608 271.383 216.641 266.253 217.005 260.378L208.695 259.87ZM216.874 281.045C222.988 287.348 230.2 291.332 238.476 292.71L239.883 285.171C233.699 284.141 228.102 281.17 223.059 275.971L216.874 281.045ZM238.601 292.729C247.183 293.914 254.968 291.566 261.701 286.043L256.131 280.301C251.048 284.471 245.676 285.968 239.759 285.152L238.601 292.729ZM261.701 286.043C266.506 282.102 270.055 278.122 271.926 274.074L264.261 271.018C263.058 273.622 260.489 276.726 256.131 280.301L261.701 286.043ZM271.898 274.132C273.724 270.359 275.078 265.999 276.006 261.099L267.806 259.713C266.966 264.15 265.778 267.883 264.289 270.959L271.898 274.132ZM276.013 261.062C276.689 257.271 277.547 254.268 278.538 251.983L270.803 249.085C269.52 252.044 268.535 255.623 267.799 259.75L276.013 261.062ZM278.503 252.062C279.461 249.987 281.228 247.776 284.044 245.466L278.474 239.724C275.02 242.557 272.395 245.638 270.838 249.006L278.503 252.062ZM284.044 245.466C288.233 242.03 292.248 240.739 296.207 240.992L296.706 233.348C290.047 232.922 283.93 235.248 278.474 239.724L284.044 245.466ZM296.292 240.997C300.224 241.174 303.794 242.758 307.109 246.176L313.294 241.102C308.697 236.364 303.104 233.635 296.621 233.343L296.292 240.997ZM307.109 246.176C310.972 250.158 313.134 255.488 313.28 262.521L321.602 262.448C321.427 253.973 318.763 246.739 313.294 241.102L307.109 246.176ZM313.282 262.578C313.535 269.483 311.652 276.976 307.396 285.109L314.901 288.487C319.598 279.513 321.909 270.796 321.601 262.391L313.282 262.578ZM307.396 285.109C303.186 293.153 296.902 300.651 288.446 307.587L294.016 313.329C303.164 305.826 310.158 297.55 314.901 288.487L307.396 285.109Z" fill="#8F4545" mask="url(#path-24-outside-1_1_182)"/>
<path d="M177.5 216C191 195 225.167 183.298 231 192C240.217 201.124 202.476 208.748 194 226.5C185.524 244.252 182.5 268.5 164.5 268.5C153.893 268.5 165.04 230.704 177.5 216Z" fill="#FFF0A4" stroke="#FFF0A4"/>
<path d="M177.5 216C191 195 225.167 183.298 231 192C240.217 201.124 202.476 208.748 194 226.5C185.524 244.252 182.5 268.5 164.5 268.5C153.893 268.5 165.04 230.704 177.5 216Z" fill="#FFF0A4" stroke="#FFF0A4"/>
<path d="M272.668 293.983C260.474 309.386 241.27 306.736 240.819 298.564C238.851 289.511 258.672 296.123 267.566 282.643C276.46 269.163 279.834 245.62 288.505 248.437C293.614 250.097 282.655 283.669 272.668 293.983Z" fill="#FFF0A4" stroke="#FFF0A4"/>
<path d="M354.609 208.678C368.913 199.006 384.226 203.158 382.83 210.471C382.537 218.841 367.038 209.354 356.497 219.648C345.956 229.941 341.064 234.944 334.267 230.86C330.262 228.454 343.824 215.97 354.609 208.678Z" fill="#FFF0A4" stroke="#FFF0A4"/>
<path d="M472.5 122.738C489.501 112.39 517.739 114.316 516.484 122.738C516.656 132.461 490.327 122.19 478 133.5C465.673 144.81 466.605 148.566 457.976 143.38C452.89 140.325 459.682 130.539 472.5 122.738Z" fill="#FFF0A4" stroke="#FFF0A4"/>
<path d="M616 52C629.245 49.2376 642.744 59.28 639.441 64.1013C636.59 69.9988 626.76 56.7014 616 61C605.24 65.2986 601.957 69.4744 598.404 64.5837C596.31 61.7017 606.014 54.0828 616 52Z" fill="#FFF0A4" stroke="#FFF0A4"/>
<path d="M661.568 110.026C680.397 108.7 702.664 128.268 698.956 135.322C696.173 144.235 677.696 118.187 661.568 121.687C645.441 125.187 628.224 121.687 639.724 114.858C645.239 111.583 647.372 111.025 661.568 110.026Z" fill="#FFF0A4" stroke="#FFF0A4"/>
<path d="M510.527 193.192C507.24 207.553 477.669 204.47 484.669 198.47C492.169 196.47 495.141 200.486 502.169 196.47C509.197 192.454 497.411 179.97 504.669 179.97C508.669 179.97 510.527 186.47 510.527 193.192Z" fill="#FFF0A4" stroke="#FFF0A4"/>
<path d="M904.788 184.834C919.193 181.744 928.896 209.847 920.5 206.039C915.518 200.087 917.61 197.672 911 193C904.39 188.328 887.648 201.708 888.5 194.5C889.18 188.747 902.032 184.68 904.788 184.834Z" fill="#FFF0A4" stroke="#FFF0A4"/>
<path d="M947.317 219.717C960.827 215.521 966.775 238.986 959.486 236.546C955.547 231.881 957.714 229.56 952.151 226.181C946.588 222.801 929.865 236.204 931.397 229.837C932.621 224.754 944.81 219.87 947.317 219.717Z" fill="#FFF0A4" stroke="#FFF0A4"/>
<path d="M992.222 243.306C1003.63 234.94 1016.89 255.191 1009.21 255.256C1003.96 252.128 1005.26 249.228 998.897 247.844C992.537 246.459 981.088 264.577 980.464 258.057C979.966 252.854 989.901 244.267 992.222 243.306Z" fill="#FFF0A4" stroke="#FFF0A4"/>
<path d="M957.734 300.753C944.154 304.713 939.56 286.759 943.53 289.88C947.5 293 949.5 295 953.5 295C957.5 295 973.483 284.805 971.48 290.155C969.647 295.051 960.244 300.643 957.734 300.753Z" fill="#FFF0A4" stroke="#FFF0A4"/>
<path d="M904.254 268.514C890.673 272.473 886.08 254.52 890.05 257.64C894.02 260.76 896.02 262.76 900.02 262.76C904.02 262.76 920.003 252.565 918 257.915C916.166 262.811 906.764 268.404 904.254 268.514Z" fill="#FFF0A4" stroke="#FFF0A4"/>
<path d="M805.5 198C791.919 201.96 783 188.5 785.5 188.5C788 188.5 790.5 192 799.5 193.5C808.5 195 816.5 187 816.5 188.5C816.5 193.728 808.009 197.89 805.5 198Z" fill="#FFF0A4" stroke="#FFF0A4"/>
<path d="M783.297 232.606C771.5 229 763.63 216.184 768.344 216.715C773.057 217.247 771.797 221.078 779.208 226.026C786.619 230.973 793.887 228.666 794.515 231.624C795.6 236.727 791 233.448 783.297 232.606Z" fill="#FFF0A4" stroke="#FFF0A4"/>
<path d="M391.289 238.753C382.435 249.786 367.409 243.876 369.457 242.442C371.505 241.008 375.561 242.441 383.793 238.508C392.026 234.575 393.99 223.433 394.851 224.662C397.849 228.944 393.282 237.223 391.289 238.753Z" fill="#FFF0A4" stroke="#FFF0A4"/>
<path d="M334.983 162.694C351.487 151.627 383.728 152.948 386.771 160.745C392.645 169.791 358.251 164.581 346.839 174.761C335.426 184.941 327.236 201.25 311.669 196.192C302.495 193.211 320.826 169.598 334.983 162.694Z" fill="#FFF0A4" stroke="#FFF0A4"/>
<path d="M777.714 139.401C793.225 134.452 822.75 141.878 825.277 148.297C830.359 156.212 787.852 146.939 777.041 152.245C766.23 157.552 769.275 160.445 755.199 159.707C745.963 159.223 764.497 141.718 777.714 139.401Z" fill="#FFF0A4" stroke="#FFF0A4"/>
</svg>
