<svg width="516" height="433" viewBox="0 0 516 433" fill="none" xmlns="http://www.w3.org/2000/svg">
<g id="Group 2">
<g id="Vector 33 (Stroke)">
<path fill-rule="evenodd" clip-rule="evenodd" d="M242.065 4.74561C224.719 8.76031 206.986 19.046 195.956 43.7041C181.739 75.4904 184.041 98.4106 190.273 115.213C193.393 123.627 197.506 130.523 201.059 136.257C201.386 136.784 201.709 137.302 202.025 137.811C203.427 140.062 204.716 142.133 205.777 144.033C206.598 145.503 207.292 146.888 207.8 148.192C207.804 148.198 207.807 148.203 207.81 148.208C208.312 148.993 208.586 149.788 208.497 150.557L207.512 150.609C207.372 149.987 207.168 149.335 206.906 148.652C206.47 147.998 205.805 147.279 204.917 146.504C203.054 144.882 200.279 143.081 196.798 141.21C189.842 137.471 180.148 133.497 169.513 130.15C158.88 126.804 147.325 124.09 136.652 122.863C125.966 121.634 116.221 121.902 109.171 124.47C93.4092 130.21 83.362 134.686 76.3765 140.501C69.4183 146.294 65.4621 153.448 61.9774 164.649C56.0132 183.819 60.5937 200.613 70.2632 213.581C79.9436 226.564 94.7265 235.71 109.128 239.517L108.934 240.496C98.9606 239.166 80.9078 237.836 62.2836 239.56C43.6391 241.287 24.5246 246.067 12.3317 256.874C1.51404 266.463 0.305094 278.706 3.11129 290.446C5.92065 302.2 12.7453 313.382 17.8999 320.7C27.7527 332.994 46.7476 336.706 70.5622 333.365C90.3714 330.585 113.399 322.937 136.995 311.444C140.975 308.562 145.74 306.043 151.331 304.03L151.74 304.939C146.99 307.542 142.239 310 137.51 312.305C130.737 317.229 126.331 323.205 124.032 329.48C120.403 339.384 121.999 350.094 127.912 358.717C131.091 363.353 136.296 367.282 142.374 370.02C148.448 372.757 155.359 374.289 161.915 374.16C168.472 374.031 174.639 372.242 179.273 368.379C183.896 364.526 187.046 358.564 187.501 349.974L188.48 349.859C197.976 382.12 215.483 403.563 236.375 416.268C257.274 428.977 281.596 432.964 304.746 430.247C351.105 424.808 392.516 392.56 392.5 350L392.5 348.995L393.302 349.601C403.381 357.222 415.252 357.487 426.569 353.081C437.898 348.67 448.636 339.586 456.341 328.588C464.046 317.589 468.679 304.731 467.876 292.799C467.076 280.899 460.868 269.864 446.767 262.443L447.154 261.524C474.226 270.283 492.393 264.781 502.865 254.678C513.372 244.542 516.207 229.722 512.53 219.672L512.511 219.619L512.504 219.564C511.031 208.146 504.329 201.155 494.86 197.164C485.362 193.16 473.091 192.188 460.59 192.874C448.099 193.56 435.428 195.897 425.161 198.469C414.874 201.047 407.057 203.846 404.246 205.435C403.877 205.644 403.555 205.807 403.28 205.922C403.012 206.034 402.756 206.116 402.528 206.133C402.304 206.15 401.975 206.109 401.775 205.811C401.603 205.553 401.638 205.253 401.682 205.058C401.777 204.642 402.067 204.086 402.459 203.448C402.863 202.793 403.412 201.993 404.077 201.07C405.252 199.44 406.806 197.401 408.593 195.058C408.829 194.749 409.069 194.434 409.312 194.114C411.403 191.37 413.772 188.246 416.216 184.88C421.106 178.146 426.286 170.456 430.128 162.922C433.979 155.371 436.446 148.052 436.001 142.037C435.996 141.969 435.991 141.898 435.986 141.823C435.813 139.428 435.374 133.328 430.665 126.407C425.81 119.27 416.374 111.203 397.852 105.478C385.392 101.626 371.45 106.803 359.736 115.018C351.84 120.555 345.026 127.424 340.433 133.709C339.99 134.516 339.565 135.271 339.163 135.973C338.091 137.848 337.184 139.34 336.532 140.402C336.432 140.566 336.338 140.719 336.251 140.861C336.053 141.183 335.888 141.45 335.759 141.665C335.665 141.82 335.593 141.942 335.542 142.034C335.503 142.104 335.484 142.142 335.476 142.158C335.471 142.169 335.467 142.18 335.462 142.191L334.528 141.834C334.537 141.811 334.547 141.786 334.558 141.761C335.638 139.162 337.358 136.23 339.587 133.172C341.494 129.699 343.746 125.277 345.973 120.092C351.486 107.263 356.845 89.7883 356.5 70.5089C356.11 48.7245 343.238 32.2283 328.033 21.0302C312.818 9.82415 295.356 3.99312 285.974 3.49931C284.423 3.41771 282.677 3.28938 280.765 3.14887C270.902 2.42399 256.628 1.37496 242.065 4.74561Z" fill="white"/>
<path d="M17.1001 321.301L17.1097 321.313M195.956 43.7041C206.986 19.046 224.719 8.76031 242.065 4.74561C256.628 1.37496 270.902 2.42399 280.765 3.14887C282.677 3.28938 284.423 3.41771 285.974 3.49931C295.356 3.99312 312.818 9.82415 328.033 21.0302C343.238 32.2283 356.11 48.7245 356.5 70.5089C356.845 89.7883 351.486 107.263 345.973 120.092C343.746 125.277 341.494 129.699 339.587 133.172C337.358 136.23 335.638 139.162 334.558 141.761C334.547 141.786 334.537 141.811 334.528 141.834L335.462 142.191C335.467 142.18 335.471 142.169 335.476 142.158C335.484 142.142 335.503 142.104 335.542 142.034C335.593 141.942 335.665 141.82 335.759 141.665C335.888 141.45 336.053 141.183 336.251 140.861C336.338 140.719 336.432 140.566 336.532 140.402C337.184 139.34 338.091 137.848 339.163 135.973C339.565 135.271 339.99 134.516 340.433 133.709C345.026 127.424 351.84 120.555 359.736 115.018C371.45 106.803 385.392 101.626 397.852 105.478C416.374 111.203 425.81 119.27 430.665 126.407C435.374 133.328 435.813 139.428 435.986 141.823C435.991 141.898 435.996 141.969 436.001 142.037C436.446 148.052 433.979 155.371 430.128 162.922C426.286 170.456 421.106 178.146 416.216 184.88C413.772 188.246 411.403 191.37 409.312 194.114C409.069 194.434 408.829 194.749 408.593 195.058C406.806 197.401 405.252 199.44 404.077 201.07C403.412 201.993 402.863 202.793 402.459 203.448C402.067 204.086 401.777 204.642 401.682 205.058C401.638 205.253 401.603 205.553 401.775 205.811C401.975 206.109 402.304 206.15 402.528 206.133C402.756 206.116 403.012 206.034 403.28 205.922C403.555 205.807 403.877 205.644 404.246 205.435C407.057 203.846 414.874 201.047 425.161 198.469C435.428 195.897 448.099 193.56 460.59 192.874C473.091 192.188 485.362 193.16 494.86 197.164C504.329 201.155 511.031 208.146 512.504 219.564L512.511 219.619L512.53 219.672C516.207 229.722 513.372 244.542 502.865 254.678C492.393 264.781 474.226 270.283 447.154 261.524L446.767 262.443C460.868 269.864 467.076 280.899 467.876 292.799C468.679 304.731 464.046 317.589 456.341 328.588C448.636 339.586 437.898 348.67 426.569 353.081C415.252 357.487 403.381 357.222 393.302 349.601L392.5 348.995L392.5 350C392.516 392.56 351.105 424.808 304.746 430.247C281.596 432.964 257.274 428.977 236.375 416.268C215.483 403.563 197.976 382.12 188.48 349.859L187.501 349.974C187.046 358.564 183.896 364.526 179.273 368.379C174.639 372.242 168.472 374.031 161.915 374.16C155.359 374.289 148.448 372.757 142.374 370.02C136.296 367.282 131.091 363.353 127.912 358.717C121.999 350.094 120.403 339.384 124.032 329.48C126.331 323.205 130.737 317.229 137.51 312.305C142.239 310 146.99 307.542 151.74 304.939L151.331 304.03C145.74 306.043 140.975 308.562 136.995 311.444C113.399 322.937 90.3714 330.585 70.5622 333.365C46.7476 336.706 27.7527 332.994 17.8999 320.7C12.7453 313.382 5.92065 302.2 3.11129 290.446C0.305094 278.706 1.51404 266.463 12.3317 256.874C24.5246 246.067 43.6391 241.287 62.2836 239.56C80.9078 237.836 98.9606 239.166 108.934 240.496L109.128 239.517C94.7265 235.71 79.9436 226.564 70.2632 213.581C60.5937 200.613 56.0132 183.819 61.9774 164.649C65.4621 153.448 69.4183 146.294 76.3765 140.501C83.362 134.686 93.4092 130.21 109.171 124.47C116.221 121.902 125.966 121.634 136.652 122.863C147.325 124.09 158.88 126.804 169.513 130.15C180.148 133.497 189.842 137.471 196.798 141.21C200.279 143.081 203.054 144.882 204.917 146.504C205.805 147.279 206.47 147.998 206.906 148.652C207.168 149.335 207.372 149.987 207.512 150.609L208.497 150.557C208.586 149.788 208.312 148.993 207.81 148.208C207.807 148.203 207.804 148.198 207.8 148.192C207.292 146.888 206.598 145.503 205.777 144.033C204.716 142.133 203.427 140.062 202.025 137.811C201.709 137.302 201.386 136.784 201.059 136.257C197.506 130.523 193.393 123.627 190.273 115.213C184.041 98.4106 181.739 75.4904 195.956 43.7041Z" stroke="black" stroke-width="3"/>
</g>
<path id="Vector 34" d="M20.5 290.5C21.3333 297.167 26.2 307.5 49 319.5C72.4912 327.361 97.2576 321.834 166.5 290.5C155.5 303.5 145.095 325.5 142.5 331.5C136.1 346.3 142.5 361 166.5 355C186.5 331.5 175.4 345.5 193 319.5C196.2 365.1 234 396.5 252.5 406.5C272.5 414.167 319 423.5 345 399.5C371 375.5 373.833 344.167 372 331.5C383.333 334.333 410.3 338.3 427.5 331.5C449 323 452 296.5 450.5 284.5C449.3 274.9 439.333 260.5 434.5 254.5H478.5C491.7 254.5 493.5 242 493.5 235.5C493.5 232.5 493.917 227.5 478.5 232.5C441.5 244.5 394.333 247 387 248C391.795 258.934 391.292 265.066 387 276C381 282.833 364.2 294.1 345 284.5C335.4 317.3 336.5 334 289 344.5C251.896 352.702 212 325.7 212 296.5C192.4 306.1 185.04 308.54 179 302.5C173 296.5 171 292.4 171 276C133 293.5 63.5 304.5 43 280.5C35.2062 271.376 20.5 276 20.5 290.5Z" fill="#E8E7E7" stroke="#E8E7E7"/>
</g>
</svg>
