<svg width="550" height="386" viewBox="0 0 550 386" fill="none" xmlns="http://www.w3.org/2000/svg">
<g id="Group 3">
<path id="Vector 33 (Stroke)" d="M333.928 3.48759C311.536 -0.0747824 283.18 1.48938 251.307 25.3938C245.003 30.1216 240.213 37.3406 236.59 45.9441C232.968 54.5447 230.526 64.4962 228.901 74.6479C225.65 94.9517 225.674 115.99 226.007 128.48C218.499 103.333 211.036 94.3515 188 93.6298C170.5 93.6298 136.813 104.704 142.066 149C124.519 116.6 103.044 118.768 94.5 123.901C85.5 128.511 71 145.484 85 176.5C61.4 170.157 49.1667 176.464 46 180.41C40.8333 187.44 37.2 205.1 64 219.5C12.0001 217.5 1.50001 235.382 2.50001 244.5C3.50001 253.618 8.50001 257.495 26 264C40 269.204 59.5 257.521 67.5 251.029C65.6667 253.184 62.4 258.796 64 264C66 270.505 68.5 282.5 88 287C103.6 290.6 120.132 275.946 126.447 268.168C119.004 282.001 119.059 297.664 124.919 306.211C127.831 310.457 134.128 314.433 142.066 317.449C149.982 320.456 159.444 322.476 168.587 322.87C177.738 323.264 186.518 322.026 193.106 318.567C199.664 315.124 204.057 309.48 204.508 300.967L205.487 300.853C214.984 333.117 232.368 354.906 253.079 368.127C273.795 381.351 297.868 386.022 320.767 383.99C366.62 379.922 407.523 349.048 407.507 306.494L407.507 305.442L408.323 306.106C433.314 326.447 459.901 316.536 471.087 300.547C476.682 292.549 478.381 283.102 474.214 275.161C470.044 267.215 459.91 260.602 441.45 258.491L441.539 257.495C477.035 259.745 505.436 258.359 524.011 251.029C533.286 247.368 540.071 242.241 544.083 235.382C548.091 228.532 549.373 219.887 547.52 209.108C541.102 187.689 520.524 179.862 499.906 178.242C489.609 177.434 479.352 178.18 470.954 179.534C462.535 180.892 456.047 182.85 453.253 184.429C451.826 185.236 450.859 185.734 450.315 185.918C450.18 185.963 450.032 186.003 449.893 186.01C449.787 186.015 449.468 186.009 449.3 185.707C449.225 185.571 449.221 185.436 449.232 185.344C449.242 185.253 449.27 185.174 449.296 185.114C449.347 184.994 449.426 184.872 449.509 184.757C449.84 184.301 450.531 183.58 451.46 182.655C452.101 182.017 452.873 181.266 453.747 180.415L453.752 180.41C454.158 180.015 454.587 179.598 455.034 179.161C460.699 173.63 469.545 164.782 476.597 154.707C479.166 151.037 481.521 144.898 482.63 137.73C483.738 130.569 483.596 122.43 481.217 114.767C478.84 107.111 474.231 99.9308 466.392 94.6587C458.549 89.384 447.435 85.9938 432.007 85.9938C420.176 85.9938 412.792 89.1701 407.375 93.6298C403.157 97.1025 400.124 101.35 397.097 105.588L397.096 105.59C396.209 106.832 395.323 108.073 394.407 109.294L393.507 110.494V72.9938C393.507 61.6518 386.628 45.5395 375.685 31.598C364.748 17.6625 349.849 6.02036 333.928 3.48759Z" fill="white" stroke="black" stroke-width="3"/>
<g id="Vector 35">
<path d="M13.9999 248.5C12.2261 242.154 13.9999 241 20.5 242C52.108 240.882 68.2022 233.96 99.4999 226C98.1666 230.167 97.4999 241.1 105.5 251.5C113.5 261.9 133.5 247.167 142.5 238.5C143.333 251.5 149.8 278.3 169 281.5C193 285.5 213 270 218 261.5C231.5 274.5 274.5 292.5 311.5 295.5C341.1 297.9 368.167 270.5 378 256.5C382 262.333 395.5 266.429 404 264C407.5 263 416.5 258 408 240.5C476 242 527.5 226.5 533.5 217.5C535 216 539.151 219.954 540.5 224C543 231.5 526.515 242.137 521 244.5C495.202 255.556 425.26 252.181 417.548 251.582C422.291 252.74 444.29 265.902 450.5 274.5C454.472 280 454.5 294.465 446 300C437.5 305.535 409.833 296.333 399 287C392 323 369.029 377.542 294 365.5C253.5 359 207 287 204.5 287C185 317.5 159 316.976 147.5 311.5C137 306.5 134 297.5 134 256.5C116 271 88.7312 282.309 79.4999 274C74.5 269.5 74.9999 263 79.4999 242C39.9999 257 39.7987 254.407 31.4999 256.5C23.5303 258.51 15.5936 252.955 13.9999 248.5Z" fill="#E8E7E7"/>
<path d="M20.5 242C13.9999 241 12.2261 242.154 13.9999 248.5C15.5936 252.955 23.5303 258.51 31.4999 256.5C39.7987 254.407 39.9999 257 79.4999 242C74.9999 263 74.5 269.5 79.4999 274C88.7312 282.309 116 271 134 256.5C134 297.5 137 306.5 147.5 311.5C159 316.976 185 317.5 204.5 287C207 287 253.5 359 294 365.5C369.029 377.542 392 323 399 287C409.833 296.333 437.5 305.535 446 300C454.5 294.465 454.472 280 450.5 274.5C444 265.5 420.2 251.5 417 251.5C413 251.5 493 256.5 521 244.5C526.515 242.137 543 231.5 540.5 224C539.151 219.954 535 216 533.5 217.5C527.5 226.5 476 242 408 240.5C416.5 258 407.5 263 404 264C395.5 266.429 382 262.333 378 256.5C368.167 270.5 341.1 297.9 311.5 295.5C274.5 292.5 231.5 274.5 218 261.5C213 270 193 285.5 169 281.5C149.8 278.3 143.333 251.5 142.5 238.5C133.5 247.167 113.5 261.9 105.5 251.5C97.4999 241.1 98.1666 230.167 99.4999 226C68.2022 233.96 52.108 240.882 20.5 242Z" stroke="#E8E7E7"/>
</g>
</g>
</svg>
