<svg width="1069" height="217" viewBox="0 0 1069 217" fill="none" xmlns="http://www.w3.org/2000/svg">
<rect x="1.5" y="1.5" width="1062" height="208" rx="62.5" fill="#DF7D21" stroke="#80380E" stroke-width="3"/>
<rect x="6.5" y="16.5" width="1061" height="199" rx="62.5" fill="#FFA459" stroke="#80380E" stroke-width="3"/>
<path d="M948.446 159.4C923.552 159.4 907.48 152.925 900.231 139.975C893.119 126.908 889.562 113.667 889.562 100.25C889.562 90.3333 890.588 80.5333 892.64 70.85C894.828 61.1667 898.316 53.0583 903.103 46.525C907.891 39.9917 914.114 36.725 921.774 36.725C926.561 36.725 930.664 38.0083 934.084 40.575C937.503 43.1417 939.213 46.875 939.213 51.775C939.213 54.225 938.94 56.675 938.393 59.125C937.845 61.575 937.025 64.6083 935.931 68.225C935.657 68.925 935.11 70.675 934.289 73.475C933.605 76.275 933.127 78.9 932.853 81.35C938.871 78.55 945.71 77.15 953.37 77.15C961.03 77.15 968.142 78.6083 974.707 81.525C981.41 84.4417 986.812 88.9333 990.916 95C995.156 100.95 997.276 108.242 997.276 116.875C997.276 124.225 995.293 131.167 991.326 137.7C987.36 144.117 981.615 149.367 974.092 153.45C966.706 157.417 958.157 159.4 948.446 159.4ZM947.215 131.75C950.908 131.75 954.122 130.583 956.858 128.25C959.73 125.8 961.166 122.942 961.166 119.675C961.166 116.408 959.73 113.55 956.858 111.1C954.122 108.65 950.908 107.425 947.215 107.425C943.522 107.425 940.307 108.65 937.572 111.1C934.836 113.55 933.469 116.408 933.469 119.675C933.469 122.942 934.836 125.8 937.572 128.25C940.307 130.583 943.522 131.75 947.215 131.75Z" fill="#AA9BCB"/>
<path d="M831.859 159.575C822.01 159.692 813.188 157.942 805.392 154.325C797.732 150.708 791.714 145.75 787.337 139.45C783.097 133.033 780.84 125.917 780.566 118.1C780.429 110.283 782.55 103.283 786.927 97.1C791.303 90.9167 797.39 86.0167 805.187 82.4C813.12 78.7833 822.01 76.975 831.859 76.975C841.433 76.975 850.05 78.725 857.71 82.225C865.506 85.725 871.661 90.625 876.175 96.925C880.689 103.225 883.082 110.283 883.356 118.1C883.493 125.683 881.373 132.625 876.996 138.925C872.619 145.108 866.464 150.067 858.53 153.8C850.734 157.533 841.843 159.458 831.859 159.575ZM832.474 134.025C836.167 134.025 839.381 132.8 842.117 130.35C844.853 127.9 846.22 125.042 846.22 121.775C846.22 118.508 844.853 115.708 842.117 113.375C839.381 110.925 836.167 109.7 832.474 109.7C828.781 109.7 825.567 110.925 822.831 113.375C820.095 115.708 818.728 118.508 818.728 121.775C818.728 125.042 820.095 127.9 822.831 130.35C825.567 132.8 828.781 134.025 832.474 134.025Z" fill="#AA9BCB"/>
<path d="M748.324 74.525C741.622 74.525 735.946 72.4833 731.295 68.4C726.645 64.2 724.32 59.125 724.32 53.175C724.32 47.3417 726.645 42.3833 731.295 38.3C735.946 34.1 741.622 32 748.324 32C754.89 32 760.498 34.1 765.148 38.3C769.935 42.3833 772.329 47.3417 772.329 53.175C772.329 59.125 769.935 64.2 765.148 68.4C760.498 72.4833 754.89 74.525 748.324 74.525ZM727.397 189.675C719.874 189.675 713.924 188.45 709.547 186C705.307 183.667 703.187 180.225 703.187 175.675C703.187 172.525 704.145 169.842 706.06 167.625C707.838 165.525 709.958 163.95 712.42 162.9C714.882 161.967 717.07 161.5 718.985 161.5C722.541 161.5 725.14 160.8 726.782 159.4C728.423 157.883 729.449 155.783 729.859 153.1C730.269 150.3 730.475 146.042 730.475 140.325L730.269 119.325C730.269 111.625 730.68 105.558 731.5 101.125C732.458 96.6917 734.236 93.25 736.835 90.8C739.434 88.35 743.4 87.125 748.735 87.125C755.163 87.125 759.814 88.9333 762.686 92.55C765.559 96.05 767.337 100.892 768.021 107.075C768.704 113.142 769.046 122.3 769.046 134.55C769.046 144.817 768.636 152.692 767.815 158.175C766.995 163.658 765.08 168.675 762.071 173.225C758.788 178.358 754.069 182.383 747.914 185.3C741.896 188.217 735.057 189.675 727.397 189.675Z" fill="#AA9BCB"/>
<path d="M586.281 159.4C575.612 159.4 566.858 157.358 560.019 153.275C553.18 149.075 549.761 143.067 549.761 135.25C549.761 128.483 553.249 123.117 560.224 119.15C567.2 115.183 575.886 113.2 586.281 113.2C590.111 113.2 593.667 113.492 596.95 114.075C600.369 114.542 602.694 115.125 603.925 115.825C603.925 112.908 602.489 110.517 599.617 108.65C596.745 106.667 592.368 105.675 586.486 105.675C583.887 105.675 581.767 105.85 580.126 106.2C578.484 106.55 576.706 107.075 574.791 107.775C572.877 108.475 571.098 109 569.457 109.35C567.952 109.7 565.901 109.875 563.302 109.875C558.925 109.875 555.506 108.942 553.044 107.075C550.582 105.092 549.35 102.117 549.35 98.15C549.35 93.6 551.265 89.75 555.095 86.6C559.062 83.45 563.986 81.1167 569.867 79.6C575.749 77.9667 581.63 77.15 587.512 77.15C599.138 77.15 608.85 79.0167 616.646 82.75C624.579 86.3667 630.392 91.2083 634.085 97.275C637.915 103.342 639.83 110.05 639.83 117.4C639.83 121.367 639.42 125.042 638.599 128.425C637.915 131.808 636.958 134.433 635.727 136.3C637.642 137.7 639.078 139.333 640.035 141.2C641.129 143.067 641.677 144.992 641.677 146.975C641.677 150.358 640.309 153.275 637.573 155.725C634.974 158.175 631.486 159.4 627.11 159.4C623.827 159.4 621.16 158.992 619.108 158.175C617.056 157.358 614.868 156.075 612.543 154.325C609.123 156.075 605.362 157.358 601.258 158.175C597.292 158.992 592.299 159.4 586.281 159.4ZM590.384 141.725C593.257 141.725 595.514 141.2 597.155 140.15C598.933 139.1 599.822 137.817 599.822 136.3C599.822 134.783 598.933 133.5 597.155 132.45C595.514 131.4 593.257 130.875 590.384 130.875C587.512 130.875 585.187 131.4 583.409 132.45C581.767 133.5 580.947 134.783 580.947 136.3C580.947 137.817 581.767 139.1 583.409 140.15C585.187 141.2 587.512 141.725 590.384 141.725Z" fill="#AA9BCB"/>
<path d="M429.657 159.4C417.62 159.4 408.046 157.708 400.933 154.325C393.821 150.942 390.264 146.567 390.264 141.2C390.264 137.7 391.632 135.017 394.368 133.15C397.24 131.167 400.865 130.175 405.242 130.175C407.704 130.175 409.687 130.467 411.192 131.05C412.696 131.633 414.201 132.45 415.705 133.5C416.799 134.317 417.689 134.9 418.372 135.25C419.193 135.6 420.151 135.775 421.245 135.775C424.117 135.775 425.553 134.9 425.553 133.15C425.553 131.517 424.801 130.292 423.296 129.475C421.792 128.542 419.193 127.433 415.5 126.15C412.081 124.983 409.824 124.167 408.729 123.7C402.438 121.133 397.787 118.1 394.778 114.6C391.769 111.1 390.264 107.367 390.264 103.4C390.264 98.9667 392.111 94.7667 395.804 90.8C399.634 86.7167 404.968 83.45 411.807 81C418.783 78.4333 426.784 77.15 435.812 77.15C443.608 77.15 450.652 78.0833 456.944 79.95C463.373 81.8167 468.434 84.3833 472.127 87.65C475.82 90.8 477.666 94.3 477.666 98.15C477.666 101.767 476.299 104.508 473.563 106.375C470.964 108.242 467.408 109.175 462.894 109.175C461.116 109.175 459.68 109.058 458.586 108.825C457.628 108.475 456.329 107.95 454.687 107.25C453.73 106.783 452.704 106.375 451.61 106.025C450.652 105.675 449.558 105.5 448.327 105.5C447.233 105.5 446.275 105.85 445.455 106.55C444.634 107.133 444.224 107.892 444.224 108.825C444.224 110.575 445.728 111.858 448.737 112.675C456.671 114.892 463.031 117.692 467.818 121.075C472.742 124.458 475.204 129.125 475.204 135.075C475.204 142.658 471.032 148.608 462.689 152.925C454.482 157.242 443.471 159.4 429.657 159.4Z" fill="#AA9BCB"/>
<path d="M390.207 83.625C390.207 89.6917 386.856 93.8333 380.153 96.05C373.451 98.15 364.287 99.2583 352.661 99.375C352.524 102.292 352.456 107.017 352.456 113.55C352.456 120.2 353.003 124.925 354.097 127.725C354.781 129.708 355.807 130.992 357.174 131.575C358.679 132.158 360.868 132.567 363.74 132.8C364.697 132.917 365.723 133.092 366.817 133.325C368.048 133.442 369.416 133.617 370.921 133.85C374.067 134.433 376.529 135.892 378.307 138.225C380.085 140.442 380.974 143.3 380.974 146.8C380.974 150.767 378.58 153.858 373.793 156.075C369.006 158.292 362.44 159.4 354.097 159.4C346.437 159.4 339.12 157.533 332.144 153.8C325.168 149.95 320.381 144.817 317.782 138.4C315.046 131.517 313.679 118.508 313.679 99.375C304.104 99.1417 296.376 98.0917 290.495 96.225C284.75 94.2417 281.877 90.7417 281.877 85.725C281.877 79.425 284.613 75.225 290.084 73.125C295.555 70.9083 303.42 69.7417 313.679 69.625C314.089 60.2917 315.799 52.5333 318.808 46.35C321.817 40.05 327.22 36.9 335.016 36.9C342.949 36.9 348.079 39.8167 350.404 45.65C352.866 51.4833 353.96 59.475 353.687 69.625C366.134 69.5083 375.298 70.325 381.179 72.075C387.198 73.825 390.207 77.675 390.207 83.625Z" fill="#AA9BCB"/>
<path d="M241.001 159.4C230.879 159.4 221.92 157.708 214.124 154.325C206.327 150.942 200.24 146.217 195.864 140.15C191.623 133.967 189.503 127.025 189.503 119.325C189.503 111.742 191.623 104.742 195.864 98.325C200.24 91.9083 206.259 86.775 213.918 82.925C221.578 79.075 230.264 77.15 239.975 77.15C248.729 77.15 256.457 78.6667 263.159 81.7C269.861 84.7333 274.99 88.7583 278.547 93.775C282.103 98.675 283.881 103.808 283.881 109.175C283.881 117.925 279.983 124.342 272.186 128.425C264.527 132.392 255.363 134.375 244.694 134.375C237.581 134.375 231.563 133.617 226.639 132.1C230.742 137.817 237.513 140.675 246.951 140.675C250.78 140.675 254.884 140.267 259.261 139.45C260.902 139.1 262.475 138.925 263.98 138.925C266.989 138.925 269.382 139.567 271.161 140.85C273.075 142.133 274.033 143.883 274.033 146.1C274.033 149.717 271.434 152.867 266.237 155.55C261.039 158.117 252.627 159.4 241.001 159.4ZM227.254 110.75C228.485 112.383 230.127 113.608 232.178 114.425C234.367 115.125 236.761 115.475 239.359 115.475C242.369 115.475 244.967 114.892 247.156 113.725C249.481 112.558 250.644 111.042 250.644 109.175C250.644 107.075 249.618 105.267 247.566 103.75C245.651 102.233 242.847 101.475 239.154 101.475C235.461 101.475 232.52 102.467 230.332 104.45C228.28 106.317 227.254 108.417 227.254 110.75Z" fill="#AA9BCB"/>
<path d="M115.416 189.325C107.483 189.325 100.986 188.042 95.9254 185.475C90.8645 183.025 88.3341 179.642 88.3341 175.325C88.3341 171.475 90.0439 168.325 93.4633 165.875C97.0196 163.542 101.465 162.375 106.799 162.375C107.757 162.375 109.33 162.492 111.518 162.725C114.254 163.075 116.784 163.25 119.109 163.25C124.991 163.25 130.052 162.375 134.292 160.625C138.669 158.992 141.336 156.775 142.294 153.975C140.105 155.025 137.028 155.9 133.061 156.6C129.094 157.3 124.854 157.65 120.34 157.65C108.714 157.65 99.1397 155.725 91.6168 151.875C84.2307 148.025 78.8963 143.3 75.6136 137.7C72.3309 131.983 70.6896 126.383 70.6896 120.9C70.6896 111.8 73.0148 103.925 77.6653 97.275C82.4526 90.625 88.6077 85.55 96.1305 82.05C103.653 78.55 111.518 76.8 119.725 76.8C122.461 76.8 125.606 76.975 129.163 77.325C132.856 77.675 135.933 78.0833 138.395 78.55C139.49 75.4 141.336 72.95 143.935 71.2C146.67 69.45 150.705 68.575 156.04 68.575C164.931 68.575 171.359 73.3 175.326 82.75C179.429 92.2 181.481 103.867 181.481 117.75C181.481 124.283 181.07 130.467 180.25 136.3C178.198 152.75 171.428 165.7 159.938 175.15C148.449 184.6 133.608 189.325 115.416 189.325ZM123.008 131.4C127.248 131.4 130.941 130.117 134.087 127.55C137.233 124.867 138.806 121.717 138.806 118.1C138.806 114.483 137.233 111.333 134.087 108.65C130.941 105.967 127.248 104.625 123.008 104.625C118.768 104.625 115.074 105.967 111.929 108.65C108.919 111.333 107.415 114.483 107.415 118.1C107.415 121.717 108.919 124.867 111.929 127.55C115.074 130.117 118.768 131.4 123.008 131.4Z" fill="#AA9BCB"/>
<path fill-rule="evenodd" clip-rule="evenodd" d="M900.231 139.975C907.48 152.925 923.552 159.4 948.446 159.4C958.157 159.4 966.706 157.417 974.092 153.45C981.615 149.367 987.36 144.117 991.326 137.7C995.293 131.167 997.276 124.225 997.276 116.875C997.276 108.242 995.156 100.95 990.916 95C986.812 88.9333 981.41 84.4417 974.707 81.525C968.142 78.6083 961.029 77.15 953.37 77.15C947.751 77.15 942.573 77.9035 937.837 79.4105C936.117 79.9577 934.456 80.6042 932.853 81.35C933.023 79.8248 933.273 78.2318 933.602 76.571C933.802 75.5639 934.031 74.5319 934.289 73.475C935.11 70.675 935.657 68.925 935.93 68.225C937.025 64.6083 937.845 61.575 938.393 59.125C938.94 56.675 939.213 54.225 939.213 51.775C939.213 46.875 937.503 43.1417 934.084 40.575C930.665 38.0083 926.561 36.725 921.774 36.725C914.114 36.725 907.891 39.9917 903.103 46.525C898.316 53.0583 894.828 61.1667 892.64 70.85C890.588 80.5333 889.562 90.3334 889.562 100.25C889.562 113.667 893.119 126.908 900.231 139.975ZM938.861 74.3679C939.684 71.5631 940.177 70.007 940.379 69.4899L940.431 69.3586L940.471 69.2245C941.58 65.5612 942.427 62.438 942.999 59.8735C943.601 57.1812 943.903 54.4806 943.903 51.775C943.903 46.0483 941.866 41.0882 937.182 37.5722C932.86 34.3279 927.638 32.725 921.774 32.725C912.185 32.725 904.591 36.9473 899.127 44.405C893.961 51.4545 890.304 60.0554 888.035 70.0929L888.03 70.1157L888.025 70.1386C885.923 80.0585 884.873 90.0967 884.873 100.25C884.873 114.291 888.599 128.105 895.978 141.659L895.988 141.679L895.999 141.699C904.376 156.662 922.726 163.4 948.446 163.4C958.939 163.4 968.374 161.248 976.591 156.835L976.6 156.83L976.61 156.825C984.786 152.387 991.109 146.628 995.474 139.566L995.482 139.553L995.49 139.539C999.802 132.438 1001.97 124.866 1001.97 116.875C1001.97 107.701 999.714 99.6638 994.951 92.961C990.444 86.3133 984.416 81.2631 976.856 77.9696C969.603 74.7504 961.75 73.15 953.37 73.15C948.202 73.15 943.312 73.7366 938.727 74.9318C938.771 74.7448 938.815 74.5568 938.861 74.3679ZM956.858 128.25C954.122 130.583 950.908 131.75 947.215 131.75C943.522 131.75 940.307 130.583 937.572 128.25C934.836 125.8 933.468 122.942 933.468 119.675C933.468 116.408 934.836 113.55 937.572 111.1C940.307 108.65 943.522 107.425 947.215 107.425C950.908 107.425 954.122 108.65 956.858 111.1C959.73 113.55 961.166 116.408 961.166 119.675C961.166 122.942 959.73 125.8 956.858 128.25ZM940.928 125.456C939.018 123.73 938.158 121.86 938.158 119.675C938.158 117.475 939.03 115.594 940.968 113.859C942.891 112.136 944.907 111.425 947.215 111.425C949.522 111.425 951.538 112.136 953.462 113.859L953.501 113.894L953.542 113.928C955.594 115.679 956.477 117.539 956.477 119.675C956.477 121.811 955.594 123.671 953.542 125.422C951.639 127.045 949.6 127.75 947.215 127.75C944.847 127.75 942.819 127.054 940.928 125.456Z" fill="#80380E"/>
<path fill-rule="evenodd" clip-rule="evenodd" d="M805.392 154.325C813.188 157.942 822.01 159.692 831.859 159.575C841.843 159.458 850.734 157.533 858.531 153.8C866.464 150.067 872.619 145.108 876.996 138.925C881.373 132.625 883.493 125.683 883.356 118.1C883.082 110.283 880.689 103.225 876.175 96.925C871.661 90.625 865.506 85.725 857.71 82.225C850.05 78.725 841.433 76.975 831.859 76.975C822.01 76.975 813.12 78.7833 805.187 82.4C797.39 86.0167 791.303 90.9167 786.927 97.1C782.55 103.283 780.43 110.283 780.566 118.1C780.84 125.917 783.097 133.033 787.337 139.45C791.714 145.75 797.732 150.708 805.392 154.325ZM859.912 78.6934C851.507 74.8552 842.12 72.975 831.859 72.975C821.314 72.975 811.652 74.9168 802.976 78.8723L802.961 78.8791L802.946 78.8861C794.455 82.825 787.74 88.2116 782.912 95.0325C778.044 101.91 775.728 109.658 775.877 118.16L775.878 118.19L775.879 118.219C776.174 126.642 778.616 134.398 783.252 141.414L783.277 141.452L783.303 141.489C788.113 148.414 794.747 153.871 803.12 157.825L803.136 157.832L803.151 157.839C811.73 161.818 821.361 163.7 831.924 163.575C842.59 163.45 852.259 161.387 860.81 157.296C869.405 153.248 876.181 147.815 881.01 140.992L881.02 140.978L881.03 140.964C885.865 134.006 888.195 126.333 888.045 118.038L888.044 118.01L888.043 117.981C887.747 109.511 885.141 101.768 880.177 94.8392C875.217 87.917 868.434 82.5226 859.912 78.6934ZM842.117 130.35C839.381 132.8 836.167 134.025 832.474 134.025C828.781 134.025 825.567 132.8 822.831 130.35C820.096 127.9 818.728 125.042 818.728 121.775C818.728 118.508 820.096 115.708 822.831 113.375C825.567 110.925 828.781 109.7 832.474 109.7C836.167 109.7 839.381 110.925 842.117 113.375C844.853 115.708 846.22 118.508 846.22 121.775C846.22 125.042 844.853 127.9 842.117 130.35ZM838.761 116.169L838.721 116.134C836.798 114.411 834.781 113.7 832.474 113.7C830.167 113.7 828.151 114.411 826.227 116.134L826.188 116.169L826.147 116.203C824.281 117.795 823.417 119.581 823.417 121.775C823.417 123.975 824.289 125.856 826.227 127.591C828.151 129.314 830.167 130.025 832.474 130.025C834.781 130.025 836.798 129.314 838.721 127.591C840.659 125.856 841.531 123.975 841.531 121.775C841.531 119.581 840.667 117.795 838.801 116.203L838.761 116.169Z" fill="#80380E"/>
<path fill-rule="evenodd" clip-rule="evenodd" d="M727.909 71.167L727.886 71.1465C722.386 66.1797 719.63 60.1124 719.63 53.175C719.63 46.3391 722.4 40.3797 727.908 35.5332C733.43 30.5559 740.327 28 748.324 28C756.204 28 763.015 30.5678 768.512 35.5126C774.157 40.3473 777.019 46.3123 777.019 53.175C777.019 60.1475 774.164 66.2277 768.512 71.1871C762.995 76.0313 756.181 78.525 748.324 78.525C740.361 78.525 733.469 76.0495 727.932 71.1871L727.909 71.167ZM765.148 68.4C769.935 64.2 772.329 59.125 772.329 53.175C772.329 47.3417 769.935 42.3833 765.148 38.3C760.498 34.1 754.89 32 748.324 32C741.622 32 735.946 34.1 731.295 38.3C726.645 42.3833 724.32 47.3417 724.32 53.175C724.32 59.125 726.645 64.2 731.295 68.4C735.946 72.4833 741.622 74.525 748.324 74.525C754.89 74.525 760.498 72.4833 765.148 68.4ZM730.269 119.325C730.269 111.625 730.68 105.558 731.5 101.125C732.458 96.6917 734.236 93.25 736.835 90.8C739.434 88.35 743.4 87.125 748.735 87.125C755.163 87.125 759.814 88.9333 762.686 92.55C765.559 96.05 767.337 100.892 768.021 107.075C768.704 113.142 769.046 122.3 769.046 134.55C769.046 144.817 768.636 152.692 767.815 158.175C766.995 163.658 765.08 168.675 762.071 173.225C758.788 178.358 754.069 182.383 747.914 185.3C741.896 188.217 735.057 189.675 727.397 189.675C719.874 189.675 713.924 188.45 709.547 186C705.307 183.667 703.187 180.225 703.187 175.675C703.187 172.525 704.145 169.842 706.06 167.625C707.838 165.525 709.958 163.95 712.42 162.9C714.882 161.967 717.07 161.5 718.985 161.5C722.541 161.5 725.14 160.8 726.782 159.4C728.423 157.883 729.449 155.783 729.859 153.1C730.269 150.3 730.475 146.042 730.475 140.325L730.269 119.325ZM723.409 156.617C722.972 156.956 721.815 157.5 718.985 157.5C716.204 157.5 713.35 158.17 710.515 159.245L710.418 159.282L710.322 159.322C707.121 160.688 704.441 162.708 702.269 165.27C699.687 168.267 698.498 171.807 698.498 175.675C698.498 181.485 701.331 186.232 706.987 189.352C712.393 192.373 719.347 193.675 727.397 193.675C735.771 193.675 743.416 192.076 750.209 188.788C757.099 185.52 762.455 180.966 766.171 175.166C769.486 170.147 771.576 164.638 772.467 158.682C773.326 152.944 773.736 144.869 773.736 134.55C773.736 122.277 773.395 112.964 772.689 106.699C771.963 100.133 770.039 94.5477 766.55 90.2834C762.58 85.302 756.259 83.125 748.735 83.125C742.594 83.125 737.142 84.5484 733.357 88.1163C729.999 91.2828 727.948 95.4936 726.888 100.4L726.878 100.451L726.868 100.501C725.992 105.236 725.58 111.541 725.58 119.325V119.342L725.58 119.358L725.785 140.325C725.785 140.331 725.785 140.337 725.785 140.344C725.785 146.006 725.579 150.049 725.208 152.589C724.894 154.637 724.186 155.866 723.409 156.617Z" fill="#80380E"/>
<path fill-rule="evenodd" clip-rule="evenodd" d="M560.019 153.275C566.858 157.358 575.612 159.4 586.281 159.4C592.299 159.4 597.292 158.992 601.258 158.175C605.362 157.358 609.123 156.075 612.543 154.325C614.868 156.075 617.056 157.358 619.108 158.175C621.16 158.992 623.827 159.4 627.11 159.4C631.486 159.4 634.974 158.175 637.573 155.725C640.309 153.275 641.677 150.358 641.677 146.975C641.677 144.992 641.129 143.067 640.035 141.2C639.078 139.333 637.642 137.7 635.727 136.3C636.958 134.433 637.915 131.808 638.599 128.425C639.42 125.042 639.83 121.367 639.83 117.4C639.83 110.05 637.915 103.342 634.085 97.275C630.392 91.2083 624.579 86.3667 616.646 82.75C608.849 79.0167 599.138 77.15 587.512 77.15C581.63 77.15 575.749 77.9667 569.867 79.6C563.986 81.1167 559.062 83.45 555.095 86.6C551.265 89.75 549.35 93.6 549.35 98.15C549.35 102.117 550.581 105.092 553.044 107.075C555.506 108.942 558.925 109.875 563.302 109.875C565.901 109.875 567.952 109.7 569.457 109.35C571.098 109 572.876 108.475 574.791 107.775C576.706 107.075 578.484 106.55 580.126 106.2C581.767 105.85 583.887 105.675 586.486 105.675C592.368 105.675 596.744 106.667 599.617 108.65C600.678 109.34 601.544 110.101 602.213 110.935C603.355 112.356 603.925 113.986 603.925 115.825C602.96 115.276 601.323 114.799 599.013 114.394C598.376 114.282 597.688 114.176 596.95 114.075C593.667 113.492 590.111 113.2 586.281 113.2C575.886 113.2 567.2 115.183 560.224 119.15C553.249 123.117 549.761 128.483 549.761 135.25C549.761 143.067 553.18 149.075 560.019 153.275ZM561.579 113.832C560.216 114.434 558.897 115.097 557.623 115.822C549.431 120.48 545.071 127.058 545.071 135.25C545.071 144.222 549.096 151.496 557.279 156.521L557.304 156.537L557.33 156.552C565.151 161.222 574.917 163.4 586.281 163.4C592.505 163.4 597.892 162.981 602.342 162.067C605.758 161.386 608.987 160.407 612.017 159.125C613.713 160.216 615.416 161.119 617.125 161.8C620.012 162.949 623.426 163.4 627.11 163.4C632.6 163.4 637.406 161.822 641.009 158.447C644.549 155.26 646.366 151.369 646.366 146.975C646.366 144.372 645.651 141.868 644.283 139.502C643.514 138.028 642.52 136.676 641.317 135.449C642.123 133.59 642.737 131.477 643.207 129.171C644.09 125.503 644.52 121.575 644.52 117.4C644.52 109.445 642.443 102.088 638.232 95.4071C634.057 88.5609 627.53 83.1843 618.899 79.2419C610.23 75.1006 599.687 73.15 587.512 73.15C581.128 73.15 574.773 74.0354 568.462 75.7836C562.008 77.4538 556.445 80.0626 551.9 83.6724L551.87 83.6963L551.84 83.7206C547.091 87.6268 544.661 92.5172 544.661 98.15C544.661 102.794 546.115 106.996 549.824 109.983L549.875 110.025L549.928 110.065C553.094 112.465 557.121 113.605 561.579 113.832ZM597.155 140.15C595.513 141.2 593.257 141.725 590.384 141.725C587.512 141.725 585.187 141.2 583.409 140.15C581.767 139.1 580.947 137.817 580.947 136.3C580.947 134.783 581.767 133.5 583.409 132.45C585.187 131.4 587.512 130.875 590.384 130.875C593.257 130.875 595.513 131.4 597.155 132.45C598.933 133.5 599.822 134.783 599.822 136.3C599.822 137.817 598.933 139.1 597.155 140.15ZM586.151 135.697C586.933 135.257 588.226 134.875 590.384 134.875C592.638 134.875 593.78 135.291 594.341 135.65L594.412 135.696L594.485 135.739C594.947 136.011 595.09 136.194 595.118 136.235C595.124 136.244 595.127 136.25 595.129 136.253C595.129 136.254 595.13 136.257 595.13 136.261C595.131 136.268 595.132 136.281 595.132 136.3C595.132 136.327 595.13 136.342 595.129 136.347C595.128 136.35 595.124 136.356 595.118 136.365C595.09 136.406 594.947 136.589 594.485 136.861L594.412 136.904L594.341 136.95C593.78 137.309 592.638 137.725 590.384 137.725C588.226 137.725 586.933 137.343 586.151 136.903C585.819 136.681 585.709 136.531 585.679 136.485C585.659 136.453 585.636 136.415 585.636 136.3C585.636 136.185 585.659 136.147 585.679 136.115C585.709 136.069 585.819 135.919 586.151 135.697Z" fill="#80380E"/>
<path fill-rule="evenodd" clip-rule="evenodd" d="M400.933 154.325C408.046 157.708 417.62 159.4 429.657 159.4C443.472 159.4 454.482 157.242 462.689 152.925C471.033 148.608 475.204 142.658 475.204 135.075C475.204 129.125 472.742 124.458 467.818 121.075C463.031 117.692 456.671 114.892 448.738 112.675C445.728 111.858 444.224 110.575 444.224 108.825C444.224 107.892 444.634 107.133 445.455 106.55C446.276 105.85 447.233 105.5 448.327 105.5C449.558 105.5 450.652 105.675 451.61 106.025C452.704 106.375 453.73 106.783 454.687 107.25C456.329 107.95 457.628 108.475 458.586 108.825C459.68 109.058 461.116 109.175 462.894 109.175C467.408 109.175 470.964 108.242 473.563 106.375C476.299 104.508 477.666 101.767 477.666 98.15C477.666 94.3 475.82 90.8 472.127 87.65C468.434 84.3833 463.373 81.8167 456.944 79.95C450.652 78.0833 443.608 77.15 435.812 77.15C426.784 77.15 418.783 78.4333 411.807 81C404.968 83.45 399.634 86.7167 395.804 90.8C392.111 94.7667 390.264 98.9667 390.264 103.4C390.264 107.367 391.769 111.1 394.778 114.6C397.787 118.1 402.438 121.133 408.73 123.7C409.824 124.167 412.081 124.983 415.5 126.15C419.193 127.433 421.792 128.542 423.297 129.475C424.801 130.292 425.553 131.517 425.553 133.15C425.553 134.9 424.117 135.775 421.245 135.775C420.151 135.775 419.193 135.6 418.373 135.25C417.689 134.9 416.8 134.317 415.705 133.5C414.201 132.45 412.696 131.633 411.192 131.05C409.687 130.467 407.704 130.175 405.242 130.175C400.865 130.175 397.24 131.167 394.368 133.15C391.632 135.017 390.264 137.7 390.264 141.2C390.264 146.567 393.821 150.942 400.933 154.325ZM391.433 130.03C395.01 127.566 399.335 126.354 404.128 126.193C398.588 123.653 394.128 120.608 390.996 116.965C387.456 112.848 385.575 108.298 385.575 103.4C385.575 97.9367 387.879 92.8805 392.132 88.3125L392.142 88.3012C396.55 83.6017 402.57 79.9735 409.971 77.3195C417.627 74.5055 426.273 73.15 435.812 73.15C444.039 73.15 451.61 74.1343 458.47 76.1676C465.393 78.1795 471.144 81.0286 475.473 84.8471C479.877 88.6143 482.356 93.0828 482.356 98.15C482.356 102.681 480.59 106.682 476.539 109.467C472.857 112.092 468.126 113.175 462.894 113.175C462.679 113.175 462.465 113.174 462.252 113.17C465.426 114.608 468.277 116.207 470.786 117.978C476.921 122.204 479.894 128.067 479.894 135.075C479.894 144.208 474.708 151.38 465.137 156.337C455.938 161.171 443.977 163.4 429.657 163.4C417.176 163.4 406.715 161.655 398.649 157.818C390.558 153.97 385.575 148.452 385.575 141.2C385.575 136.72 387.392 132.79 391.433 130.03Z" fill="#80380E"/>
<path fill-rule="evenodd" clip-rule="evenodd" d="M380.153 96.05C386.856 93.8333 390.207 89.6917 390.207 83.625C390.207 77.675 387.198 73.825 381.179 72.075C376.063 70.5527 368.462 69.7366 358.377 69.6269C356.869 69.6105 355.306 69.6098 353.687 69.625C353.724 68.252 353.736 66.9185 353.723 65.6244C353.639 57.3524 352.533 50.6942 350.404 45.65C348.079 39.8167 342.949 36.9 335.016 36.9C327.22 36.9 321.817 40.05 318.808 46.35C315.799 52.5333 314.089 60.2917 313.679 69.625C303.42 69.7417 295.555 70.9083 290.084 73.125C284.613 75.225 281.877 79.425 281.877 85.725C281.877 90.7417 284.75 94.2417 290.495 96.225C296.376 98.0917 304.104 99.1417 313.679 99.375C313.679 118.508 315.046 131.517 317.782 138.4C320.381 144.817 325.168 149.95 332.144 153.8C339.12 157.533 346.437 159.4 354.097 159.4C362.44 159.4 369.006 158.292 373.793 156.075C378.58 153.858 380.974 150.767 380.974 146.8C380.974 143.3 380.085 140.442 378.307 138.225C376.529 135.892 374.067 134.433 370.921 133.85C369.416 133.617 368.048 133.442 366.817 133.325C365.723 133.092 364.697 132.917 363.74 132.8C360.868 132.567 358.679 132.158 357.174 131.575C355.807 130.992 354.781 129.708 354.097 127.725C353.003 124.925 352.456 120.2 352.456 113.55C352.456 107.017 352.524 102.292 352.661 99.375C364.287 99.2583 373.451 98.15 380.153 96.05ZM357.229 103.277C357.173 105.938 357.145 109.358 357.145 113.55C357.145 120.172 357.712 124.326 358.546 126.46L358.572 126.528L358.596 126.596C358.843 127.312 359.091 127.717 359.254 127.922C359.286 127.962 359.313 127.991 359.333 128.012C360.191 128.304 361.727 128.618 364.184 128.818L364.294 128.827L364.403 128.84C365.448 128.968 366.531 129.149 367.647 129.38C368.92 129.508 370.293 129.687 371.76 129.915L371.839 129.927L371.917 129.941C376.271 130.749 379.769 132.824 382.209 136.006C384.638 139.055 385.664 142.753 385.664 146.8C385.664 152.513 382.017 156.818 376.031 159.59C370.286 162.25 362.842 163.4 354.097 163.4C345.489 163.4 337.316 161.29 329.651 157.188L329.624 157.173L329.596 157.158C321.783 152.846 316.306 147.006 313.349 139.706L313.345 139.695L313.341 139.684C310.53 132.611 309.179 120.285 309.008 103.197C301.128 102.768 294.374 101.724 288.859 99.9739L288.797 99.9541L288.735 99.9328C285.223 98.7202 282.257 96.9247 280.19 94.4064C278.111 91.873 277.188 88.9072 277.188 85.725C277.188 82.1003 277.973 78.7583 279.83 75.9074C281.713 73.0156 284.543 70.8744 288.115 69.4946C293.566 67.2948 300.691 66.1112 309.23 65.7426C309.908 57.6968 311.618 50.6964 314.47 44.8295C316.245 41.1183 318.861 38.0645 322.47 35.9602C326.091 33.8494 330.358 32.9 335.016 32.9C339.645 32.9 343.886 33.7529 347.414 35.7593C350.969 37.7805 353.392 40.7409 354.83 44.3272C357.194 49.946 358.33 57.0973 358.412 65.6267C368.701 65.7369 376.897 66.5672 382.709 68.2937C386.513 69.4025 389.683 71.2818 391.852 74.0562C393.998 76.8028 394.896 80.0844 394.896 83.625C394.896 87.3003 393.872 90.6872 391.553 93.5533C389.237 96.4161 385.883 98.4454 381.849 99.7794L381.81 99.7924L381.77 99.8047C375.315 101.827 367.079 102.943 357.229 103.277Z" fill="#80380E"/>
<path fill-rule="evenodd" clip-rule="evenodd" d="M214.123 154.325C221.92 157.708 230.879 159.4 241.001 159.4C252.627 159.4 261.039 158.117 266.236 155.55C271.434 152.867 274.033 149.717 274.033 146.1C274.033 143.883 273.075 142.133 271.16 140.85C269.382 139.567 266.989 138.925 263.98 138.925C262.475 138.925 260.902 139.1 259.261 139.45C254.884 140.267 250.78 140.675 246.95 140.675C241.283 140.675 236.577 139.644 232.833 137.582C230.343 136.211 228.278 134.384 226.639 132.1C229.042 132.84 231.705 133.4 234.629 133.779C237.697 134.176 241.052 134.375 244.694 134.375C255.362 134.375 264.527 132.392 272.186 128.425C279.983 124.342 283.881 117.925 283.881 109.175C283.881 103.808 282.103 98.675 278.547 93.775C274.99 88.7583 269.861 84.7333 263.159 81.7C256.457 78.6667 248.729 77.15 239.975 77.15C230.263 77.15 221.578 79.075 213.918 82.925C206.259 86.775 200.24 91.9083 195.863 98.325C191.623 104.742 189.503 111.742 189.503 119.325C189.503 127.025 191.623 133.967 195.863 140.15C200.24 146.217 206.327 150.942 214.123 154.325ZM266.866 135.096C269.574 134.201 272.16 133.118 274.62 131.844L274.63 131.839L274.64 131.834C284.015 126.923 288.57 119.115 288.57 109.175C288.57 103.015 286.518 97.1651 282.546 91.6859C278.507 85.9965 272.72 81.4989 265.357 78.1666C257.88 74.7827 249.376 73.15 239.975 73.15C229.506 73.15 219.984 75.2332 211.537 79.4789C203.201 83.6691 196.6 89.291 191.81 96.3134L191.794 96.3371L191.778 96.361C187.13 103.395 184.814 111.075 184.814 119.325C184.814 127.68 187.124 135.328 191.815 142.17L191.842 142.208L191.87 142.246C196.721 148.97 203.47 154.19 211.997 157.89C220.549 161.601 230.256 163.4 241.001 163.4C252.812 163.4 262.272 162.129 268.586 159.012L268.626 158.992L268.665 158.972C274.599 155.908 278.722 151.673 278.722 146.1C278.722 142.775 277.211 139.845 274.125 137.75C272.027 136.256 269.54 135.427 266.866 135.096ZM232.178 114.425C230.127 113.608 228.485 112.383 227.254 110.75C227.254 108.417 228.28 106.317 230.332 104.45C232.52 102.467 235.461 101.475 239.154 101.475C242.847 101.475 245.651 102.233 247.566 103.75C249.618 105.267 250.644 107.075 250.644 109.175C250.644 111.042 249.481 112.558 247.156 113.725C244.967 114.892 242.368 115.475 239.359 115.475C236.76 115.475 234.367 115.125 232.178 114.425ZM234.003 110.736C235.566 111.214 237.337 111.475 239.359 111.475C241.638 111.475 243.344 111.04 244.67 110.333L244.724 110.305L244.778 110.277C245.481 109.924 245.752 109.646 245.847 109.524C245.913 109.436 245.954 109.356 245.954 109.175C245.954 108.363 245.637 107.617 244.495 106.773L244.434 106.728L244.375 106.681C243.629 106.091 242.153 105.475 239.154 105.475C236.537 105.475 234.914 106.137 233.753 107.186C232.864 107.995 232.353 108.778 232.113 109.573C232.656 110.048 233.281 110.431 234.003 110.736Z" fill="#80380E"/>
<path fill-rule="evenodd" clip-rule="evenodd" d="M95.9254 185.475C100.986 188.042 107.483 189.325 115.416 189.325C133.608 189.325 148.449 184.6 159.938 175.15C171.428 165.7 178.198 152.75 180.25 136.3C181.07 130.467 181.481 124.283 181.481 117.75C181.481 103.867 179.429 92.2 175.326 82.75C171.359 73.3 164.931 68.575 156.04 68.575C150.705 68.575 146.67 69.45 143.935 71.2C141.336 72.95 139.49 75.4 138.395 78.55C135.933 78.0833 132.856 77.675 129.163 77.325C125.606 76.975 122.461 76.8 119.725 76.8C111.518 76.8 103.653 78.55 96.1305 82.05C88.6077 85.55 82.4526 90.625 77.6653 97.275C73.0148 103.925 70.6896 111.8 70.6896 120.9C70.6896 126.383 72.3309 131.983 75.6136 137.7C78.8963 143.3 84.2307 148.025 91.6168 151.875C99.1397 155.725 108.714 157.65 120.34 157.65C124.854 157.65 129.094 157.3 133.061 156.6C133.209 156.574 133.355 156.548 133.501 156.521C137.256 155.835 140.187 154.986 142.294 153.975C141.394 156.607 138.984 158.723 135.064 160.324C134.813 160.426 134.555 160.527 134.292 160.625C130.052 162.375 124.991 163.25 119.109 163.25C116.784 163.25 114.254 163.075 111.518 162.725C109.33 162.492 107.757 162.375 106.799 162.375C101.465 162.375 97.0196 163.542 93.4633 165.875C90.0439 168.325 88.3341 171.475 88.3341 175.325C88.3341 179.642 90.8645 183.025 95.9254 185.475ZM93.5692 188.934C87.3296 185.901 83.6445 181.31 83.6445 175.325C83.6445 170.308 85.9537 166.032 90.447 162.812L90.5242 162.757L90.6041 162.705C93.1937 161.005 96.1056 159.833 99.2792 159.141C95.6594 158.161 92.2962 156.887 89.2041 155.305L89.1877 155.297L89.1714 155.288C81.1717 151.118 75.1607 145.872 71.4192 139.489L71.4106 139.474L71.4021 139.459C67.8554 133.283 66 127.084 66 120.9C66 111.206 68.4833 102.597 73.6378 95.2259L73.6532 95.2038L73.669 95.1819C78.8547 87.9785 85.5946 82.3955 93.8849 78.5384C102.065 74.7326 110.698 72.8 119.725 72.8C122.682 72.8 126.011 72.9885 129.69 73.3504C131.774 73.5479 133.696 73.7663 135.451 74.0073C136.801 71.6753 138.646 69.6655 141.029 68.0605L141.075 68.0298L141.121 68C145.01 65.5122 150.222 64.575 156.04 64.575C161.551 64.575 166.482 66.0687 170.591 69.0886C174.606 72.0395 177.577 76.2534 179.732 81.3799C184.08 91.404 186.17 103.568 186.17 117.75C186.17 124.416 185.752 130.75 184.91 136.75C182.763 153.913 175.63 167.8 163.193 178.029C150.706 188.3 134.639 193.325 115.416 193.325C106.942 193.325 99.5577 191.96 93.5692 188.934ZM134.087 127.55C130.941 130.117 127.248 131.4 123.008 131.4C118.768 131.4 115.074 130.117 111.929 127.55C108.919 124.867 107.415 121.717 107.415 118.1C107.415 114.483 108.919 111.333 111.929 108.65C115.074 105.967 118.768 104.625 123.008 104.625C127.248 104.625 130.941 105.967 134.087 108.65C137.233 111.333 138.806 114.483 138.806 118.1C138.806 121.717 137.233 124.867 134.087 127.55ZM130.808 124.69C128.518 126.545 125.988 127.4 123.008 127.4C120.043 127.4 117.525 126.554 115.246 124.721C113.096 122.777 112.104 120.628 112.104 118.1C112.104 115.558 113.107 113.4 115.281 111.447C117.586 109.495 120.093 108.625 123.008 108.625C125.938 108.625 128.456 109.504 130.771 111.478C133.085 113.453 134.116 115.601 134.116 118.1C134.116 120.586 133.096 122.724 130.808 124.69Z" fill="#80380E"/>
<path d="M955.48 169.4C930.586 169.4 914.515 162.925 907.265 149.975C900.153 136.908 896.597 123.667 896.597 110.25C896.597 100.333 897.623 90.5333 899.674 80.85C901.863 71.1667 905.351 63.0583 910.138 56.525C914.925 49.9917 921.149 46.725 928.808 46.725C933.595 46.725 937.699 48.0083 941.118 50.575C944.538 53.1417 946.248 56.875 946.248 61.775C946.248 64.225 945.974 66.675 945.427 69.125C944.88 71.575 944.059 74.6083 942.965 78.225C942.691 78.925 942.144 80.675 941.324 83.475C940.64 86.275 940.161 88.9 939.887 91.35C945.906 88.55 952.745 87.15 960.404 87.15C968.064 87.15 975.176 88.6083 981.742 91.525C988.444 94.4417 993.847 98.9333 997.95 105C1002.19 110.95 1004.31 118.242 1004.31 126.875C1004.31 134.225 1002.33 141.167 998.36 147.7C994.394 154.117 988.649 159.367 981.126 163.45C973.74 167.417 965.191 169.4 955.48 169.4ZM954.249 141.75C957.942 141.75 961.157 140.583 963.892 138.25C966.765 135.8 968.201 132.942 968.201 129.675C968.201 126.408 966.765 123.55 963.892 121.1C961.157 118.65 957.942 117.425 954.249 117.425C950.556 117.425 947.342 118.65 944.606 121.1C941.871 123.55 940.503 126.408 940.503 129.675C940.503 132.942 941.871 135.8 944.606 138.25C947.342 140.583 950.556 141.75 954.249 141.75Z" fill="#F1E5FF"/>
<path d="M838.893 169.575C829.045 169.692 820.222 167.942 812.426 164.325C804.766 160.708 798.748 155.75 794.371 149.45C790.131 143.033 787.874 135.917 787.601 128.1C787.464 120.283 789.584 113.283 793.961 107.1C798.338 100.917 804.424 96.0167 812.221 92.4C820.154 88.7833 829.045 86.975 838.893 86.975C848.467 86.975 857.084 88.725 864.744 92.225C872.541 95.725 878.696 100.625 883.209 106.925C887.723 113.225 890.117 120.283 890.39 128.1C890.527 135.683 888.407 142.625 884.03 148.925C879.653 155.108 873.498 160.067 865.565 163.8C857.768 167.533 848.878 169.458 838.893 169.575ZM839.508 144.025C843.201 144.025 846.416 142.8 849.151 140.35C851.887 137.9 853.255 135.042 853.255 131.775C853.255 128.508 851.887 125.708 849.151 123.375C846.416 120.925 843.201 119.7 839.508 119.7C835.815 119.7 832.601 120.925 829.865 123.375C827.13 125.708 825.762 128.508 825.762 131.775C825.762 135.042 827.13 137.9 829.865 140.35C832.601 142.8 835.815 144.025 839.508 144.025Z" fill="#F1E5FF"/>
<path d="M755.359 84.525C748.656 84.525 742.98 82.4833 738.33 78.4C733.679 74.2 731.354 69.125 731.354 63.175C731.354 57.3417 733.679 52.3833 738.33 48.3C742.98 44.1 748.656 42 755.359 42C761.924 42 767.532 44.1 772.182 48.3C776.97 52.3833 779.363 57.3417 779.363 63.175C779.363 69.125 776.97 74.2 772.182 78.4C767.532 82.4833 761.924 84.525 755.359 84.525ZM734.431 199.675C726.909 199.675 720.959 198.45 716.582 196C712.342 193.667 710.221 190.225 710.221 185.675C710.221 182.525 711.179 179.842 713.094 177.625C714.872 175.525 716.992 173.95 719.454 172.9C721.916 171.967 724.105 171.5 726.019 171.5C729.576 171.5 732.175 170.8 733.816 169.4C735.457 167.883 736.483 165.783 736.893 163.1C737.304 160.3 737.509 156.042 737.509 150.325L737.304 129.325C737.304 121.625 737.714 115.558 738.535 111.125C739.492 106.692 741.27 103.25 743.869 100.8C746.468 98.35 750.435 97.125 755.769 97.125C762.198 97.125 766.848 98.9333 769.72 102.55C772.593 106.05 774.371 110.892 775.055 117.075C775.739 123.142 776.081 132.3 776.081 144.55C776.081 154.817 775.67 162.692 774.85 168.175C774.029 173.658 772.114 178.675 769.105 183.225C765.822 188.358 761.103 192.383 754.948 195.3C748.93 198.217 742.091 199.675 734.431 199.675Z" fill="#F1E5FF"/>
<path d="M593.315 169.4C582.646 169.4 573.892 167.358 567.054 163.275C560.215 159.075 556.795 153.067 556.795 145.25C556.795 138.483 560.283 133.117 567.259 129.15C574.234 125.183 582.92 123.2 593.315 123.2C597.145 123.2 600.701 123.492 603.984 124.075C607.403 124.542 609.729 125.125 610.96 125.825C610.96 122.908 609.524 120.517 606.651 118.65C603.779 116.667 599.402 115.675 593.52 115.675C590.922 115.675 588.801 115.85 587.16 116.2C585.519 116.55 583.741 117.075 581.826 117.775C579.911 118.475 578.133 119 576.491 119.35C574.987 119.7 572.935 119.875 570.336 119.875C565.959 119.875 562.54 118.942 560.078 117.075C557.616 115.092 556.385 112.117 556.385 108.15C556.385 103.6 558.3 99.75 562.13 96.6C566.096 93.45 571.02 91.1167 576.902 89.6C582.783 87.9667 588.665 87.15 594.546 87.15C606.172 87.15 615.884 89.0167 623.68 92.75C631.613 96.3667 637.427 101.208 641.12 107.275C644.949 113.342 646.864 120.05 646.864 127.4C646.864 131.367 646.454 135.042 645.633 138.425C644.949 141.808 643.992 144.433 642.761 146.3C644.676 147.7 646.112 149.333 647.069 151.2C648.164 153.067 648.711 154.992 648.711 156.975C648.711 160.358 647.343 163.275 644.607 165.725C642.009 168.175 638.521 169.4 634.144 169.4C630.861 169.4 628.194 168.992 626.142 168.175C624.091 167.358 621.902 166.075 619.577 164.325C616.157 166.075 612.396 167.358 608.293 168.175C604.326 168.992 599.333 169.4 593.315 169.4ZM597.419 151.725C600.291 151.725 602.548 151.2 604.189 150.15C605.967 149.1 606.856 147.817 606.856 146.3C606.856 144.783 605.967 143.5 604.189 142.45C602.548 141.4 600.291 140.875 597.419 140.875C594.546 140.875 592.221 141.4 590.443 142.45C588.801 143.5 587.981 144.783 587.981 146.3C587.981 147.817 588.801 149.1 590.443 150.15C592.221 151.2 594.546 151.725 597.419 151.725Z" fill="#F1E5FF"/>
<path d="M436.691 169.4C424.655 169.4 415.08 167.708 407.968 164.325C400.855 160.942 397.299 156.567 397.299 151.2C397.299 147.7 398.666 145.017 401.402 143.15C404.274 141.167 407.899 140.175 412.276 140.175C414.738 140.175 416.721 140.467 418.226 141.05C419.731 141.633 421.235 142.45 422.74 143.5C423.834 144.317 424.723 144.9 425.407 145.25C426.228 145.6 427.185 145.775 428.279 145.775C431.152 145.775 432.588 144.9 432.588 143.15C432.588 141.517 431.835 140.292 430.331 139.475C428.826 138.542 426.228 137.433 422.534 136.15C419.115 134.983 416.858 134.167 415.764 133.7C409.472 131.133 404.822 128.1 401.812 124.6C398.803 121.1 397.299 117.367 397.299 113.4C397.299 108.967 399.145 104.767 402.838 100.8C406.668 96.7167 412.002 93.45 418.841 91C425.817 88.4333 433.819 87.15 442.846 87.15C450.643 87.15 457.687 88.0833 463.979 89.95C470.407 91.8167 475.468 94.3833 479.161 97.65C482.854 100.8 484.701 104.3 484.701 108.15C484.701 111.767 483.333 114.508 480.597 116.375C477.999 118.242 474.442 119.175 469.929 119.175C468.15 119.175 466.714 119.058 465.62 118.825C464.663 118.475 463.363 117.95 461.722 117.25C460.764 116.783 459.738 116.375 458.644 116.025C457.687 115.675 456.593 115.5 455.362 115.5C454.267 115.5 453.31 115.85 452.489 116.55C451.669 117.133 451.258 117.892 451.258 118.825C451.258 120.575 452.763 121.858 455.772 122.675C463.705 124.892 470.065 127.692 474.853 131.075C479.777 134.458 482.239 139.125 482.239 145.075C482.239 152.658 478.067 158.608 469.723 162.925C461.517 167.242 450.506 169.4 436.691 169.4Z" fill="#F1E5FF"/>
<path d="M397.241 93.625C397.241 99.6917 393.89 103.833 387.188 106.05C380.486 108.15 371.321 109.258 359.695 109.375C359.558 112.292 359.49 117.017 359.49 123.55C359.49 130.2 360.037 134.925 361.131 137.725C361.815 139.708 362.841 140.992 364.209 141.575C365.713 142.158 367.902 142.567 370.774 142.8C371.732 142.917 372.757 143.092 373.852 143.325C375.083 143.442 376.451 143.617 377.955 143.85C381.101 144.433 383.563 145.892 385.341 148.225C387.119 150.442 388.008 153.3 388.008 156.8C388.008 160.767 385.615 163.858 380.827 166.075C376.04 168.292 369.475 169.4 361.131 169.4C353.472 169.4 346.154 167.533 339.178 163.8C332.202 159.95 327.415 154.817 324.816 148.4C322.081 141.517 320.713 128.508 320.713 109.375C311.138 109.142 303.41 108.092 297.529 106.225C291.784 104.242 288.912 100.742 288.912 95.725C288.912 89.425 291.647 85.225 297.119 83.125C302.59 80.9083 310.454 79.7417 320.713 79.625C321.123 70.2917 322.833 62.5333 325.842 56.35C328.851 50.05 334.254 46.9 342.051 46.9C349.984 46.9 355.113 49.8167 357.438 55.65C359.9 61.4833 360.994 69.475 360.721 79.625C373.168 79.5083 382.332 80.325 388.214 82.075C394.232 83.825 397.241 87.675 397.241 93.625Z" fill="#F1E5FF"/>
<path d="M248.035 169.4C237.913 169.4 228.954 167.708 221.158 164.325C213.361 160.942 207.275 156.217 202.898 150.15C198.658 143.967 196.538 137.025 196.538 129.325C196.538 121.742 198.658 114.742 202.898 108.325C207.275 101.908 213.293 96.775 220.953 92.925C228.612 89.075 237.298 87.15 247.009 87.15C255.763 87.15 263.491 88.6667 270.193 91.7C276.895 94.7333 282.025 98.7583 285.581 103.775C289.137 108.675 290.915 113.808 290.915 119.175C290.915 127.925 287.017 134.342 279.221 138.425C271.561 142.392 262.397 144.375 251.728 144.375C244.616 144.375 238.597 143.617 233.673 142.1C237.777 147.817 244.547 150.675 253.985 150.675C257.815 150.675 261.918 150.267 266.295 149.45C267.936 149.1 269.509 148.925 271.014 148.925C274.023 148.925 276.417 149.567 278.195 150.85C280.11 152.133 281.067 153.883 281.067 156.1C281.067 159.717 278.468 162.867 273.271 165.55C268.073 168.117 259.661 169.4 248.035 169.4ZM234.289 120.75C235.52 122.383 237.161 123.608 239.213 124.425C241.401 125.125 243.795 125.475 246.394 125.475C249.403 125.475 252.002 124.892 254.19 123.725C256.515 122.558 257.678 121.042 257.678 119.175C257.678 117.075 256.652 115.267 254.6 113.75C252.686 112.233 249.882 111.475 246.189 111.475C242.495 111.475 239.555 112.467 237.366 114.45C235.315 116.317 234.289 118.417 234.289 120.75Z" fill="#F1E5FF"/>
<path d="M122.451 199.325C114.518 199.325 108.02 198.042 102.96 195.475C97.8988 193.025 95.3684 189.642 95.3684 185.325C95.3684 181.475 97.0782 178.325 100.498 175.875C104.054 173.542 108.499 172.375 113.834 172.375C114.791 172.375 116.364 172.492 118.553 172.725C121.288 173.075 123.819 173.25 126.144 173.25C132.025 173.25 137.086 172.375 141.326 170.625C145.703 168.992 148.37 166.775 149.328 163.975C147.139 165.025 144.062 165.9 140.095 166.6C136.129 167.3 131.888 167.65 127.375 167.65C115.749 167.65 106.174 165.725 98.6511 161.875C91.265 158.025 85.9306 153.3 82.6479 147.7C79.3652 141.983 77.7239 136.383 77.7239 130.9C77.7239 121.8 80.0491 113.925 84.6996 107.275C89.4869 100.625 95.642 95.55 103.165 92.05C110.688 88.55 118.553 86.8 126.759 86.8C129.495 86.8 132.641 86.975 136.197 87.325C139.89 87.675 142.968 88.0833 145.43 88.55C146.524 85.4 148.37 82.95 150.969 81.2C153.705 79.45 157.74 78.575 163.074 78.575C171.965 78.575 178.393 83.3 182.36 92.75C186.463 102.2 188.515 113.867 188.515 127.75C188.515 134.283 188.105 140.467 187.284 146.3C185.232 162.75 178.462 175.7 166.972 185.15C155.483 194.6 140.642 199.325 122.451 199.325ZM130.042 141.4C134.282 141.4 137.975 140.117 141.121 137.55C144.267 134.867 145.84 131.717 145.84 128.1C145.84 124.483 144.267 121.333 141.121 118.65C137.975 115.967 134.282 114.625 130.042 114.625C125.802 114.625 122.109 115.967 118.963 118.65C115.954 121.333 114.449 124.483 114.449 128.1C114.449 131.717 115.954 134.867 118.963 137.55C122.109 140.117 125.802 141.4 130.042 141.4Z" fill="#F1E5FF"/>
<path fill-rule="evenodd" clip-rule="evenodd" d="M907.266 149.975C914.515 162.925 930.586 169.4 955.48 169.4C965.192 169.4 973.74 167.417 981.126 163.45C988.649 159.367 994.394 154.117 998.361 147.7C1002.33 141.167 1004.31 134.225 1004.31 126.875C1004.31 118.242 1002.19 110.95 997.95 105C993.847 98.9333 988.444 94.4417 981.742 91.525C975.176 88.6083 968.064 87.15 960.404 87.15C954.785 87.15 949.607 87.9035 944.871 89.4105C943.152 89.9577 941.49 90.6042 939.887 91.35C940.058 89.8248 940.307 88.2318 940.637 86.571C940.837 85.5639 941.065 84.5319 941.324 83.475C942.144 80.675 942.691 78.925 942.965 78.225C944.059 74.6083 944.88 71.575 945.427 69.125C945.974 66.675 946.248 64.225 946.248 61.775C946.248 56.875 944.538 53.1417 941.118 50.575C937.699 48.0083 933.596 46.725 928.808 46.725C921.149 46.725 914.925 49.9917 910.138 56.525C905.351 63.0583 901.863 71.1667 899.674 80.85C897.623 90.5333 896.597 100.333 896.597 110.25C896.597 123.667 900.153 136.908 907.266 149.975ZM945.896 84.3679C946.719 81.5631 947.212 80.007 947.414 79.4899L947.465 79.3586L947.506 79.2245C948.614 75.5612 949.461 72.438 950.034 69.8735C950.635 67.1812 950.937 64.4806 950.937 61.775C950.937 56.0483 948.901 51.0882 944.216 47.5722C939.894 44.3279 934.673 42.725 928.808 42.725C919.22 42.725 911.626 46.9473 906.161 54.405C900.996 61.4545 897.338 70.0554 895.069 80.0929L895.064 80.1157L895.059 80.1386C892.958 90.0585 891.907 100.097 891.907 110.25C891.907 124.291 895.634 138.105 903.012 151.659L903.023 151.679L903.034 151.699C911.41 166.662 929.761 173.4 955.48 173.4C965.973 173.4 975.408 171.248 983.625 166.835L983.635 166.83L983.644 166.825C991.82 162.387 998.143 156.628 1002.51 149.566L1002.52 149.553L1002.52 149.539C1006.84 142.438 1009 134.866 1009 126.875C1009 117.701 1006.75 109.664 1001.99 102.961C997.478 96.3133 991.45 91.2631 983.891 87.9696C976.637 84.7504 968.784 83.15 960.404 83.15C955.237 83.15 950.346 83.7366 945.761 84.9318C945.805 84.7448 945.85 84.5568 945.896 84.3679ZM963.892 138.25C961.157 140.583 957.942 141.75 954.249 141.75C950.556 141.75 947.342 140.583 944.606 138.25C941.871 135.8 940.503 132.942 940.503 129.675C940.503 126.408 941.871 123.55 944.606 121.1C947.342 118.65 950.556 117.425 954.249 117.425C957.942 117.425 961.157 118.65 963.892 121.1C966.765 123.55 968.201 126.408 968.201 129.675C968.201 132.942 966.765 135.8 963.892 138.25ZM947.962 135.456C946.052 133.73 945.192 131.86 945.192 129.675C945.192 127.475 946.064 125.594 948.002 123.859C949.926 122.136 951.942 121.425 954.249 121.425C956.557 121.425 958.573 122.136 960.496 123.859L960.536 123.894L960.576 123.928C962.628 125.679 963.511 127.539 963.511 129.675C963.511 131.811 962.628 133.671 960.576 135.422C958.673 137.045 956.634 137.75 954.249 137.75C951.881 137.75 949.854 137.054 947.962 135.456Z" fill="#80380E"/>
<path fill-rule="evenodd" clip-rule="evenodd" d="M812.426 164.325C820.223 167.942 829.045 169.692 838.893 169.575C848.878 169.458 857.768 167.533 865.565 163.8C873.498 160.067 879.653 155.108 884.03 148.925C888.407 142.625 890.527 135.683 890.39 128.1C890.117 120.283 887.723 113.225 883.209 106.925C878.696 100.625 872.541 95.725 864.744 92.225C857.085 88.725 848.468 86.975 838.893 86.975C829.045 86.975 820.154 88.7833 812.221 92.4C804.425 96.0167 798.338 100.917 793.961 107.1C789.584 113.283 787.464 120.283 787.601 128.1C787.874 135.917 790.131 143.033 794.371 149.45C798.748 155.75 804.767 160.708 812.426 164.325ZM866.946 88.6934C858.541 84.8552 849.155 82.975 838.893 82.975C828.348 82.975 818.687 84.9168 810.01 88.8723L809.995 88.8791L809.98 88.8861C801.489 92.825 794.775 98.2116 789.946 105.033C785.078 111.91 782.763 119.658 782.912 128.16L782.912 128.19L782.913 128.219C783.208 136.642 785.65 144.398 790.286 151.414L790.311 151.452L790.337 151.489C795.148 158.414 801.781 163.871 810.155 167.825L810.17 167.832L810.186 167.839C818.764 171.818 828.396 173.7 838.958 173.575C849.625 173.45 859.293 171.387 867.845 167.296C876.439 163.248 883.215 157.815 888.045 150.992L888.055 150.978L888.065 150.964C892.899 144.006 895.229 136.333 895.079 128.038L895.079 128.01L895.078 127.981C894.781 119.511 892.175 111.768 887.211 104.839C882.251 97.917 875.469 92.5226 866.946 88.6934ZM849.151 140.35C846.416 142.8 843.202 144.025 839.509 144.025C835.815 144.025 832.601 142.8 829.866 140.35C827.13 137.9 825.762 135.042 825.762 131.775C825.762 128.508 827.13 125.708 829.866 123.375C832.601 120.925 835.815 119.7 839.509 119.7C843.202 119.7 846.416 120.925 849.151 123.375C851.887 125.708 853.255 128.508 853.255 131.775C853.255 135.042 851.887 137.9 849.151 140.35ZM845.795 126.169L845.756 126.134C843.832 124.411 841.816 123.7 839.509 123.7C837.201 123.7 835.185 124.411 833.261 126.134L833.222 126.169L833.182 126.203C831.315 127.795 830.452 129.581 830.452 131.775C830.452 133.975 831.323 135.856 833.261 137.591C835.185 139.314 837.201 140.025 839.509 140.025C841.816 140.025 843.832 139.314 845.756 137.591C847.694 135.856 848.565 133.975 848.565 131.775C848.565 129.581 847.702 127.795 845.835 126.203L845.795 126.169Z" fill="#80380E"/>
<path fill-rule="evenodd" clip-rule="evenodd" d="M734.943 81.167L734.92 81.1465C729.421 76.1797 726.664 70.1124 726.664 63.175C726.664 56.3391 729.434 50.3797 734.943 45.5332C740.465 40.5559 747.362 38 755.359 38C763.238 38 770.05 40.5678 775.547 45.5126C781.192 50.3473 784.053 56.3123 784.053 63.175C784.053 70.1475 781.199 76.2277 775.546 81.1871C770.029 86.0313 763.215 88.525 755.359 88.525C747.395 88.525 740.504 86.0495 734.966 81.1871L734.943 81.167ZM772.183 78.4C776.97 74.2 779.363 69.125 779.363 63.175C779.363 57.3417 776.97 52.3833 772.183 48.3C767.532 44.1 761.924 42 755.359 42C748.657 42 742.98 44.1 738.33 48.3C733.679 52.3833 731.354 57.3417 731.354 63.175C731.354 69.125 733.679 74.2 738.33 78.4C742.98 82.4833 748.657 84.525 755.359 84.525C761.924 84.525 767.532 82.4833 772.183 78.4ZM737.304 129.325C737.304 121.625 737.714 115.558 738.535 111.125C739.492 106.692 741.27 103.25 743.869 100.8C746.468 98.35 750.435 97.125 755.769 97.125C762.198 97.125 766.848 98.9333 769.721 102.55C772.593 106.05 774.371 110.892 775.055 117.075C775.739 123.142 776.081 132.3 776.081 144.55C776.081 154.817 775.67 162.692 774.85 168.175C774.029 173.658 772.114 178.675 769.105 183.225C765.822 188.358 761.103 192.383 754.948 195.3C748.93 198.217 742.091 199.675 734.432 199.675C726.909 199.675 720.959 198.45 716.582 196C712.342 193.667 710.222 190.225 710.222 185.675C710.222 182.525 711.179 179.842 713.094 177.625C714.872 175.525 716.992 173.95 719.454 172.9C721.916 171.967 724.105 171.5 726.02 171.5C729.576 171.5 732.175 170.8 733.816 169.4C735.457 167.883 736.483 165.783 736.894 163.1C737.304 160.3 737.509 156.042 737.509 150.325L737.304 129.325ZM730.444 166.617C730.006 166.956 728.85 167.5 726.02 167.5C723.239 167.5 720.384 168.17 717.55 169.245L717.452 169.282L717.357 169.322C714.156 170.688 711.476 172.708 709.303 175.27C706.722 178.267 705.532 181.807 705.532 185.675C705.532 191.485 708.365 196.232 714.022 199.352C719.427 202.373 726.381 203.675 734.432 203.675C742.806 203.675 750.451 202.076 757.243 198.788C764.134 195.52 769.489 190.966 773.205 185.166C776.52 180.147 778.61 174.638 779.502 168.682C780.36 162.944 780.77 154.869 780.77 144.55C780.77 132.277 780.43 122.964 779.724 116.699C778.998 110.133 777.073 104.548 773.585 100.283C769.614 95.302 763.294 93.125 755.769 93.125C749.628 93.125 744.176 94.5484 740.392 98.1163C737.033 101.283 734.983 105.494 733.923 110.4L733.912 110.451L733.903 110.501C733.026 115.236 732.614 121.541 732.614 129.325V129.342L732.614 129.358L732.819 150.325C732.819 150.331 732.819 150.337 732.819 150.344C732.819 156.006 732.613 160.049 732.242 162.589C731.928 164.637 731.22 165.866 730.444 166.617Z" fill="#80380E"/>
<path fill-rule="evenodd" clip-rule="evenodd" d="M567.054 163.275C573.893 167.358 582.647 169.4 593.315 169.4C599.334 169.4 604.326 168.992 608.293 168.175C612.396 167.358 616.157 166.075 619.577 164.325C621.902 166.075 624.091 167.358 626.142 168.175C628.194 168.992 630.861 169.4 634.144 169.4C638.521 169.4 642.009 168.175 644.608 165.725C647.343 163.275 648.711 160.358 648.711 156.975C648.711 154.992 648.164 153.067 647.07 151.2C646.112 149.333 644.676 147.7 642.761 146.3C643.992 144.433 644.95 141.808 645.633 138.425C646.454 135.042 646.864 131.367 646.864 127.4C646.864 120.05 644.95 113.342 641.12 107.275C637.427 101.208 631.614 96.3667 623.68 92.75C615.884 89.0167 606.173 87.15 594.546 87.15C588.665 87.15 582.783 87.9667 576.902 89.6C571.02 91.1167 566.096 93.45 562.13 96.6C558.3 99.75 556.385 103.6 556.385 108.15C556.385 112.117 557.616 115.092 560.078 117.075C562.54 118.942 565.959 119.875 570.336 119.875C572.935 119.875 574.987 119.7 576.491 119.35C578.133 119 579.911 118.475 581.826 117.775C583.741 117.075 585.519 116.55 587.16 116.2C588.802 115.85 590.922 115.675 593.52 115.675C599.402 115.675 603.779 116.667 606.651 118.65C607.713 119.34 608.578 120.101 609.248 120.935C610.389 122.356 610.96 123.986 610.96 125.825C609.995 125.276 608.357 124.799 606.047 124.394C605.411 124.282 604.723 124.176 603.984 124.075C600.701 123.492 597.145 123.2 593.315 123.2C582.92 123.2 574.235 125.183 567.259 129.15C560.283 133.117 556.795 138.483 556.795 145.25C556.795 153.067 560.215 159.075 567.054 163.275ZM568.614 123.832C567.251 124.434 565.932 125.097 564.658 125.822C556.466 130.48 552.106 137.058 552.106 145.25C552.106 154.222 556.131 161.496 564.314 166.521L564.339 166.537L564.364 166.552C572.185 171.222 581.952 173.4 593.315 173.4C599.539 173.4 604.926 172.981 609.377 172.067C612.792 171.386 616.021 170.407 619.052 169.125C620.748 170.216 622.45 171.119 624.159 171.8C627.046 172.949 630.461 173.4 634.144 173.4C639.634 173.4 644.44 171.822 648.044 168.447C651.583 165.26 653.401 161.369 653.401 156.975C653.401 154.372 652.685 151.868 651.317 149.502C650.549 148.028 649.555 146.676 648.351 145.449C649.157 143.59 649.772 141.477 650.241 139.171C651.125 135.503 651.554 131.575 651.554 127.4C651.554 119.445 649.477 112.088 645.267 105.407C641.091 98.5609 634.564 93.1843 625.934 89.2419C617.265 85.1006 606.722 83.15 594.546 83.15C588.162 83.15 581.807 84.0354 575.497 85.7836C569.042 87.4538 563.48 90.0626 558.934 93.6724L558.904 93.6963L558.874 93.7206C554.125 97.6268 551.695 102.517 551.695 108.15C551.695 112.794 553.149 116.996 556.858 119.983L556.909 120.025L556.962 120.065C560.129 122.465 564.156 123.605 568.614 123.832ZM604.189 150.15C602.548 151.2 600.291 151.725 597.419 151.725C594.546 151.725 592.221 151.2 590.443 150.15C588.802 149.1 587.981 147.817 587.981 146.3C587.981 144.783 588.802 143.5 590.443 142.45C592.221 141.4 594.546 140.875 597.419 140.875C600.291 140.875 602.548 141.4 604.189 142.45C605.967 143.5 606.856 144.783 606.856 146.3C606.856 147.817 605.967 149.1 604.189 150.15ZM593.186 145.697C593.967 145.257 595.261 144.875 597.419 144.875C599.672 144.875 600.814 145.291 601.376 145.65L601.447 145.696L601.52 145.739C601.981 146.011 602.124 146.194 602.152 146.235C602.156 146.241 602.159 146.245 602.161 146.249C602.162 146.25 602.163 146.252 602.163 146.253C602.165 146.258 602.167 146.273 602.167 146.3C602.167 146.318 602.166 146.331 602.165 146.339C602.164 146.343 602.164 146.346 602.163 146.347C602.162 146.35 602.159 146.356 602.152 146.365C602.124 146.406 601.981 146.589 601.52 146.861L601.447 146.904L601.376 146.95C600.814 147.309 599.672 147.725 597.419 147.725C595.26 147.725 593.967 147.343 593.185 146.903C592.854 146.681 592.743 146.531 592.713 146.485C592.693 146.453 592.671 146.415 592.671 146.3C592.671 146.232 592.678 146.191 592.689 146.163C592.696 146.143 592.705 146.128 592.713 146.115C592.743 146.069 592.854 145.919 593.186 145.697Z" fill="#80380E"/>
<path fill-rule="evenodd" clip-rule="evenodd" d="M407.968 164.325C415.08 167.708 424.655 169.4 436.691 169.4C450.506 169.4 461.517 167.242 469.723 162.925C478.067 158.608 482.239 152.658 482.239 145.075C482.239 139.125 479.777 134.458 474.853 131.075C470.065 127.692 463.705 124.892 455.772 122.675C452.763 121.858 451.258 120.575 451.258 118.825C451.258 117.892 451.669 117.133 452.489 116.55C453.31 115.85 454.267 115.5 455.362 115.5C456.593 115.5 457.687 115.675 458.644 116.025C459.739 116.375 460.764 116.783 461.722 117.25C463.363 117.95 464.663 118.475 465.62 118.825C466.714 119.058 468.151 119.175 469.929 119.175C474.442 119.175 477.999 118.242 480.597 116.375C483.333 114.508 484.701 111.767 484.701 108.15C484.701 104.3 482.854 100.8 479.161 97.65C475.468 94.3833 470.407 91.8167 463.979 89.95C457.687 88.0833 450.643 87.15 442.846 87.15C433.819 87.15 425.817 88.4333 418.842 91C412.003 93.45 406.668 96.7167 402.838 100.8C399.145 104.767 397.299 108.967 397.299 113.4C397.299 117.367 398.803 121.1 401.813 124.6C404.822 128.1 409.472 131.133 415.764 133.7C416.858 134.167 419.115 134.983 422.535 136.15C426.228 137.433 428.826 138.542 430.331 139.475C431.836 140.292 432.588 141.517 432.588 143.15C432.588 144.9 431.152 145.775 428.279 145.775C427.185 145.775 426.228 145.6 425.407 145.25C424.723 144.9 423.834 144.317 422.74 143.5C421.235 142.45 419.731 141.633 418.226 141.05C416.722 140.467 414.738 140.175 412.276 140.175C407.899 140.175 404.275 141.167 401.402 143.15C398.667 145.017 397.299 147.7 397.299 151.2C397.299 156.567 400.855 160.942 407.968 164.325ZM398.468 140.03C402.044 137.566 406.369 136.354 411.162 136.193C405.622 133.653 401.163 130.608 398.031 126.965C394.49 122.848 392.609 118.298 392.609 113.4C392.609 107.937 394.913 102.881 399.166 98.3125L399.176 98.3012C403.584 93.6017 409.604 89.9735 417.005 87.3195C424.662 84.5055 433.307 83.15 442.846 83.15C451.074 83.15 458.645 84.1343 465.504 86.1676C472.428 88.1795 478.179 91.0286 482.507 94.8471C486.911 98.6143 489.39 103.083 489.39 108.15C489.39 112.681 487.624 116.682 483.573 119.467C479.892 122.092 475.16 123.175 469.929 123.175C469.713 123.175 469.499 123.174 469.286 123.17C472.46 124.608 475.311 126.207 477.821 127.978C483.956 132.204 486.928 138.067 486.928 145.075C486.928 154.208 481.742 161.38 472.172 166.337C462.973 171.171 451.012 173.4 436.691 173.4C424.21 173.4 413.75 171.655 405.683 167.818C397.592 163.97 392.609 158.452 392.609 151.2C392.609 146.72 394.426 142.79 398.468 140.03Z" fill="#80380E"/>
<path fill-rule="evenodd" clip-rule="evenodd" d="M387.188 106.05C393.89 103.833 397.241 99.6917 397.241 93.625C397.241 87.675 394.232 83.825 388.214 82.075C383.097 80.5527 375.497 79.7366 365.412 79.6269C363.904 79.6105 362.34 79.6098 360.721 79.625C360.758 78.252 360.77 76.9185 360.757 75.6244C360.674 67.3524 359.567 60.6942 357.438 55.65C355.113 49.8167 349.984 46.9 342.051 46.9C334.254 46.9 328.851 50.05 325.842 56.35C322.833 62.5333 321.123 70.2917 320.713 79.625C310.455 79.7417 302.59 80.9083 297.119 83.125C291.647 85.225 288.912 89.425 288.912 95.725C288.912 100.742 291.784 104.242 297.529 106.225C303.41 108.092 311.139 109.142 320.713 109.375C320.713 128.508 322.081 141.517 324.816 148.4C327.415 154.817 332.203 159.95 339.178 163.8C346.154 167.533 353.472 169.4 361.131 169.4C369.475 169.4 376.04 168.292 380.828 166.075C385.615 163.858 388.008 160.767 388.008 156.8C388.008 153.3 387.119 150.442 385.341 148.225C383.563 145.892 381.101 144.433 377.955 143.85C376.451 143.617 375.083 143.442 373.852 143.325C372.758 143.092 371.732 142.917 370.774 142.8C367.902 142.567 365.713 142.158 364.209 141.575C362.841 140.992 361.815 139.708 361.131 137.725C360.037 134.925 359.49 130.2 359.49 123.55C359.49 117.017 359.558 112.292 359.695 109.375C371.321 109.258 380.486 108.15 387.188 106.05ZM364.263 113.277C364.208 115.938 364.18 119.358 364.18 123.55C364.18 130.172 364.746 134.326 365.58 136.46L365.607 136.528L365.63 136.596C365.877 137.312 366.125 137.717 366.288 137.922C366.321 137.962 366.347 137.991 366.367 138.012C367.226 138.304 368.762 138.618 371.219 138.818L371.329 138.827L371.438 138.84C372.482 138.968 373.565 139.149 374.682 139.38C375.955 139.508 377.327 139.687 378.794 139.915L378.873 139.927L378.951 139.941C383.305 140.749 386.803 142.824 389.243 146.006C391.673 149.055 392.698 152.753 392.698 156.8C392.698 162.513 389.052 166.818 383.065 169.59C377.321 172.25 369.877 173.4 361.131 173.4C352.523 173.4 344.35 171.29 336.686 167.188L336.658 167.173L336.631 167.158C328.817 162.846 323.341 157.006 320.384 149.706L320.379 149.695L320.375 149.684C317.564 142.611 316.213 130.285 316.042 113.197C308.163 112.768 301.408 111.724 295.894 109.974L295.831 109.954L295.769 109.933C292.257 108.72 289.291 106.925 287.224 104.406C285.145 101.873 284.222 98.9072 284.222 95.725C284.222 92.1003 285.007 88.7583 286.864 85.9074C288.748 83.0156 291.577 80.8744 295.149 79.4946C300.601 77.2948 307.725 76.1112 316.264 75.7426C316.942 67.6968 318.652 60.6964 321.505 54.8295C323.28 51.1183 325.896 48.0645 329.505 45.9602C333.125 43.8494 337.392 42.9 342.051 42.9C346.68 42.9 350.92 43.7529 354.449 45.7593C358.003 47.7805 360.427 50.7409 361.864 54.3272C364.229 59.946 365.364 67.0973 365.447 75.6267C375.735 75.7369 383.931 76.5672 389.743 78.2937C393.547 79.4025 396.718 81.2818 398.886 84.0562C401.033 86.8028 401.931 90.0844 401.931 93.625C401.931 97.3003 400.906 100.687 398.587 103.553C396.271 106.416 392.917 108.445 388.883 109.779L388.844 109.792L388.805 109.805C382.349 111.827 374.114 112.943 364.263 113.277Z" fill="#80380E"/>
<path fill-rule="evenodd" clip-rule="evenodd" d="M221.158 164.325C228.954 167.708 237.913 169.4 248.035 169.4C259.661 169.4 268.073 168.117 273.271 165.55C278.468 162.867 281.067 159.717 281.067 156.1C281.067 153.883 280.11 152.133 278.195 150.85C276.417 149.567 274.023 148.925 271.014 148.925C269.509 148.925 267.936 149.1 266.295 149.45C261.918 150.267 257.815 150.675 253.985 150.675C248.317 150.675 243.611 149.644 239.867 147.582C237.377 146.211 235.312 144.384 233.673 142.1C236.076 142.84 238.739 143.4 241.663 143.779C244.731 144.176 248.086 144.375 251.728 144.375C262.397 144.375 271.561 142.392 279.221 138.425C287.017 134.342 290.915 127.925 290.915 119.175C290.915 113.808 289.137 108.675 285.581 103.775C282.025 98.7583 276.895 94.7333 270.193 91.7C263.491 88.6667 255.763 87.15 247.009 87.15C237.298 87.15 228.612 89.075 220.953 92.925C213.293 96.775 207.275 101.908 202.898 108.325C198.658 114.742 196.538 121.742 196.538 129.325C196.538 137.025 198.658 143.967 202.898 150.15C207.275 156.217 213.361 160.942 221.158 164.325ZM273.9 145.096C276.609 144.201 279.195 143.118 281.655 141.844L281.665 141.839L281.675 141.834C291.05 136.923 295.605 129.115 295.605 119.175C295.605 113.015 293.552 107.165 289.58 101.686C285.541 95.9965 279.754 91.4989 272.391 88.1666C264.915 84.7827 256.411 83.15 247.009 83.15C236.54 83.15 227.019 85.2332 218.572 89.4789C210.235 93.6691 203.635 99.291 198.844 106.313L198.828 106.337L198.812 106.361C194.164 113.395 191.848 121.075 191.848 129.325C191.848 137.68 194.158 145.328 198.85 152.17L198.876 152.208L198.904 152.246C203.755 158.97 210.504 164.19 219.031 167.89C227.583 171.601 237.291 173.4 248.035 173.4C259.846 173.4 269.307 172.129 275.62 169.012L275.66 168.992L275.699 168.972C281.633 165.908 285.757 161.673 285.757 156.1C285.757 152.775 284.245 149.845 281.159 147.75C279.062 146.256 276.574 145.427 273.9 145.096ZM239.213 124.425C237.161 123.608 235.52 122.383 234.289 120.75C234.289 118.417 235.315 116.317 237.366 114.45C239.555 112.467 242.495 111.475 246.189 111.475C249.882 111.475 252.686 112.233 254.6 113.75C256.652 115.267 257.678 117.075 257.678 119.175C257.678 121.042 256.515 122.558 254.19 123.725C252.002 124.892 249.403 125.475 246.394 125.475C243.795 125.475 241.401 125.125 239.213 124.425ZM241.038 120.736C242.601 121.214 244.372 121.475 246.394 121.475C248.672 121.475 250.378 121.04 251.705 120.333L251.758 120.305L251.812 120.277C252.516 119.924 252.787 119.646 252.881 119.524C252.948 119.436 252.988 119.356 252.988 119.175C252.988 118.363 252.672 117.617 251.529 116.773L251.468 116.728L251.409 116.681C250.664 116.091 249.187 115.475 246.189 115.475C243.572 115.475 241.948 116.137 240.787 117.186C239.898 117.995 239.387 118.778 239.147 119.573C239.69 120.048 240.315 120.431 241.038 120.736Z" fill="#80380E"/>
<path fill-rule="evenodd" clip-rule="evenodd" d="M102.96 195.475C108.021 198.042 114.518 199.325 122.451 199.325C140.642 199.325 155.483 194.6 166.973 185.15C178.462 175.7 185.233 162.75 187.284 146.3C188.105 140.467 188.515 134.283 188.515 127.75C188.515 113.867 186.464 102.2 182.36 92.75C178.394 83.3 171.965 78.575 163.074 78.575C157.74 78.575 153.705 79.45 150.969 81.2C148.371 82.95 146.524 85.4 145.43 88.55C142.968 88.0833 139.89 87.675 136.197 87.325C132.641 86.975 129.495 86.8 126.759 86.8C118.553 86.8 110.688 88.55 103.165 92.05C95.6421 95.55 89.487 100.625 84.6997 107.275C80.0493 113.925 77.724 121.8 77.724 130.9C77.724 136.383 79.3654 141.983 82.6481 147.7C85.9308 153.3 91.2652 158.025 98.6512 161.875C106.174 165.725 115.749 167.65 127.375 167.65C131.889 167.65 136.129 167.3 140.095 166.6C140.243 166.574 140.39 166.548 140.535 166.521C144.29 165.835 147.221 164.986 149.328 163.975C148.428 166.607 146.018 168.723 142.098 170.324C141.847 170.426 141.59 170.527 141.326 170.625C137.086 172.375 132.025 173.25 126.144 173.25C123.819 173.25 121.288 173.075 118.553 172.725C116.364 172.492 114.791 172.375 113.834 172.375C108.499 172.375 104.054 173.542 100.498 175.875C97.0783 178.325 95.3685 181.475 95.3685 185.325C95.3685 189.642 97.8989 193.025 102.96 195.475ZM100.604 198.934C94.3641 195.901 90.679 191.31 90.679 185.325C90.679 180.308 92.9881 176.032 97.4815 172.812L97.5586 172.757L97.6385 172.705C100.228 171.005 103.14 169.833 106.314 169.141C102.694 168.161 99.3306 166.887 96.2385 165.305L96.2221 165.297L96.2059 165.288C88.2061 161.118 82.1951 155.872 78.4536 149.489L78.445 149.474L78.4365 149.459C74.8898 143.283 73.0344 137.084 73.0344 130.9C73.0344 121.206 75.5177 112.597 80.6722 105.226L80.6877 105.204L80.7034 105.182C85.8891 97.9785 92.629 92.3955 100.919 88.5384C109.1 84.7326 117.733 82.8 126.759 82.8C129.717 82.8 133.045 82.9885 136.725 83.3504C138.808 83.5479 140.731 83.7663 142.485 84.0073C143.836 81.6753 145.68 79.6655 148.063 78.0605L148.109 78.0298L148.156 78C152.044 75.5122 157.257 74.575 163.074 74.575C168.585 74.575 173.516 76.0687 177.625 79.0886C181.64 82.0395 184.611 86.2534 186.766 91.3799C191.115 101.404 193.205 113.568 193.205 127.75C193.205 134.416 192.787 140.75 191.944 146.75C189.798 163.913 182.664 177.8 170.228 188.029C157.74 198.3 141.673 203.325 122.451 203.325C113.976 203.325 106.592 201.96 100.604 198.934ZM141.121 137.55C137.975 140.117 134.282 141.4 130.042 141.4C125.802 141.4 122.109 140.117 118.963 137.55C115.954 134.867 114.449 131.717 114.449 128.1C114.449 124.483 115.954 121.333 118.963 118.65C122.109 115.967 125.802 114.625 130.042 114.625C134.282 114.625 137.975 115.967 141.121 118.65C144.267 121.333 145.84 124.483 145.84 128.1C145.84 131.717 144.267 134.867 141.121 137.55ZM137.842 134.69C135.553 136.545 133.023 137.4 130.042 137.4C127.078 137.4 124.559 136.554 122.28 134.721C120.131 132.777 119.139 130.628 119.139 128.1C119.139 125.558 120.142 123.4 122.316 121.447C124.62 119.495 127.128 118.625 130.042 118.625C132.972 118.625 135.491 119.504 137.805 121.478C140.12 123.453 141.151 125.601 141.151 128.1C141.151 130.586 140.131 132.724 137.842 134.69Z" fill="#80380E"/>
</svg>
