<svg width="1069" height="217" viewBox="0 0 1069 217" fill="none" xmlns="http://www.w3.org/2000/svg">
<rect x="1.5" y="1.5" width="1062" height="208" rx="62.5" fill="#DF7D21" stroke="#80380E" stroke-width="3"/>
<rect x="6.5" y="16.5" width="1061" height="199" rx="62.5" fill="#FFA459" stroke="#80380E" stroke-width="3"/>
<g filter="url(#filter0_d_180_65)">
<mask id="path-3-outside-1_180_65" maskUnits="userSpaceOnUse" x="25.8506" y="43.5" width="1023" height="129" fill="black">
<rect fill="white" x="25.8506" y="43.5" width="1023" height="129"/>
<path d="M92.0256 168.825C78.7256 168.825 67.3506 166.492 57.9006 161.825C48.4506 157.158 41.2173 150.508 36.2006 141.875C31.3006 133.125 28.8506 122.8 28.8506 110.9C28.8506 96.6667 31.8256 84.7083 37.7756 75.025C43.8423 65.3417 51.6589 58.1667 61.2256 53.5C70.7923 48.8333 80.8256 46.5 91.3256 46.5C100.659 46.5 108.884 47.9 116.001 50.7C123.117 53.5 128.601 57.175 132.451 61.725C136.301 66.275 138.226 71.0583 138.226 76.075C138.226 83.3083 136.359 88.5 132.626 91.65C128.892 94.6833 124.284 96.2 118.801 96.2C116.234 96.2 113.959 95.9667 111.976 95.5C110.109 95.0333 108.126 94.3917 106.026 93.575C103.692 92.7583 101.592 92.175 99.7256 91.825C97.9756 91.3583 95.7589 91.125 93.0756 91.125C85.3756 91.125 79.3089 93.4583 74.8756 98.125C70.4423 102.675 68.2256 109.15 68.2256 117.55C68.2256 124.667 70.3839 130.15 74.7006 134C79.0173 137.85 84.3839 139.775 90.8006 139.775C94.4173 139.775 97.5673 139.308 100.251 138.375C102.934 137.442 104.976 136.392 106.376 135.225C107.776 134.058 108.476 133.125 108.476 132.425C99.9589 132.425 93.4839 131.433 89.0506 129.45C84.6173 127.467 82.4006 124.025 82.4006 119.125C82.4006 114.225 84.0923 110.433 87.4756 107.75C90.8589 104.95 96.5756 103.55 104.626 103.55C112.909 103.55 119.384 104.542 124.051 106.525C128.717 108.392 132.042 111.367 134.026 115.45C136.009 119.417 137.001 124.725 137.001 131.375C137.001 138.142 134.959 144.383 130.876 150.1C126.909 155.817 121.426 160.367 114.426 163.75C107.542 167.133 100.076 168.825 92.0256 168.825Z"/>
<path d="M230.848 141C236.448 142.75 239.248 146.425 239.248 152.025C239.248 157.275 236.565 161.417 231.198 164.45C225.832 167.483 216.557 169 203.373 169C186.923 169 172.807 165.033 161.023 157.1C149.357 149.167 143.523 133.417 143.523 109.85C143.523 97.95 145.565 87.2167 149.648 77.65C153.732 68.0833 159.798 60.5 167.848 54.9C176.015 49.3 185.99 46.5 197.773 46.5C213.523 46.5 224.607 48.95 231.023 53.85C237.44 58.6333 240.648 64.525 240.648 71.525C240.648 74.7917 239.832 77.825 238.198 80.625C236.565 83.3083 234.115 85.4083 230.848 86.925C228.048 88.325 224.432 89.025 219.998 89.025L215.273 88.85C214.34 88.7333 212.998 88.675 211.248 88.675C205.182 88.675 200.398 89.7833 196.898 92C193.398 94.1 191.007 97.3667 189.723 101.8C194.623 101.567 199.057 101.45 203.023 101.45C214.807 101.45 222.448 101.8 225.948 102.5C229.915 103.317 232.948 104.892 235.048 107.225C237.265 109.558 238.373 112.3 238.373 115.45C238.373 118.6 237.323 121.342 235.223 123.675C233.123 125.892 229.973 127.408 225.773 128.225C222.507 128.925 214.573 129.275 201.973 129.275C196.84 129.275 193.223 129.217 191.123 129.1C194.74 136.8 201.507 140.65 211.423 140.65C212.007 140.65 213.348 140.533 215.448 140.3C218.248 140.067 220.64 139.95 222.623 139.95C226.007 139.95 228.748 140.3 230.848 141Z"/>
<path d="M371.496 72.575C371.496 80.275 368.288 85.875 361.871 89.375C355.571 92.7583 345.246 94.8 330.896 95.5C331.363 101.1 331.596 108.333 331.596 117.2C331.596 129.567 330.896 139.483 329.496 146.95C328.213 154.3 325.938 159.783 322.671 163.4C319.405 166.9 314.855 168.65 309.021 168.65C303.305 168.65 298.93 166.783 295.896 163.05C292.863 159.317 290.763 153.775 289.596 146.425C288.43 139.075 287.846 129.333 287.846 117.2C287.846 109.033 288.021 101.8 288.371 95.5C278.688 95.0333 270.871 94.0417 264.921 92.525C259.088 90.8917 254.771 88.5 251.971 85.35C249.171 82.2 247.771 77.9417 247.771 72.575C247.771 66.0417 249.988 60.9083 254.421 57.175C258.855 53.4417 265.505 50.8167 274.371 49.3C283.238 47.7833 294.846 47.025 309.196 47.025C323.663 47.025 335.388 47.7833 344.371 49.3C353.355 50.8167 360.121 53.4417 364.671 57.175C369.221 60.9083 371.496 66.0417 371.496 72.575Z"/>
<path d="M420.945 169.175C413.245 169.175 405.837 168.125 398.72 166.025C391.72 163.808 386.003 160.775 381.57 156.925C377.137 152.958 374.92 148.467 374.92 143.45C374.92 138.667 376.378 134.875 379.295 132.075C382.212 129.275 385.887 127.875 390.32 127.875C393.237 127.875 395.745 128.283 397.845 129.1C400.062 129.8 402.453 130.85 405.02 132.25C406.887 133.183 408.462 133.942 409.745 134.525C411.145 134.992 412.603 135.225 414.12 135.225C417.97 135.225 419.895 133.708 419.895 130.675C419.895 129.508 419.078 128.517 417.445 127.7C415.812 126.767 413.07 125.542 409.22 124.025C402.337 121.342 396.737 118.717 392.42 116.15C385.77 112.183 381.162 107.867 378.595 103.2C376.145 98.5333 374.92 92.7 374.92 85.7C374.92 78.9333 377.078 72.575 381.395 66.625C385.712 60.5583 391.603 55.7167 399.07 52.1C406.537 48.4833 414.703 46.675 423.57 46.675C432.203 46.675 440.078 48.0167 447.195 50.7C454.428 53.2667 460.087 56.8833 464.17 61.55C468.37 66.1 470.47 71.175 470.47 76.775C470.47 83.1917 468.545 88.0333 464.695 91.3C460.962 94.45 456.762 96.025 452.095 96.025C448.245 96.025 445.328 95.7917 443.345 95.325C441.478 94.8583 439.612 94.2167 437.745 93.4C436.228 92.8167 434.945 92.4083 433.895 92.175C432.845 91.825 431.387 91.65 429.52 91.65C428.003 91.65 426.545 92.175 425.145 93.225C423.862 94.1583 423.22 95.5 423.22 97.25C423.22 98.5333 423.978 99.6417 425.495 100.575C427.012 101.392 428.762 102.15 430.745 102.85C432.728 103.55 434.128 104.075 434.945 104.425C445.795 108.392 453.787 112.942 458.92 118.075C464.053 123.092 466.62 129.625 466.62 137.675C466.62 147.592 462.595 155.35 454.545 160.95C446.612 166.433 435.412 169.175 420.945 169.175Z"/>
<path d="M558.934 169.35C551.117 169.35 544.817 165.558 540.034 157.975C535.367 150.275 532.625 139.892 531.809 126.825C531.692 124.958 531.634 122.217 531.634 118.6C531.634 104.483 533.967 92 538.634 81.15C543.3 70.1833 549.892 61.725 558.409 55.775C567.042 49.7083 577.075 46.675 588.509 46.675C599.942 46.675 609.917 49.7083 618.434 55.775C627.067 61.725 633.659 70.125 638.209 80.975C642.875 91.825 645.209 104.367 645.209 118.6C645.209 122.217 645.15 124.958 645.034 126.825C644.217 140.125 641.475 150.508 636.809 157.975C632.142 165.442 625.842 169.175 617.909 169.175C611.492 169.175 607 167.425 604.434 163.925C601.984 160.425 600.759 156.167 600.759 151.15C600.759 148.817 600.934 146.775 601.284 145.025C595.217 145.258 589.85 145.375 585.184 145.375C582.267 145.375 579.059 145.258 575.559 145.025C575.909 146.775 576.084 148.817 576.084 151.15C576.084 156.283 574.8 160.6 572.234 164.1C569.784 167.6 565.35 169.35 558.934 169.35ZM574.334 113.875C580.634 113.642 585.242 113.525 588.159 113.525C591.309 113.525 595.917 113.642 601.984 113.875C602.217 112.592 602.334 110.667 602.334 108.1C602.334 102.617 601.167 98.1833 598.834 94.8C596.5 91.3 592.884 89.55 587.984 89.55C583.2 89.55 579.642 91.2417 577.309 94.625C574.975 98.0083 573.809 102.383 573.809 107.75C573.809 109.733 573.984 111.775 574.334 113.875Z"/>
<path d="M816.713 67.325C816.713 73.275 814.788 77.7667 810.938 80.8C807.088 83.8333 801.546 85.9333 794.313 87.1C794.663 93.1667 794.838 100.633 794.838 109.5C794.838 129.333 790.93 144.208 783.113 154.125C775.296 164.042 763.28 169 747.063 169C739.13 169 732.071 167.425 725.888 164.275C719.705 161.008 714.921 156.692 711.538 151.325C708.155 145.958 706.463 140.242 706.463 134.175C706.463 128.458 708.038 123.967 711.188 120.7C714.455 117.433 718.246 115.8 722.563 115.8C726.646 115.8 729.621 116.617 731.488 118.25C733.471 119.767 735.221 121.983 736.738 124.9C738.021 127.117 739.188 128.75 740.238 129.8C741.405 130.85 743.038 131.375 745.138 131.375C748.988 131.375 751.438 129.45 752.488 125.6C753.655 121.75 754.238 115.217 754.238 106V87.975C743.855 87.5083 735.746 85.7583 729.913 82.725C724.196 79.6917 721.338 74.5583 721.338 67.325C721.338 61.1417 723.438 56.5333 727.638 53.5C731.955 50.4667 737.38 48.5417 743.913 47.725C750.563 46.9083 758.963 46.5 769.113 46.5C779.263 46.5 787.605 46.9083 794.138 47.725C800.671 48.5417 806.038 50.4667 810.238 53.5C814.555 56.5333 816.713 61.1417 816.713 67.325Z"/>
<path d="M874.658 169.175C864.042 169.292 854.183 166.667 845.083 161.3C836.1 155.933 828.867 148.583 823.383 139.25C818.017 129.8 815.217 119.358 814.983 107.925C814.867 96.9583 817.433 86.8083 822.683 77.475C827.933 68.1417 835.167 60.7333 844.383 55.25C853.6 49.65 863.692 46.85 874.658 46.85C885.392 46.7333 895.308 49.4167 904.408 54.9C913.625 60.3833 920.917 67.9083 926.283 77.475C931.65 87.0417 934.333 97.6 934.333 109.15C934.333 120 931.65 129.975 926.283 139.075C920.917 148.175 913.625 155.408 904.408 160.775C895.308 166.142 885.392 168.942 874.658 169.175ZM875.183 135.05C880.55 135.05 885.1 133.125 888.833 129.275C892.683 125.425 894.55 120.408 894.433 114.225C894.433 107.925 892.567 102.85 888.833 99C885.1 95.15 880.55 93.225 875.183 93.225C869.817 93.225 865.267 95.15 861.533 99C857.8 102.85 855.933 107.925 855.933 114.225C855.933 120.408 857.8 125.425 861.533 129.275C865.267 133.125 869.817 135.05 875.183 135.05Z"/>
<path d="M997.664 168.825C978.298 168.708 963.773 163.925 954.089 154.475C944.523 145.025 939.739 129.683 939.739 108.45C939.739 89.2 944.406 74.0917 953.739 63.125C963.073 52.0417 976.256 46.5 993.289 46.5C1003.79 46.5 1012.95 48.075 1020.76 51.225C1028.58 54.375 1034.59 58.8667 1038.79 64.7C1042.99 70.5333 1045.09 77.4167 1045.09 85.35C1045.09 91.65 1043.69 97.25 1040.89 102.15C1038.21 107.05 1034.18 111.425 1028.81 115.275C1033.13 115.975 1036.86 118.308 1040.01 122.275C1043.28 126.242 1044.91 130.85 1044.91 136.1C1044.91 141.7 1043.4 147.008 1040.36 152.025C1037.45 156.925 1032.43 160.95 1025.31 164.1C1018.31 167.25 1009.1 168.825 997.664 168.825ZM985.589 103.55C987.689 104.6 990.314 105.125 993.464 105.125C997.198 105.125 1000.41 104.25 1003.09 102.5C1005.89 100.633 1007.29 97.8917 1007.29 94.275C1007.29 90.775 1005.89 88.15 1003.09 86.4C1000.41 84.5333 997.139 83.6 993.289 83.6C990.256 83.6 987.689 84.125 985.589 85.175C983.956 85.875 982.731 87.1 981.914 88.85C981.098 90.6 980.689 92.4667 980.689 94.45C980.689 96.4333 981.098 98.3 981.914 100.05C982.731 101.683 983.956 102.85 985.589 103.55ZM985.589 144.5C987.806 145.433 990.431 145.9 993.464 145.9C997.198 145.9 1000.41 145.142 1003.09 143.625C1005.89 141.992 1007.29 139.6 1007.29 136.45C1007.29 133.417 1005.89 131.083 1003.09 129.45C1000.29 127.817 997.023 127 993.289 127C990.373 127 987.806 127.467 985.589 128.4C983.956 129.1 982.731 130.208 981.914 131.725C981.098 133.125 980.689 134.7 980.689 136.45C980.689 138.2 981.098 139.833 981.914 141.35C982.731 142.75 983.956 143.8 985.589 144.5Z"/>
</mask>
<path d="M92.0256 168.825C78.7256 168.825 67.3506 166.492 57.9006 161.825C48.4506 157.158 41.2173 150.508 36.2006 141.875C31.3006 133.125 28.8506 122.8 28.8506 110.9C28.8506 96.6667 31.8256 84.7083 37.7756 75.025C43.8423 65.3417 51.6589 58.1667 61.2256 53.5C70.7923 48.8333 80.8256 46.5 91.3256 46.5C100.659 46.5 108.884 47.9 116.001 50.7C123.117 53.5 128.601 57.175 132.451 61.725C136.301 66.275 138.226 71.0583 138.226 76.075C138.226 83.3083 136.359 88.5 132.626 91.65C128.892 94.6833 124.284 96.2 118.801 96.2C116.234 96.2 113.959 95.9667 111.976 95.5C110.109 95.0333 108.126 94.3917 106.026 93.575C103.692 92.7583 101.592 92.175 99.7256 91.825C97.9756 91.3583 95.7589 91.125 93.0756 91.125C85.3756 91.125 79.3089 93.4583 74.8756 98.125C70.4423 102.675 68.2256 109.15 68.2256 117.55C68.2256 124.667 70.3839 130.15 74.7006 134C79.0173 137.85 84.3839 139.775 90.8006 139.775C94.4173 139.775 97.5673 139.308 100.251 138.375C102.934 137.442 104.976 136.392 106.376 135.225C107.776 134.058 108.476 133.125 108.476 132.425C99.9589 132.425 93.4839 131.433 89.0506 129.45C84.6173 127.467 82.4006 124.025 82.4006 119.125C82.4006 114.225 84.0923 110.433 87.4756 107.75C90.8589 104.95 96.5756 103.55 104.626 103.55C112.909 103.55 119.384 104.542 124.051 106.525C128.717 108.392 132.042 111.367 134.026 115.45C136.009 119.417 137.001 124.725 137.001 131.375C137.001 138.142 134.959 144.383 130.876 150.1C126.909 155.817 121.426 160.367 114.426 163.75C107.542 167.133 100.076 168.825 92.0256 168.825Z" fill="#AA9BCB"/>
<path d="M230.848 141C236.448 142.75 239.248 146.425 239.248 152.025C239.248 157.275 236.565 161.417 231.198 164.45C225.832 167.483 216.557 169 203.373 169C186.923 169 172.807 165.033 161.023 157.1C149.357 149.167 143.523 133.417 143.523 109.85C143.523 97.95 145.565 87.2167 149.648 77.65C153.732 68.0833 159.798 60.5 167.848 54.9C176.015 49.3 185.99 46.5 197.773 46.5C213.523 46.5 224.607 48.95 231.023 53.85C237.44 58.6333 240.648 64.525 240.648 71.525C240.648 74.7917 239.832 77.825 238.198 80.625C236.565 83.3083 234.115 85.4083 230.848 86.925C228.048 88.325 224.432 89.025 219.998 89.025L215.273 88.85C214.34 88.7333 212.998 88.675 211.248 88.675C205.182 88.675 200.398 89.7833 196.898 92C193.398 94.1 191.007 97.3667 189.723 101.8C194.623 101.567 199.057 101.45 203.023 101.45C214.807 101.45 222.448 101.8 225.948 102.5C229.915 103.317 232.948 104.892 235.048 107.225C237.265 109.558 238.373 112.3 238.373 115.45C238.373 118.6 237.323 121.342 235.223 123.675C233.123 125.892 229.973 127.408 225.773 128.225C222.507 128.925 214.573 129.275 201.973 129.275C196.84 129.275 193.223 129.217 191.123 129.1C194.74 136.8 201.507 140.65 211.423 140.65C212.007 140.65 213.348 140.533 215.448 140.3C218.248 140.067 220.64 139.95 222.623 139.95C226.007 139.95 228.748 140.3 230.848 141Z" fill="#AA9BCB"/>
<path d="M371.496 72.575C371.496 80.275 368.288 85.875 361.871 89.375C355.571 92.7583 345.246 94.8 330.896 95.5C331.363 101.1 331.596 108.333 331.596 117.2C331.596 129.567 330.896 139.483 329.496 146.95C328.213 154.3 325.938 159.783 322.671 163.4C319.405 166.9 314.855 168.65 309.021 168.65C303.305 168.65 298.93 166.783 295.896 163.05C292.863 159.317 290.763 153.775 289.596 146.425C288.43 139.075 287.846 129.333 287.846 117.2C287.846 109.033 288.021 101.8 288.371 95.5C278.688 95.0333 270.871 94.0417 264.921 92.525C259.088 90.8917 254.771 88.5 251.971 85.35C249.171 82.2 247.771 77.9417 247.771 72.575C247.771 66.0417 249.988 60.9083 254.421 57.175C258.855 53.4417 265.505 50.8167 274.371 49.3C283.238 47.7833 294.846 47.025 309.196 47.025C323.663 47.025 335.388 47.7833 344.371 49.3C353.355 50.8167 360.121 53.4417 364.671 57.175C369.221 60.9083 371.496 66.0417 371.496 72.575Z" fill="#AA9BCB"/>
<path d="M420.945 169.175C413.245 169.175 405.837 168.125 398.72 166.025C391.72 163.808 386.003 160.775 381.57 156.925C377.137 152.958 374.92 148.467 374.92 143.45C374.92 138.667 376.378 134.875 379.295 132.075C382.212 129.275 385.887 127.875 390.32 127.875C393.237 127.875 395.745 128.283 397.845 129.1C400.062 129.8 402.453 130.85 405.02 132.25C406.887 133.183 408.462 133.942 409.745 134.525C411.145 134.992 412.603 135.225 414.12 135.225C417.97 135.225 419.895 133.708 419.895 130.675C419.895 129.508 419.078 128.517 417.445 127.7C415.812 126.767 413.07 125.542 409.22 124.025C402.337 121.342 396.737 118.717 392.42 116.15C385.77 112.183 381.162 107.867 378.595 103.2C376.145 98.5333 374.92 92.7 374.92 85.7C374.92 78.9333 377.078 72.575 381.395 66.625C385.712 60.5583 391.603 55.7167 399.07 52.1C406.537 48.4833 414.703 46.675 423.57 46.675C432.203 46.675 440.078 48.0167 447.195 50.7C454.428 53.2667 460.087 56.8833 464.17 61.55C468.37 66.1 470.47 71.175 470.47 76.775C470.47 83.1917 468.545 88.0333 464.695 91.3C460.962 94.45 456.762 96.025 452.095 96.025C448.245 96.025 445.328 95.7917 443.345 95.325C441.478 94.8583 439.612 94.2167 437.745 93.4C436.228 92.8167 434.945 92.4083 433.895 92.175C432.845 91.825 431.387 91.65 429.52 91.65C428.003 91.65 426.545 92.175 425.145 93.225C423.862 94.1583 423.22 95.5 423.22 97.25C423.22 98.5333 423.978 99.6417 425.495 100.575C427.012 101.392 428.762 102.15 430.745 102.85C432.728 103.55 434.128 104.075 434.945 104.425C445.795 108.392 453.787 112.942 458.92 118.075C464.053 123.092 466.62 129.625 466.62 137.675C466.62 147.592 462.595 155.35 454.545 160.95C446.612 166.433 435.412 169.175 420.945 169.175Z" fill="#AA9BCB"/>
<path d="M558.934 169.35C551.117 169.35 544.817 165.558 540.034 157.975C535.367 150.275 532.625 139.892 531.809 126.825C531.692 124.958 531.634 122.217 531.634 118.6C531.634 104.483 533.967 92 538.634 81.15C543.3 70.1833 549.892 61.725 558.409 55.775C567.042 49.7083 577.075 46.675 588.509 46.675C599.942 46.675 609.917 49.7083 618.434 55.775C627.067 61.725 633.659 70.125 638.209 80.975C642.875 91.825 645.209 104.367 645.209 118.6C645.209 122.217 645.15 124.958 645.034 126.825C644.217 140.125 641.475 150.508 636.809 157.975C632.142 165.442 625.842 169.175 617.909 169.175C611.492 169.175 607 167.425 604.434 163.925C601.984 160.425 600.759 156.167 600.759 151.15C600.759 148.817 600.934 146.775 601.284 145.025C595.217 145.258 589.85 145.375 585.184 145.375C582.267 145.375 579.059 145.258 575.559 145.025C575.909 146.775 576.084 148.817 576.084 151.15C576.084 156.283 574.8 160.6 572.234 164.1C569.784 167.6 565.35 169.35 558.934 169.35ZM574.334 113.875C580.634 113.642 585.242 113.525 588.159 113.525C591.309 113.525 595.917 113.642 601.984 113.875C602.217 112.592 602.334 110.667 602.334 108.1C602.334 102.617 601.167 98.1833 598.834 94.8C596.5 91.3 592.884 89.55 587.984 89.55C583.2 89.55 579.642 91.2417 577.309 94.625C574.975 98.0083 573.809 102.383 573.809 107.75C573.809 109.733 573.984 111.775 574.334 113.875Z" fill="#AA9BCB"/>
<path d="M816.713 67.325C816.713 73.275 814.788 77.7667 810.938 80.8C807.088 83.8333 801.546 85.9333 794.313 87.1C794.663 93.1667 794.838 100.633 794.838 109.5C794.838 129.333 790.93 144.208 783.113 154.125C775.296 164.042 763.28 169 747.063 169C739.13 169 732.071 167.425 725.888 164.275C719.705 161.008 714.921 156.692 711.538 151.325C708.155 145.958 706.463 140.242 706.463 134.175C706.463 128.458 708.038 123.967 711.188 120.7C714.455 117.433 718.246 115.8 722.563 115.8C726.646 115.8 729.621 116.617 731.488 118.25C733.471 119.767 735.221 121.983 736.738 124.9C738.021 127.117 739.188 128.75 740.238 129.8C741.405 130.85 743.038 131.375 745.138 131.375C748.988 131.375 751.438 129.45 752.488 125.6C753.655 121.75 754.238 115.217 754.238 106V87.975C743.855 87.5083 735.746 85.7583 729.913 82.725C724.196 79.6917 721.338 74.5583 721.338 67.325C721.338 61.1417 723.438 56.5333 727.638 53.5C731.955 50.4667 737.38 48.5417 743.913 47.725C750.563 46.9083 758.963 46.5 769.113 46.5C779.263 46.5 787.605 46.9083 794.138 47.725C800.671 48.5417 806.038 50.4667 810.238 53.5C814.555 56.5333 816.713 61.1417 816.713 67.325Z" fill="#AA9BCB"/>
<path d="M874.658 169.175C864.042 169.292 854.183 166.667 845.083 161.3C836.1 155.933 828.867 148.583 823.383 139.25C818.017 129.8 815.217 119.358 814.983 107.925C814.867 96.9583 817.433 86.8083 822.683 77.475C827.933 68.1417 835.167 60.7333 844.383 55.25C853.6 49.65 863.692 46.85 874.658 46.85C885.392 46.7333 895.308 49.4167 904.408 54.9C913.625 60.3833 920.917 67.9083 926.283 77.475C931.65 87.0417 934.333 97.6 934.333 109.15C934.333 120 931.65 129.975 926.283 139.075C920.917 148.175 913.625 155.408 904.408 160.775C895.308 166.142 885.392 168.942 874.658 169.175ZM875.183 135.05C880.55 135.05 885.1 133.125 888.833 129.275C892.683 125.425 894.55 120.408 894.433 114.225C894.433 107.925 892.567 102.85 888.833 99C885.1 95.15 880.55 93.225 875.183 93.225C869.817 93.225 865.267 95.15 861.533 99C857.8 102.85 855.933 107.925 855.933 114.225C855.933 120.408 857.8 125.425 861.533 129.275C865.267 133.125 869.817 135.05 875.183 135.05Z" fill="#AA9BCB"/>
<path d="M997.664 168.825C978.298 168.708 963.773 163.925 954.089 154.475C944.523 145.025 939.739 129.683 939.739 108.45C939.739 89.2 944.406 74.0917 953.739 63.125C963.073 52.0417 976.256 46.5 993.289 46.5C1003.79 46.5 1012.95 48.075 1020.76 51.225C1028.58 54.375 1034.59 58.8667 1038.79 64.7C1042.99 70.5333 1045.09 77.4167 1045.09 85.35C1045.09 91.65 1043.69 97.25 1040.89 102.15C1038.21 107.05 1034.18 111.425 1028.81 115.275C1033.13 115.975 1036.86 118.308 1040.01 122.275C1043.28 126.242 1044.91 130.85 1044.91 136.1C1044.91 141.7 1043.4 147.008 1040.36 152.025C1037.45 156.925 1032.43 160.95 1025.31 164.1C1018.31 167.25 1009.1 168.825 997.664 168.825ZM985.589 103.55C987.689 104.6 990.314 105.125 993.464 105.125C997.198 105.125 1000.41 104.25 1003.09 102.5C1005.89 100.633 1007.29 97.8917 1007.29 94.275C1007.29 90.775 1005.89 88.15 1003.09 86.4C1000.41 84.5333 997.139 83.6 993.289 83.6C990.256 83.6 987.689 84.125 985.589 85.175C983.956 85.875 982.731 87.1 981.914 88.85C981.098 90.6 980.689 92.4667 980.689 94.45C980.689 96.4333 981.098 98.3 981.914 100.05C982.731 101.683 983.956 102.85 985.589 103.55ZM985.589 144.5C987.806 145.433 990.431 145.9 993.464 145.9C997.198 145.9 1000.41 145.142 1003.09 143.625C1005.89 141.992 1007.29 139.6 1007.29 136.45C1007.29 133.417 1005.89 131.083 1003.09 129.45C1000.29 127.817 997.023 127 993.289 127C990.373 127 987.806 127.467 985.589 128.4C983.956 129.1 982.731 130.208 981.914 131.725C981.098 133.125 980.689 134.7 980.689 136.45C980.689 138.2 981.098 139.833 981.914 141.35C982.731 142.75 983.956 143.8 985.589 144.5Z" fill="#AA9BCB"/>
<path d="M92.0256 168.825C78.7256 168.825 67.3506 166.492 57.9006 161.825C48.4506 157.158 41.2173 150.508 36.2006 141.875C31.3006 133.125 28.8506 122.8 28.8506 110.9C28.8506 96.6667 31.8256 84.7083 37.7756 75.025C43.8423 65.3417 51.6589 58.1667 61.2256 53.5C70.7923 48.8333 80.8256 46.5 91.3256 46.5C100.659 46.5 108.884 47.9 116.001 50.7C123.117 53.5 128.601 57.175 132.451 61.725C136.301 66.275 138.226 71.0583 138.226 76.075C138.226 83.3083 136.359 88.5 132.626 91.65C128.892 94.6833 124.284 96.2 118.801 96.2C116.234 96.2 113.959 95.9667 111.976 95.5C110.109 95.0333 108.126 94.3917 106.026 93.575C103.692 92.7583 101.592 92.175 99.7256 91.825C97.9756 91.3583 95.7589 91.125 93.0756 91.125C85.3756 91.125 79.3089 93.4583 74.8756 98.125C70.4423 102.675 68.2256 109.15 68.2256 117.55C68.2256 124.667 70.3839 130.15 74.7006 134C79.0173 137.85 84.3839 139.775 90.8006 139.775C94.4173 139.775 97.5673 139.308 100.251 138.375C102.934 137.442 104.976 136.392 106.376 135.225C107.776 134.058 108.476 133.125 108.476 132.425C99.9589 132.425 93.4839 131.433 89.0506 129.45C84.6173 127.467 82.4006 124.025 82.4006 119.125C82.4006 114.225 84.0923 110.433 87.4756 107.75C90.8589 104.95 96.5756 103.55 104.626 103.55C112.909 103.55 119.384 104.542 124.051 106.525C128.717 108.392 132.042 111.367 134.026 115.45C136.009 119.417 137.001 124.725 137.001 131.375C137.001 138.142 134.959 144.383 130.876 150.1C126.909 155.817 121.426 160.367 114.426 163.75C107.542 167.133 100.076 168.825 92.0256 168.825Z" stroke="#80380E" stroke-width="6" mask="url(#path-3-outside-1_180_65)"/>
<path d="M230.848 141C236.448 142.75 239.248 146.425 239.248 152.025C239.248 157.275 236.565 161.417 231.198 164.45C225.832 167.483 216.557 169 203.373 169C186.923 169 172.807 165.033 161.023 157.1C149.357 149.167 143.523 133.417 143.523 109.85C143.523 97.95 145.565 87.2167 149.648 77.65C153.732 68.0833 159.798 60.5 167.848 54.9C176.015 49.3 185.99 46.5 197.773 46.5C213.523 46.5 224.607 48.95 231.023 53.85C237.44 58.6333 240.648 64.525 240.648 71.525C240.648 74.7917 239.832 77.825 238.198 80.625C236.565 83.3083 234.115 85.4083 230.848 86.925C228.048 88.325 224.432 89.025 219.998 89.025L215.273 88.85C214.34 88.7333 212.998 88.675 211.248 88.675C205.182 88.675 200.398 89.7833 196.898 92C193.398 94.1 191.007 97.3667 189.723 101.8C194.623 101.567 199.057 101.45 203.023 101.45C214.807 101.45 222.448 101.8 225.948 102.5C229.915 103.317 232.948 104.892 235.048 107.225C237.265 109.558 238.373 112.3 238.373 115.45C238.373 118.6 237.323 121.342 235.223 123.675C233.123 125.892 229.973 127.408 225.773 128.225C222.507 128.925 214.573 129.275 201.973 129.275C196.84 129.275 193.223 129.217 191.123 129.1C194.74 136.8 201.507 140.65 211.423 140.65C212.007 140.65 213.348 140.533 215.448 140.3C218.248 140.067 220.64 139.95 222.623 139.95C226.007 139.95 228.748 140.3 230.848 141Z" stroke="#80380E" stroke-width="6" mask="url(#path-3-outside-1_180_65)"/>
<path d="M371.496 72.575C371.496 80.275 368.288 85.875 361.871 89.375C355.571 92.7583 345.246 94.8 330.896 95.5C331.363 101.1 331.596 108.333 331.596 117.2C331.596 129.567 330.896 139.483 329.496 146.95C328.213 154.3 325.938 159.783 322.671 163.4C319.405 166.9 314.855 168.65 309.021 168.65C303.305 168.65 298.93 166.783 295.896 163.05C292.863 159.317 290.763 153.775 289.596 146.425C288.43 139.075 287.846 129.333 287.846 117.2C287.846 109.033 288.021 101.8 288.371 95.5C278.688 95.0333 270.871 94.0417 264.921 92.525C259.088 90.8917 254.771 88.5 251.971 85.35C249.171 82.2 247.771 77.9417 247.771 72.575C247.771 66.0417 249.988 60.9083 254.421 57.175C258.855 53.4417 265.505 50.8167 274.371 49.3C283.238 47.7833 294.846 47.025 309.196 47.025C323.663 47.025 335.388 47.7833 344.371 49.3C353.355 50.8167 360.121 53.4417 364.671 57.175C369.221 60.9083 371.496 66.0417 371.496 72.575Z" stroke="#80380E" stroke-width="6" mask="url(#path-3-outside-1_180_65)"/>
<path d="M420.945 169.175C413.245 169.175 405.837 168.125 398.72 166.025C391.72 163.808 386.003 160.775 381.57 156.925C377.137 152.958 374.92 148.467 374.92 143.45C374.92 138.667 376.378 134.875 379.295 132.075C382.212 129.275 385.887 127.875 390.32 127.875C393.237 127.875 395.745 128.283 397.845 129.1C400.062 129.8 402.453 130.85 405.02 132.25C406.887 133.183 408.462 133.942 409.745 134.525C411.145 134.992 412.603 135.225 414.12 135.225C417.97 135.225 419.895 133.708 419.895 130.675C419.895 129.508 419.078 128.517 417.445 127.7C415.812 126.767 413.07 125.542 409.22 124.025C402.337 121.342 396.737 118.717 392.42 116.15C385.77 112.183 381.162 107.867 378.595 103.2C376.145 98.5333 374.92 92.7 374.92 85.7C374.92 78.9333 377.078 72.575 381.395 66.625C385.712 60.5583 391.603 55.7167 399.07 52.1C406.537 48.4833 414.703 46.675 423.57 46.675C432.203 46.675 440.078 48.0167 447.195 50.7C454.428 53.2667 460.087 56.8833 464.17 61.55C468.37 66.1 470.47 71.175 470.47 76.775C470.47 83.1917 468.545 88.0333 464.695 91.3C460.962 94.45 456.762 96.025 452.095 96.025C448.245 96.025 445.328 95.7917 443.345 95.325C441.478 94.8583 439.612 94.2167 437.745 93.4C436.228 92.8167 434.945 92.4083 433.895 92.175C432.845 91.825 431.387 91.65 429.52 91.65C428.003 91.65 426.545 92.175 425.145 93.225C423.862 94.1583 423.22 95.5 423.22 97.25C423.22 98.5333 423.978 99.6417 425.495 100.575C427.012 101.392 428.762 102.15 430.745 102.85C432.728 103.55 434.128 104.075 434.945 104.425C445.795 108.392 453.787 112.942 458.92 118.075C464.053 123.092 466.62 129.625 466.62 137.675C466.62 147.592 462.595 155.35 454.545 160.95C446.612 166.433 435.412 169.175 420.945 169.175Z" stroke="#80380E" stroke-width="6" mask="url(#path-3-outside-1_180_65)"/>
<path d="M558.934 169.35C551.117 169.35 544.817 165.558 540.034 157.975C535.367 150.275 532.625 139.892 531.809 126.825C531.692 124.958 531.634 122.217 531.634 118.6C531.634 104.483 533.967 92 538.634 81.15C543.3 70.1833 549.892 61.725 558.409 55.775C567.042 49.7083 577.075 46.675 588.509 46.675C599.942 46.675 609.917 49.7083 618.434 55.775C627.067 61.725 633.659 70.125 638.209 80.975C642.875 91.825 645.209 104.367 645.209 118.6C645.209 122.217 645.15 124.958 645.034 126.825C644.217 140.125 641.475 150.508 636.809 157.975C632.142 165.442 625.842 169.175 617.909 169.175C611.492 169.175 607 167.425 604.434 163.925C601.984 160.425 600.759 156.167 600.759 151.15C600.759 148.817 600.934 146.775 601.284 145.025C595.217 145.258 589.85 145.375 585.184 145.375C582.267 145.375 579.059 145.258 575.559 145.025C575.909 146.775 576.084 148.817 576.084 151.15C576.084 156.283 574.8 160.6 572.234 164.1C569.784 167.6 565.35 169.35 558.934 169.35ZM574.334 113.875C580.634 113.642 585.242 113.525 588.159 113.525C591.309 113.525 595.917 113.642 601.984 113.875C602.217 112.592 602.334 110.667 602.334 108.1C602.334 102.617 601.167 98.1833 598.834 94.8C596.5 91.3 592.884 89.55 587.984 89.55C583.2 89.55 579.642 91.2417 577.309 94.625C574.975 98.0083 573.809 102.383 573.809 107.75C573.809 109.733 573.984 111.775 574.334 113.875Z" stroke="#80380E" stroke-width="6" mask="url(#path-3-outside-1_180_65)"/>
<path d="M816.713 67.325C816.713 73.275 814.788 77.7667 810.938 80.8C807.088 83.8333 801.546 85.9333 794.313 87.1C794.663 93.1667 794.838 100.633 794.838 109.5C794.838 129.333 790.93 144.208 783.113 154.125C775.296 164.042 763.28 169 747.063 169C739.13 169 732.071 167.425 725.888 164.275C719.705 161.008 714.921 156.692 711.538 151.325C708.155 145.958 706.463 140.242 706.463 134.175C706.463 128.458 708.038 123.967 711.188 120.7C714.455 117.433 718.246 115.8 722.563 115.8C726.646 115.8 729.621 116.617 731.488 118.25C733.471 119.767 735.221 121.983 736.738 124.9C738.021 127.117 739.188 128.75 740.238 129.8C741.405 130.85 743.038 131.375 745.138 131.375C748.988 131.375 751.438 129.45 752.488 125.6C753.655 121.75 754.238 115.217 754.238 106V87.975C743.855 87.5083 735.746 85.7583 729.913 82.725C724.196 79.6917 721.338 74.5583 721.338 67.325C721.338 61.1417 723.438 56.5333 727.638 53.5C731.955 50.4667 737.38 48.5417 743.913 47.725C750.563 46.9083 758.963 46.5 769.113 46.5C779.263 46.5 787.605 46.9083 794.138 47.725C800.671 48.5417 806.038 50.4667 810.238 53.5C814.555 56.5333 816.713 61.1417 816.713 67.325Z" stroke="#80380E" stroke-width="6" mask="url(#path-3-outside-1_180_65)"/>
<path d="M874.658 169.175C864.042 169.292 854.183 166.667 845.083 161.3C836.1 155.933 828.867 148.583 823.383 139.25C818.017 129.8 815.217 119.358 814.983 107.925C814.867 96.9583 817.433 86.8083 822.683 77.475C827.933 68.1417 835.167 60.7333 844.383 55.25C853.6 49.65 863.692 46.85 874.658 46.85C885.392 46.7333 895.308 49.4167 904.408 54.9C913.625 60.3833 920.917 67.9083 926.283 77.475C931.65 87.0417 934.333 97.6 934.333 109.15C934.333 120 931.65 129.975 926.283 139.075C920.917 148.175 913.625 155.408 904.408 160.775C895.308 166.142 885.392 168.942 874.658 169.175ZM875.183 135.05C880.55 135.05 885.1 133.125 888.833 129.275C892.683 125.425 894.55 120.408 894.433 114.225C894.433 107.925 892.567 102.85 888.833 99C885.1 95.15 880.55 93.225 875.183 93.225C869.817 93.225 865.267 95.15 861.533 99C857.8 102.85 855.933 107.925 855.933 114.225C855.933 120.408 857.8 125.425 861.533 129.275C865.267 133.125 869.817 135.05 875.183 135.05Z" stroke="#80380E" stroke-width="6" mask="url(#path-3-outside-1_180_65)"/>
<path d="M997.664 168.825C978.298 168.708 963.773 163.925 954.089 154.475C944.523 145.025 939.739 129.683 939.739 108.45C939.739 89.2 944.406 74.0917 953.739 63.125C963.073 52.0417 976.256 46.5 993.289 46.5C1003.79 46.5 1012.95 48.075 1020.76 51.225C1028.58 54.375 1034.59 58.8667 1038.79 64.7C1042.99 70.5333 1045.09 77.4167 1045.09 85.35C1045.09 91.65 1043.69 97.25 1040.89 102.15C1038.21 107.05 1034.18 111.425 1028.81 115.275C1033.13 115.975 1036.86 118.308 1040.01 122.275C1043.28 126.242 1044.91 130.85 1044.91 136.1C1044.91 141.7 1043.4 147.008 1040.36 152.025C1037.45 156.925 1032.43 160.95 1025.31 164.1C1018.31 167.25 1009.1 168.825 997.664 168.825ZM985.589 103.55C987.689 104.6 990.314 105.125 993.464 105.125C997.198 105.125 1000.41 104.25 1003.09 102.5C1005.89 100.633 1007.29 97.8917 1007.29 94.275C1007.29 90.775 1005.89 88.15 1003.09 86.4C1000.41 84.5333 997.139 83.6 993.289 83.6C990.256 83.6 987.689 84.125 985.589 85.175C983.956 85.875 982.731 87.1 981.914 88.85C981.098 90.6 980.689 92.4667 980.689 94.45C980.689 96.4333 981.098 98.3 981.914 100.05C982.731 101.683 983.956 102.85 985.589 103.55ZM985.589 144.5C987.806 145.433 990.431 145.9 993.464 145.9C997.198 145.9 1000.41 145.142 1003.09 143.625C1005.89 141.992 1007.29 139.6 1007.29 136.45C1007.29 133.417 1005.89 131.083 1003.09 129.45C1000.29 127.817 997.023 127 993.289 127C990.373 127 987.806 127.467 985.589 128.4C983.956 129.1 982.731 130.208 981.914 131.725C981.098 133.125 980.689 134.7 980.689 136.45C980.689 138.2 981.098 139.833 981.914 141.35C982.731 142.75 983.956 143.8 985.589 144.5Z" stroke="#80380E" stroke-width="6" mask="url(#path-3-outside-1_180_65)"/>
<mask id="path-4-outside-2_180_65" maskUnits="userSpaceOnUse" x="33" y="54" width="1009" height="129" fill="black">
<rect fill="white" x="33" y="54" width="1009" height="129"/>
<path d="M98.352 179.474C85.2253 179.474 73.9985 177.138 64.6716 172.466C55.3447 167.793 48.2056 161.135 43.2543 152.491C38.4181 143.731 36 133.393 36 121.479C36 107.228 38.9362 95.255 44.8087 85.5598C50.7964 75.8647 58.5112 68.6809 67.9532 64.0086C77.3953 59.3362 87.2979 57 97.6611 57C106.873 57 114.991 58.4017 122.015 61.2051C129.039 64.0086 134.451 67.688 138.25 72.2436C142.05 76.7992 143.95 81.5883 143.95 86.6111C143.95 93.8533 142.108 99.0513 138.423 102.205C134.738 105.242 130.19 106.761 124.778 106.761C122.245 106.761 120 106.527 118.042 106.06C116.2 105.593 114.242 104.95 112.17 104.132C109.867 103.315 107.794 102.731 105.952 102.38C104.225 101.913 102.037 101.679 99.3883 101.679C91.7886 101.679 85.801 104.016 81.4254 108.688C77.0498 113.244 74.8621 119.726 74.8621 128.137C74.8621 135.262 76.9923 140.752 81.2527 144.607C85.5131 148.462 90.8099 150.389 97.143 150.389C100.713 150.389 103.821 149.922 106.47 148.987C109.118 148.053 111.133 147.001 112.515 145.833C113.897 144.665 114.588 143.731 114.588 143.03C106.182 143.03 99.7913 142.037 95.4158 140.051C91.0402 138.066 88.8524 134.62 88.8524 129.714C88.8524 124.808 90.522 121.011 93.8613 118.325C97.2005 115.521 102.843 114.12 110.788 114.12C118.963 114.12 125.354 115.113 129.96 117.098C134.566 118.967 137.847 121.946 139.805 126.034C141.762 130.006 142.741 135.321 142.741 141.979C142.741 148.754 140.726 155.003 136.696 160.726C132.781 166.45 127.369 171.006 120.46 174.393C113.667 177.781 106.297 179.474 98.352 179.474Z"/>
<path d="M235.366 151.615C240.893 153.368 243.657 157.047 243.657 162.654C243.657 167.91 241.009 172.057 235.712 175.094C230.415 178.131 221.261 179.65 208.249 179.65C192.014 179.65 178.081 175.678 166.451 167.735C154.936 159.792 149.179 144.023 149.179 120.427C149.179 108.513 151.194 97.7664 155.224 88.188C159.254 78.6097 165.242 71.0171 173.187 65.4103C181.247 59.8034 191.092 57 202.722 57C218.267 57 229.206 59.453 235.539 64.359C241.872 69.1481 245.039 75.047 245.039 82.0556C245.039 85.3262 244.233 88.3632 242.621 91.1667C241.009 93.8533 238.591 95.9558 235.366 97.4744C232.603 98.8761 229.033 99.5769 224.658 99.5769L219.994 99.4017C219.073 99.2849 217.749 99.2265 216.022 99.2265C210.034 99.2265 205.313 100.336 201.859 102.556C198.404 104.658 196.044 107.929 194.777 112.368C199.613 112.134 203.989 112.017 207.904 112.017C219.534 112.017 227.076 112.368 230.53 113.068C234.445 113.886 237.439 115.463 239.512 117.799C241.699 120.135 242.793 122.88 242.793 126.034C242.793 129.188 241.757 131.933 239.684 134.269C237.612 136.489 234.503 138.007 230.358 138.825C227.133 139.526 219.303 139.876 206.868 139.876C201.801 139.876 198.232 139.818 196.159 139.701C199.728 147.41 206.407 151.265 216.194 151.265C216.77 151.265 218.094 151.148 220.167 150.915C222.931 150.681 225.291 150.564 227.249 150.564C230.588 150.564 233.294 150.915 235.366 151.615Z"/>
<path d="M374.182 83.1068C374.182 90.8162 371.016 96.4231 364.683 99.9274C358.465 103.315 348.274 105.359 334.111 106.06C334.572 111.667 334.802 118.909 334.802 127.786C334.802 140.168 334.111 150.097 332.729 157.573C331.463 164.932 329.217 170.422 325.993 174.043C322.769 177.547 318.278 179.299 312.521 179.299C306.879 179.299 302.561 177.43 299.567 173.692C296.573 169.954 294.501 164.406 293.349 157.047C292.198 149.688 291.622 139.934 291.622 127.786C291.622 119.61 291.795 112.368 292.14 106.06C282.583 105.593 274.868 104.6 268.996 103.081C263.238 101.446 258.978 99.0513 256.214 95.8974C253.451 92.7436 252.069 88.4801 252.069 83.1068C252.069 76.5655 254.257 71.4259 258.632 67.688C263.008 63.9501 269.571 61.3219 278.322 59.8034C287.074 58.2849 298.531 57.5256 312.694 57.5256C326.972 57.5256 338.544 58.2849 347.411 59.8034C356.277 61.3219 362.955 63.9501 367.446 67.688C371.937 71.4259 374.182 76.5655 374.182 83.1068Z"/>
<path d="M422.986 179.825C415.387 179.825 408.075 178.774 401.051 176.671C394.142 174.452 388.5 171.415 384.124 167.56C379.749 163.588 377.561 159.091 377.561 154.068C377.561 149.279 379 145.483 381.879 142.679C384.758 139.876 388.385 138.474 392.76 138.474C395.639 138.474 398.115 138.883 400.187 139.701C402.375 140.402 404.736 141.453 407.269 142.855C409.111 143.789 410.666 144.548 411.932 145.132C413.314 145.6 414.753 145.833 416.25 145.833C420.05 145.833 421.95 144.315 421.95 141.278C421.95 140.11 421.144 139.117 419.532 138.299C417.92 137.365 415.214 136.138 411.414 134.62C404.621 131.933 399.094 129.305 394.833 126.735C388.27 122.764 383.721 118.442 381.188 113.769C378.77 109.097 377.561 103.256 377.561 96.2479C377.561 89.4729 379.691 83.1068 383.952 77.1496C388.212 71.0755 394.027 66.2279 401.396 62.6068C408.766 58.9858 416.826 57.1752 425.577 57.1752C434.098 57.1752 441.871 58.5185 448.895 61.2051C456.034 63.7749 461.618 67.396 465.648 72.0684C469.794 76.6239 471.866 81.7051 471.866 87.312C471.866 93.7365 469.966 98.584 466.167 101.855C462.482 105.009 458.337 106.585 453.731 106.585C449.931 106.585 447.052 106.352 445.095 105.885C443.252 105.417 441.41 104.775 439.568 103.957C438.071 103.373 436.804 102.964 435.768 102.731C434.731 102.38 433.292 102.205 431.45 102.205C429.953 102.205 428.514 102.731 427.132 103.782C425.865 104.717 425.232 106.06 425.232 107.812C425.232 109.097 425.98 110.207 427.477 111.141C428.974 111.959 430.701 112.718 432.659 113.419C434.616 114.12 435.998 114.645 436.804 114.996C447.513 118.967 455.4 123.523 460.467 128.662C465.533 133.685 468.066 140.227 468.066 148.286C468.066 158.215 464.094 165.983 456.149 171.59C448.319 177.08 437.265 179.825 422.986 179.825Z"/>
<path d="M559.178 180C551.463 180 545.245 176.204 540.524 168.611C535.918 160.902 533.212 150.506 532.406 137.423C532.291 135.554 532.233 132.809 532.233 129.188C532.233 115.054 534.536 102.556 539.142 91.6923C543.748 80.7123 550.254 72.2436 558.66 66.2863C567.18 60.2123 577.083 57.1752 588.367 57.1752C599.652 57.1752 609.497 60.2123 617.903 66.2863C626.423 72.2436 632.929 80.6539 637.42 91.5171C642.026 102.38 644.329 114.937 644.329 129.188C644.329 132.809 644.271 135.554 644.156 137.423C643.35 150.739 640.644 161.135 636.038 168.611C631.432 176.087 625.214 179.825 617.384 179.825C611.051 179.825 606.618 178.073 604.085 174.568C601.667 171.064 600.458 166.801 600.458 161.778C600.458 159.442 600.631 157.397 600.976 155.645C594.988 155.879 589.692 155.996 585.086 155.996C582.207 155.996 579.041 155.879 575.586 155.645C575.932 157.397 576.104 159.442 576.104 161.778C576.104 166.917 574.838 171.239 572.304 174.744C569.886 178.248 565.511 180 559.178 180ZM574.377 124.457C580.595 124.224 585.143 124.107 588.022 124.107C591.131 124.107 595.679 124.224 601.667 124.457C601.897 123.172 602.012 121.245 602.012 118.675C602.012 113.185 600.861 108.746 598.558 105.359C596.255 101.855 592.685 100.103 587.849 100.103C583.128 100.103 579.616 101.796 577.313 105.184C575.01 108.571 573.859 112.952 573.859 118.325C573.859 120.311 574.032 122.355 574.377 124.457Z"/>
<path d="M813.599 77.8504C813.599 83.8077 811.699 88.3048 807.899 91.3419C804.099 94.3789 798.63 96.4815 791.491 97.6496C791.836 103.724 792.009 111.199 792.009 120.077C792.009 139.934 788.151 154.828 780.436 164.756C772.722 174.685 760.861 179.65 744.856 179.65C737.026 179.65 730.06 178.073 723.957 174.919C717.854 171.648 713.133 167.326 709.794 161.953C706.455 156.58 704.785 150.856 704.785 144.782C704.785 139.058 706.339 134.561 709.448 131.291C712.672 128.02 716.415 126.385 720.675 126.385C724.705 126.385 727.642 127.202 729.484 128.838C731.441 130.356 733.169 132.576 734.666 135.496C735.932 137.715 737.084 139.35 738.12 140.402C739.271 141.453 740.883 141.979 742.956 141.979C746.756 141.979 749.174 140.051 750.21 136.197C751.362 132.342 751.938 125.801 751.938 116.573V98.5256C741.69 98.0584 733.687 96.3063 727.929 93.2692C722.287 90.2322 719.466 85.0926 719.466 77.8504C719.466 71.6595 721.539 67.0456 725.684 64.0086C729.945 60.9715 735.299 59.0442 741.747 58.2265C748.31 57.4088 756.601 57 766.619 57C776.637 57 784.87 57.4088 791.318 58.2265C797.766 59.0442 803.063 60.9715 807.208 64.0086C811.469 67.0456 813.599 71.6595 813.599 77.8504Z"/>
<path d="M870.789 179.825C860.311 179.942 850.581 177.313 841.6 171.94C832.733 166.567 825.594 159.208 820.182 149.863C814.886 140.402 812.122 129.947 811.892 118.5C811.777 107.52 814.31 97.3576 819.491 88.0128C824.673 78.6681 831.812 71.2507 840.909 65.7607C850.005 60.1539 859.966 57.3504 870.789 57.3504C881.383 57.2336 891.17 59.9202 900.152 65.4103C909.248 70.9003 916.445 78.4345 921.742 88.0128C927.039 97.5912 929.687 108.162 929.687 119.726C929.687 130.59 927.039 140.577 921.742 149.688C916.445 158.799 909.248 166.041 900.152 171.415C891.17 176.788 881.383 179.591 870.789 179.825ZM871.308 145.658C876.604 145.658 881.095 143.731 884.78 139.876C888.58 136.021 890.422 130.999 890.307 124.808C890.307 118.5 888.464 113.419 884.78 109.564C881.095 105.709 876.604 103.782 871.308 103.782C866.011 103.782 861.52 105.709 857.835 109.564C854.151 113.419 852.308 118.5 852.308 124.808C852.308 130.999 854.151 136.021 857.835 139.876C861.52 143.731 866.011 145.658 871.308 145.658Z"/>
<path d="M992.193 179.474C973.078 179.358 958.743 174.568 949.185 165.107C939.743 155.645 935.022 140.285 935.022 119.026C935.022 99.7521 939.628 84.6254 948.84 73.6453C958.052 62.5484 971.063 57 987.875 57C998.238 57 1007.28 58.5769 1014.99 61.7308C1022.71 64.8846 1028.64 69.3818 1032.78 75.2222C1036.93 81.0627 1039 87.9544 1039 95.8974C1039 102.205 1037.62 107.812 1034.85 112.718C1032.21 117.624 1028.23 122.004 1022.94 125.859C1027.2 126.56 1030.88 128.896 1033.99 132.868C1037.22 136.839 1038.83 141.453 1038.83 146.709C1038.83 152.316 1037.33 157.631 1034.34 162.654C1031.46 167.56 1026.51 171.59 1019.48 174.744C1012.57 177.897 1003.48 179.474 992.193 179.474ZM980.275 114.12C982.348 115.171 984.939 115.697 988.047 115.697C991.732 115.697 994.899 114.821 997.547 113.068C1000.31 111.199 1001.69 108.454 1001.69 104.833C1001.69 101.329 1000.31 98.7009 997.547 96.9487C994.899 95.0798 991.675 94.1453 987.875 94.1453C984.881 94.1453 982.348 94.6709 980.275 95.7222C978.663 96.4231 977.454 97.6496 976.648 99.4017C975.842 101.154 975.439 103.023 975.439 105.009C975.439 106.994 975.842 108.863 976.648 110.615C977.454 112.251 978.663 113.419 980.275 114.12ZM980.275 155.12C982.463 156.054 985.054 156.521 988.047 156.521C991.732 156.521 994.899 155.762 997.547 154.244C1000.31 152.608 1001.69 150.214 1001.69 147.06C1001.69 144.023 1000.31 141.687 997.547 140.051C994.784 138.416 991.559 137.598 987.875 137.598C984.996 137.598 982.463 138.066 980.275 139C978.663 139.701 977.454 140.811 976.648 142.329C975.842 143.731 975.439 145.308 975.439 147.06C975.439 148.812 975.842 150.447 976.648 151.966C977.454 153.368 978.663 154.419 980.275 155.12Z"/>
</mask>
<path d="M98.352 179.474C85.2253 179.474 73.9985 177.138 64.6716 172.466C55.3447 167.793 48.2056 161.135 43.2543 152.491C38.4181 143.731 36 133.393 36 121.479C36 107.228 38.9362 95.255 44.8087 85.5598C50.7964 75.8647 58.5112 68.6809 67.9532 64.0086C77.3953 59.3362 87.2979 57 97.6611 57C106.873 57 114.991 58.4017 122.015 61.2051C129.039 64.0086 134.451 67.688 138.25 72.2436C142.05 76.7992 143.95 81.5883 143.95 86.6111C143.95 93.8533 142.108 99.0513 138.423 102.205C134.738 105.242 130.19 106.761 124.778 106.761C122.245 106.761 120 106.527 118.042 106.06C116.2 105.593 114.242 104.95 112.17 104.132C109.867 103.315 107.794 102.731 105.952 102.38C104.225 101.913 102.037 101.679 99.3883 101.679C91.7886 101.679 85.801 104.016 81.4254 108.688C77.0498 113.244 74.8621 119.726 74.8621 128.137C74.8621 135.262 76.9923 140.752 81.2527 144.607C85.5131 148.462 90.8099 150.389 97.143 150.389C100.713 150.389 103.821 149.922 106.47 148.987C109.118 148.053 111.133 147.001 112.515 145.833C113.897 144.665 114.588 143.731 114.588 143.03C106.182 143.03 99.7913 142.037 95.4158 140.051C91.0402 138.066 88.8524 134.62 88.8524 129.714C88.8524 124.808 90.522 121.011 93.8613 118.325C97.2005 115.521 102.843 114.12 110.788 114.12C118.963 114.12 125.354 115.113 129.96 117.098C134.566 118.967 137.847 121.946 139.805 126.034C141.762 130.006 142.741 135.321 142.741 141.979C142.741 148.754 140.726 155.003 136.696 160.726C132.781 166.45 127.369 171.006 120.46 174.393C113.667 177.781 106.297 179.474 98.352 179.474Z" fill="#F1E5FF"/>
<path d="M235.366 151.615C240.893 153.368 243.657 157.047 243.657 162.654C243.657 167.91 241.009 172.057 235.712 175.094C230.415 178.131 221.261 179.65 208.249 179.65C192.014 179.65 178.081 175.678 166.451 167.735C154.936 159.792 149.179 144.023 149.179 120.427C149.179 108.513 151.194 97.7664 155.224 88.188C159.254 78.6097 165.242 71.0171 173.187 65.4103C181.247 59.8034 191.092 57 202.722 57C218.267 57 229.206 59.453 235.539 64.359C241.872 69.1481 245.039 75.047 245.039 82.0556C245.039 85.3262 244.233 88.3632 242.621 91.1667C241.009 93.8533 238.591 95.9558 235.366 97.4744C232.603 98.8761 229.033 99.5769 224.658 99.5769L219.994 99.4017C219.073 99.2849 217.749 99.2265 216.022 99.2265C210.034 99.2265 205.313 100.336 201.859 102.556C198.404 104.658 196.044 107.929 194.777 112.368C199.613 112.134 203.989 112.017 207.904 112.017C219.534 112.017 227.076 112.368 230.53 113.068C234.445 113.886 237.439 115.463 239.512 117.799C241.699 120.135 242.793 122.88 242.793 126.034C242.793 129.188 241.757 131.933 239.684 134.269C237.612 136.489 234.503 138.007 230.358 138.825C227.133 139.526 219.303 139.876 206.868 139.876C201.801 139.876 198.232 139.818 196.159 139.701C199.728 147.41 206.407 151.265 216.194 151.265C216.77 151.265 218.094 151.148 220.167 150.915C222.931 150.681 225.291 150.564 227.249 150.564C230.588 150.564 233.294 150.915 235.366 151.615Z" fill="#F1E5FF"/>
<path d="M374.182 83.1068C374.182 90.8162 371.016 96.4231 364.683 99.9274C358.465 103.315 348.274 105.359 334.111 106.06C334.572 111.667 334.802 118.909 334.802 127.786C334.802 140.168 334.111 150.097 332.729 157.573C331.463 164.932 329.217 170.422 325.993 174.043C322.769 177.547 318.278 179.299 312.521 179.299C306.879 179.299 302.561 177.43 299.567 173.692C296.573 169.954 294.501 164.406 293.349 157.047C292.198 149.688 291.622 139.934 291.622 127.786C291.622 119.61 291.795 112.368 292.14 106.06C282.583 105.593 274.868 104.6 268.996 103.081C263.238 101.446 258.978 99.0513 256.214 95.8974C253.451 92.7436 252.069 88.4801 252.069 83.1068C252.069 76.5655 254.257 71.4259 258.632 67.688C263.008 63.9501 269.571 61.3219 278.322 59.8034C287.074 58.2849 298.531 57.5256 312.694 57.5256C326.972 57.5256 338.544 58.2849 347.411 59.8034C356.277 61.3219 362.955 63.9501 367.446 67.688C371.937 71.4259 374.182 76.5655 374.182 83.1068Z" fill="#F1E5FF"/>
<path d="M422.986 179.825C415.387 179.825 408.075 178.774 401.051 176.671C394.142 174.452 388.5 171.415 384.124 167.56C379.749 163.588 377.561 159.091 377.561 154.068C377.561 149.279 379 145.483 381.879 142.679C384.758 139.876 388.385 138.474 392.76 138.474C395.639 138.474 398.115 138.883 400.187 139.701C402.375 140.402 404.736 141.453 407.269 142.855C409.111 143.789 410.666 144.548 411.932 145.132C413.314 145.6 414.753 145.833 416.25 145.833C420.05 145.833 421.95 144.315 421.95 141.278C421.95 140.11 421.144 139.117 419.532 138.299C417.92 137.365 415.214 136.138 411.414 134.62C404.621 131.933 399.094 129.305 394.833 126.735C388.27 122.764 383.721 118.442 381.188 113.769C378.77 109.097 377.561 103.256 377.561 96.2479C377.561 89.4729 379.691 83.1068 383.952 77.1496C388.212 71.0755 394.027 66.2279 401.396 62.6068C408.766 58.9858 416.826 57.1752 425.577 57.1752C434.098 57.1752 441.871 58.5185 448.895 61.2051C456.034 63.7749 461.618 67.396 465.648 72.0684C469.794 76.6239 471.866 81.7051 471.866 87.312C471.866 93.7365 469.966 98.584 466.167 101.855C462.482 105.009 458.337 106.585 453.731 106.585C449.931 106.585 447.052 106.352 445.095 105.885C443.252 105.417 441.41 104.775 439.568 103.957C438.071 103.373 436.804 102.964 435.768 102.731C434.731 102.38 433.292 102.205 431.45 102.205C429.953 102.205 428.514 102.731 427.132 103.782C425.865 104.717 425.232 106.06 425.232 107.812C425.232 109.097 425.98 110.207 427.477 111.141C428.974 111.959 430.701 112.718 432.659 113.419C434.616 114.12 435.998 114.645 436.804 114.996C447.513 118.967 455.4 123.523 460.467 128.662C465.533 133.685 468.066 140.227 468.066 148.286C468.066 158.215 464.094 165.983 456.149 171.59C448.319 177.08 437.265 179.825 422.986 179.825Z" fill="#F1E5FF"/>
<path d="M559.178 180C551.463 180 545.245 176.204 540.524 168.611C535.918 160.902 533.212 150.506 532.406 137.423C532.291 135.554 532.233 132.809 532.233 129.188C532.233 115.054 534.536 102.556 539.142 91.6923C543.748 80.7123 550.254 72.2436 558.66 66.2863C567.18 60.2123 577.083 57.1752 588.367 57.1752C599.652 57.1752 609.497 60.2123 617.903 66.2863C626.423 72.2436 632.929 80.6539 637.42 91.5171C642.026 102.38 644.329 114.937 644.329 129.188C644.329 132.809 644.271 135.554 644.156 137.423C643.35 150.739 640.644 161.135 636.038 168.611C631.432 176.087 625.214 179.825 617.384 179.825C611.051 179.825 606.618 178.073 604.085 174.568C601.667 171.064 600.458 166.801 600.458 161.778C600.458 159.442 600.631 157.397 600.976 155.645C594.988 155.879 589.692 155.996 585.086 155.996C582.207 155.996 579.041 155.879 575.586 155.645C575.932 157.397 576.104 159.442 576.104 161.778C576.104 166.917 574.838 171.239 572.304 174.744C569.886 178.248 565.511 180 559.178 180ZM574.377 124.457C580.595 124.224 585.143 124.107 588.022 124.107C591.131 124.107 595.679 124.224 601.667 124.457C601.897 123.172 602.012 121.245 602.012 118.675C602.012 113.185 600.861 108.746 598.558 105.359C596.255 101.855 592.685 100.103 587.849 100.103C583.128 100.103 579.616 101.796 577.313 105.184C575.01 108.571 573.859 112.952 573.859 118.325C573.859 120.311 574.032 122.355 574.377 124.457Z" fill="#F1E5FF"/>
<path d="M813.599 77.8504C813.599 83.8077 811.699 88.3048 807.899 91.3419C804.099 94.3789 798.63 96.4815 791.491 97.6496C791.836 103.724 792.009 111.199 792.009 120.077C792.009 139.934 788.151 154.828 780.436 164.756C772.722 174.685 760.861 179.65 744.856 179.65C737.026 179.65 730.06 178.073 723.957 174.919C717.854 171.648 713.133 167.326 709.794 161.953C706.455 156.58 704.785 150.856 704.785 144.782C704.785 139.058 706.339 134.561 709.448 131.291C712.672 128.02 716.415 126.385 720.675 126.385C724.705 126.385 727.642 127.202 729.484 128.838C731.441 130.356 733.169 132.576 734.666 135.496C735.932 137.715 737.084 139.35 738.12 140.402C739.271 141.453 740.883 141.979 742.956 141.979C746.756 141.979 749.174 140.051 750.21 136.197C751.362 132.342 751.938 125.801 751.938 116.573V98.5256C741.69 98.0584 733.687 96.3063 727.929 93.2692C722.287 90.2322 719.466 85.0926 719.466 77.8504C719.466 71.6595 721.539 67.0456 725.684 64.0086C729.945 60.9715 735.299 59.0442 741.747 58.2265C748.31 57.4088 756.601 57 766.619 57C776.637 57 784.87 57.4088 791.318 58.2265C797.766 59.0442 803.063 60.9715 807.208 64.0086C811.469 67.0456 813.599 71.6595 813.599 77.8504Z" fill="#F1E5FF"/>
<path d="M870.789 179.825C860.311 179.942 850.581 177.313 841.6 171.94C832.733 166.567 825.594 159.208 820.182 149.863C814.886 140.402 812.122 129.947 811.892 118.5C811.777 107.52 814.31 97.3576 819.491 88.0128C824.673 78.6681 831.812 71.2507 840.909 65.7607C850.005 60.1539 859.966 57.3504 870.789 57.3504C881.383 57.2336 891.17 59.9202 900.152 65.4103C909.248 70.9003 916.445 78.4345 921.742 88.0128C927.039 97.5912 929.687 108.162 929.687 119.726C929.687 130.59 927.039 140.577 921.742 149.688C916.445 158.799 909.248 166.041 900.152 171.415C891.17 176.788 881.383 179.591 870.789 179.825ZM871.308 145.658C876.604 145.658 881.095 143.731 884.78 139.876C888.58 136.021 890.422 130.999 890.307 124.808C890.307 118.5 888.464 113.419 884.78 109.564C881.095 105.709 876.604 103.782 871.308 103.782C866.011 103.782 861.52 105.709 857.835 109.564C854.151 113.419 852.308 118.5 852.308 124.808C852.308 130.999 854.151 136.021 857.835 139.876C861.52 143.731 866.011 145.658 871.308 145.658Z" fill="#F1E5FF"/>
<path d="M992.193 179.474C973.078 179.358 958.743 174.568 949.185 165.107C939.743 155.645 935.022 140.285 935.022 119.026C935.022 99.7521 939.628 84.6254 948.84 73.6453C958.052 62.5484 971.063 57 987.875 57C998.238 57 1007.28 58.5769 1014.99 61.7308C1022.71 64.8846 1028.64 69.3818 1032.78 75.2222C1036.93 81.0627 1039 87.9544 1039 95.8974C1039 102.205 1037.62 107.812 1034.85 112.718C1032.21 117.624 1028.23 122.004 1022.94 125.859C1027.2 126.56 1030.88 128.896 1033.99 132.868C1037.22 136.839 1038.83 141.453 1038.83 146.709C1038.83 152.316 1037.33 157.631 1034.34 162.654C1031.46 167.56 1026.51 171.59 1019.48 174.744C1012.57 177.897 1003.48 179.474 992.193 179.474ZM980.275 114.12C982.348 115.171 984.939 115.697 988.047 115.697C991.732 115.697 994.899 114.821 997.547 113.068C1000.31 111.199 1001.69 108.454 1001.69 104.833C1001.69 101.329 1000.31 98.7009 997.547 96.9487C994.899 95.0798 991.675 94.1453 987.875 94.1453C984.881 94.1453 982.348 94.6709 980.275 95.7222C978.663 96.4231 977.454 97.6496 976.648 99.4017C975.842 101.154 975.439 103.023 975.439 105.009C975.439 106.994 975.842 108.863 976.648 110.615C977.454 112.251 978.663 113.419 980.275 114.12ZM980.275 155.12C982.463 156.054 985.054 156.521 988.047 156.521C991.732 156.521 994.899 155.762 997.547 154.244C1000.31 152.608 1001.69 150.214 1001.69 147.06C1001.69 144.023 1000.31 141.687 997.547 140.051C994.784 138.416 991.559 137.598 987.875 137.598C984.996 137.598 982.463 138.066 980.275 139C978.663 139.701 977.454 140.811 976.648 142.329C975.842 143.731 975.439 145.308 975.439 147.06C975.439 148.812 975.842 150.447 976.648 151.966C977.454 153.368 978.663 154.419 980.275 155.12Z" fill="#F1E5FF"/>
<path d="M98.352 179.474C85.2253 179.474 73.9985 177.138 64.6716 172.466C55.3447 167.793 48.2056 161.135 43.2543 152.491C38.4181 143.731 36 133.393 36 121.479C36 107.228 38.9362 95.255 44.8087 85.5598C50.7964 75.8647 58.5112 68.6809 67.9532 64.0086C77.3953 59.3362 87.2979 57 97.6611 57C106.873 57 114.991 58.4017 122.015 61.2051C129.039 64.0086 134.451 67.688 138.25 72.2436C142.05 76.7992 143.95 81.5883 143.95 86.6111C143.95 93.8533 142.108 99.0513 138.423 102.205C134.738 105.242 130.19 106.761 124.778 106.761C122.245 106.761 120 106.527 118.042 106.06C116.2 105.593 114.242 104.95 112.17 104.132C109.867 103.315 107.794 102.731 105.952 102.38C104.225 101.913 102.037 101.679 99.3883 101.679C91.7886 101.679 85.801 104.016 81.4254 108.688C77.0498 113.244 74.8621 119.726 74.8621 128.137C74.8621 135.262 76.9923 140.752 81.2527 144.607C85.5131 148.462 90.8099 150.389 97.143 150.389C100.713 150.389 103.821 149.922 106.47 148.987C109.118 148.053 111.133 147.001 112.515 145.833C113.897 144.665 114.588 143.731 114.588 143.03C106.182 143.03 99.7913 142.037 95.4158 140.051C91.0402 138.066 88.8524 134.62 88.8524 129.714C88.8524 124.808 90.522 121.011 93.8613 118.325C97.2005 115.521 102.843 114.12 110.788 114.12C118.963 114.12 125.354 115.113 129.96 117.098C134.566 118.967 137.847 121.946 139.805 126.034C141.762 130.006 142.741 135.321 142.741 141.979C142.741 148.754 140.726 155.003 136.696 160.726C132.781 166.45 127.369 171.006 120.46 174.393C113.667 177.781 106.297 179.474 98.352 179.474Z" stroke="#80380E" stroke-width="6" mask="url(#path-4-outside-2_180_65)"/>
<path d="M235.366 151.615C240.893 153.368 243.657 157.047 243.657 162.654C243.657 167.91 241.009 172.057 235.712 175.094C230.415 178.131 221.261 179.65 208.249 179.65C192.014 179.65 178.081 175.678 166.451 167.735C154.936 159.792 149.179 144.023 149.179 120.427C149.179 108.513 151.194 97.7664 155.224 88.188C159.254 78.6097 165.242 71.0171 173.187 65.4103C181.247 59.8034 191.092 57 202.722 57C218.267 57 229.206 59.453 235.539 64.359C241.872 69.1481 245.039 75.047 245.039 82.0556C245.039 85.3262 244.233 88.3632 242.621 91.1667C241.009 93.8533 238.591 95.9558 235.366 97.4744C232.603 98.8761 229.033 99.5769 224.658 99.5769L219.994 99.4017C219.073 99.2849 217.749 99.2265 216.022 99.2265C210.034 99.2265 205.313 100.336 201.859 102.556C198.404 104.658 196.044 107.929 194.777 112.368C199.613 112.134 203.989 112.017 207.904 112.017C219.534 112.017 227.076 112.368 230.53 113.068C234.445 113.886 237.439 115.463 239.512 117.799C241.699 120.135 242.793 122.88 242.793 126.034C242.793 129.188 241.757 131.933 239.684 134.269C237.612 136.489 234.503 138.007 230.358 138.825C227.133 139.526 219.303 139.876 206.868 139.876C201.801 139.876 198.232 139.818 196.159 139.701C199.728 147.41 206.407 151.265 216.194 151.265C216.77 151.265 218.094 151.148 220.167 150.915C222.931 150.681 225.291 150.564 227.249 150.564C230.588 150.564 233.294 150.915 235.366 151.615Z" stroke="#80380E" stroke-width="6" mask="url(#path-4-outside-2_180_65)"/>
<path d="M374.182 83.1068C374.182 90.8162 371.016 96.4231 364.683 99.9274C358.465 103.315 348.274 105.359 334.111 106.06C334.572 111.667 334.802 118.909 334.802 127.786C334.802 140.168 334.111 150.097 332.729 157.573C331.463 164.932 329.217 170.422 325.993 174.043C322.769 177.547 318.278 179.299 312.521 179.299C306.879 179.299 302.561 177.43 299.567 173.692C296.573 169.954 294.501 164.406 293.349 157.047C292.198 149.688 291.622 139.934 291.622 127.786C291.622 119.61 291.795 112.368 292.14 106.06C282.583 105.593 274.868 104.6 268.996 103.081C263.238 101.446 258.978 99.0513 256.214 95.8974C253.451 92.7436 252.069 88.4801 252.069 83.1068C252.069 76.5655 254.257 71.4259 258.632 67.688C263.008 63.9501 269.571 61.3219 278.322 59.8034C287.074 58.2849 298.531 57.5256 312.694 57.5256C326.972 57.5256 338.544 58.2849 347.411 59.8034C356.277 61.3219 362.955 63.9501 367.446 67.688C371.937 71.4259 374.182 76.5655 374.182 83.1068Z" stroke="#80380E" stroke-width="6" mask="url(#path-4-outside-2_180_65)"/>
<path d="M422.986 179.825C415.387 179.825 408.075 178.774 401.051 176.671C394.142 174.452 388.5 171.415 384.124 167.56C379.749 163.588 377.561 159.091 377.561 154.068C377.561 149.279 379 145.483 381.879 142.679C384.758 139.876 388.385 138.474 392.76 138.474C395.639 138.474 398.115 138.883 400.187 139.701C402.375 140.402 404.736 141.453 407.269 142.855C409.111 143.789 410.666 144.548 411.932 145.132C413.314 145.6 414.753 145.833 416.25 145.833C420.05 145.833 421.95 144.315 421.95 141.278C421.95 140.11 421.144 139.117 419.532 138.299C417.92 137.365 415.214 136.138 411.414 134.62C404.621 131.933 399.094 129.305 394.833 126.735C388.27 122.764 383.721 118.442 381.188 113.769C378.77 109.097 377.561 103.256 377.561 96.2479C377.561 89.4729 379.691 83.1068 383.952 77.1496C388.212 71.0755 394.027 66.2279 401.396 62.6068C408.766 58.9858 416.826 57.1752 425.577 57.1752C434.098 57.1752 441.871 58.5185 448.895 61.2051C456.034 63.7749 461.618 67.396 465.648 72.0684C469.794 76.6239 471.866 81.7051 471.866 87.312C471.866 93.7365 469.966 98.584 466.167 101.855C462.482 105.009 458.337 106.585 453.731 106.585C449.931 106.585 447.052 106.352 445.095 105.885C443.252 105.417 441.41 104.775 439.568 103.957C438.071 103.373 436.804 102.964 435.768 102.731C434.731 102.38 433.292 102.205 431.45 102.205C429.953 102.205 428.514 102.731 427.132 103.782C425.865 104.717 425.232 106.06 425.232 107.812C425.232 109.097 425.98 110.207 427.477 111.141C428.974 111.959 430.701 112.718 432.659 113.419C434.616 114.12 435.998 114.645 436.804 114.996C447.513 118.967 455.4 123.523 460.467 128.662C465.533 133.685 468.066 140.227 468.066 148.286C468.066 158.215 464.094 165.983 456.149 171.59C448.319 177.08 437.265 179.825 422.986 179.825Z" stroke="#80380E" stroke-width="6" mask="url(#path-4-outside-2_180_65)"/>
<path d="M559.178 180C551.463 180 545.245 176.204 540.524 168.611C535.918 160.902 533.212 150.506 532.406 137.423C532.291 135.554 532.233 132.809 532.233 129.188C532.233 115.054 534.536 102.556 539.142 91.6923C543.748 80.7123 550.254 72.2436 558.66 66.2863C567.18 60.2123 577.083 57.1752 588.367 57.1752C599.652 57.1752 609.497 60.2123 617.903 66.2863C626.423 72.2436 632.929 80.6539 637.42 91.5171C642.026 102.38 644.329 114.937 644.329 129.188C644.329 132.809 644.271 135.554 644.156 137.423C643.35 150.739 640.644 161.135 636.038 168.611C631.432 176.087 625.214 179.825 617.384 179.825C611.051 179.825 606.618 178.073 604.085 174.568C601.667 171.064 600.458 166.801 600.458 161.778C600.458 159.442 600.631 157.397 600.976 155.645C594.988 155.879 589.692 155.996 585.086 155.996C582.207 155.996 579.041 155.879 575.586 155.645C575.932 157.397 576.104 159.442 576.104 161.778C576.104 166.917 574.838 171.239 572.304 174.744C569.886 178.248 565.511 180 559.178 180ZM574.377 124.457C580.595 124.224 585.143 124.107 588.022 124.107C591.131 124.107 595.679 124.224 601.667 124.457C601.897 123.172 602.012 121.245 602.012 118.675C602.012 113.185 600.861 108.746 598.558 105.359C596.255 101.855 592.685 100.103 587.849 100.103C583.128 100.103 579.616 101.796 577.313 105.184C575.01 108.571 573.859 112.952 573.859 118.325C573.859 120.311 574.032 122.355 574.377 124.457Z" stroke="#80380E" stroke-width="6" mask="url(#path-4-outside-2_180_65)"/>
<path d="M813.599 77.8504C813.599 83.8077 811.699 88.3048 807.899 91.3419C804.099 94.3789 798.63 96.4815 791.491 97.6496C791.836 103.724 792.009 111.199 792.009 120.077C792.009 139.934 788.151 154.828 780.436 164.756C772.722 174.685 760.861 179.65 744.856 179.65C737.026 179.65 730.06 178.073 723.957 174.919C717.854 171.648 713.133 167.326 709.794 161.953C706.455 156.58 704.785 150.856 704.785 144.782C704.785 139.058 706.339 134.561 709.448 131.291C712.672 128.02 716.415 126.385 720.675 126.385C724.705 126.385 727.642 127.202 729.484 128.838C731.441 130.356 733.169 132.576 734.666 135.496C735.932 137.715 737.084 139.35 738.12 140.402C739.271 141.453 740.883 141.979 742.956 141.979C746.756 141.979 749.174 140.051 750.21 136.197C751.362 132.342 751.938 125.801 751.938 116.573V98.5256C741.69 98.0584 733.687 96.3063 727.929 93.2692C722.287 90.2322 719.466 85.0926 719.466 77.8504C719.466 71.6595 721.539 67.0456 725.684 64.0086C729.945 60.9715 735.299 59.0442 741.747 58.2265C748.31 57.4088 756.601 57 766.619 57C776.637 57 784.87 57.4088 791.318 58.2265C797.766 59.0442 803.063 60.9715 807.208 64.0086C811.469 67.0456 813.599 71.6595 813.599 77.8504Z" stroke="#80380E" stroke-width="6" mask="url(#path-4-outside-2_180_65)"/>
<path d="M870.789 179.825C860.311 179.942 850.581 177.313 841.6 171.94C832.733 166.567 825.594 159.208 820.182 149.863C814.886 140.402 812.122 129.947 811.892 118.5C811.777 107.52 814.31 97.3576 819.491 88.0128C824.673 78.6681 831.812 71.2507 840.909 65.7607C850.005 60.1539 859.966 57.3504 870.789 57.3504C881.383 57.2336 891.17 59.9202 900.152 65.4103C909.248 70.9003 916.445 78.4345 921.742 88.0128C927.039 97.5912 929.687 108.162 929.687 119.726C929.687 130.59 927.039 140.577 921.742 149.688C916.445 158.799 909.248 166.041 900.152 171.415C891.17 176.788 881.383 179.591 870.789 179.825ZM871.308 145.658C876.604 145.658 881.095 143.731 884.78 139.876C888.58 136.021 890.422 130.999 890.307 124.808C890.307 118.5 888.464 113.419 884.78 109.564C881.095 105.709 876.604 103.782 871.308 103.782C866.011 103.782 861.52 105.709 857.835 109.564C854.151 113.419 852.308 118.5 852.308 124.808C852.308 130.999 854.151 136.021 857.835 139.876C861.52 143.731 866.011 145.658 871.308 145.658Z" stroke="#80380E" stroke-width="6" mask="url(#path-4-outside-2_180_65)"/>
<path d="M992.193 179.474C973.078 179.358 958.743 174.568 949.185 165.107C939.743 155.645 935.022 140.285 935.022 119.026C935.022 99.7521 939.628 84.6254 948.84 73.6453C958.052 62.5484 971.063 57 987.875 57C998.238 57 1007.28 58.5769 1014.99 61.7308C1022.71 64.8846 1028.64 69.3818 1032.78 75.2222C1036.93 81.0627 1039 87.9544 1039 95.8974C1039 102.205 1037.62 107.812 1034.85 112.718C1032.21 117.624 1028.23 122.004 1022.94 125.859C1027.2 126.56 1030.88 128.896 1033.99 132.868C1037.22 136.839 1038.83 141.453 1038.83 146.709C1038.83 152.316 1037.33 157.631 1034.34 162.654C1031.46 167.56 1026.51 171.59 1019.48 174.744C1012.57 177.897 1003.48 179.474 992.193 179.474ZM980.275 114.12C982.348 115.171 984.939 115.697 988.047 115.697C991.732 115.697 994.899 114.821 997.547 113.068C1000.31 111.199 1001.69 108.454 1001.69 104.833C1001.69 101.329 1000.31 98.7009 997.547 96.9487C994.899 95.0798 991.675 94.1453 987.875 94.1453C984.881 94.1453 982.348 94.6709 980.275 95.7222C978.663 96.4231 977.454 97.6496 976.648 99.4017C975.842 101.154 975.439 103.023 975.439 105.009C975.439 106.994 975.842 108.863 976.648 110.615C977.454 112.251 978.663 113.419 980.275 114.12ZM980.275 155.12C982.463 156.054 985.054 156.521 988.047 156.521C991.732 156.521 994.899 155.762 997.547 154.244C1000.31 152.608 1001.69 150.214 1001.69 147.06C1001.69 144.023 1000.31 141.687 997.547 140.051C994.784 138.416 991.559 137.598 987.875 137.598C984.996 137.598 982.463 138.066 980.275 139C978.663 139.701 977.454 140.811 976.648 142.329C975.842 143.731 975.439 145.308 975.439 147.06C975.439 148.812 975.842 150.447 976.648 151.966C977.454 153.368 978.663 154.419 980.275 155.12Z" stroke="#80380E" stroke-width="6" mask="url(#path-4-outside-2_180_65)"/>
</g>
<defs>
<filter id="filter0_d_180_65" x="21.8506" y="43.5" width="1030.24" height="147.5" filterUnits="userSpaceOnUse" color-interpolation-filters="sRGB">
<feFlood flood-opacity="0" result="BackgroundImageFix"/>
<feColorMatrix in="SourceAlpha" type="matrix" values="0 0 0 0 0 0 0 0 0 0 0 0 0 0 0 0 0 0 127 0" result="hardAlpha"/>
<feOffset dy="4"/>
<feGaussianBlur stdDeviation="2"/>
<feComposite in2="hardAlpha" operator="out"/>
<feColorMatrix type="matrix" values="0 0 0 0 0 0 0 0 0 0 0 0 0 0 0 0 0 0 0.25 0"/>
<feBlend mode="normal" in2="BackgroundImageFix" result="effect1_dropShadow_180_65"/>
<feBlend mode="normal" in="SourceGraphic" in2="effect1_dropShadow_180_65" result="shape"/>
</filter>
</defs>
</svg>
