<svg width="936" height="913" viewBox="0 0 936 913" fill="none" xmlns="http://www.w3.org/2000/svg">
<g id="Group 4">
<g id="Vector 36">
<path d="M913.614 20.1053C894.312 17.9269 15.8473 20.1053 15.8473 20.1053L18.3219 76.742H915.811C917.573 76.742 923.512 75.5964 929.451 84.0031C935.39 92.4099 934.4 101.43 935.39 114.5C932.674 99.2028 928.847 93.4606 916.088 90.5381H18.5075C18.5694 90.9012 18.5693 91.9903 18.3219 94.8947C17.827 100.704 10.8982 99.2652 9.90843 99.2514C8.91861 99.2376 5.80258 95.4677 5.94915 88.3598L1.98987 9.9397C2.39061 4.00669 4.82929 0.734807 7.92879 0.500303C10.6394 0.45011 13.744 2.47167 14.3626 5.58303C14.3626 5.58303 893.43 6.68672 910.149 6.30917C926.869 5.93162 931.555 27.0884 931.926 35.3536C932.296 43.6189 932.915 22.2836 913.614 20.1053Z" fill="#E0C745"/>
<path d="M15.8473 20.1053C15.8473 20.1053 894.312 17.9269 913.614 20.1053C932.915 22.2836 932.296 43.6189 931.926 35.3536C931.555 27.0884 926.869 5.93162 910.15 6.30917C893.43 6.68672 14.3626 5.58303 14.3626 5.58303C13.744 2.47167 10.6394 0.45011 7.92879 0.500303C4.82929 0.734807 2.39061 4.00669 1.98987 9.9397L5.94915 88.3598C5.80258 95.4677 8.91861 99.2376 9.90843 99.2514C10.8982 99.2652 17.827 100.704 18.3219 94.8947C18.8168 89.0858 18.3219 90.5381 18.3219 90.5381H916.088C928.847 93.4606 932.674 99.2028 935.39 114.5C934.4 101.43 935.39 92.4099 929.451 84.0031C923.512 75.5964 917.573 76.742 915.811 76.742H18.3219L15.8473 20.1053Z" stroke="black"/>
</g>
<path id="Vector 37" d="M1 851.503L1.98982 12.1183L5.9491 92.7167L7.43383 97.7995V912.497L1 851.503Z" fill="#B6A23B" stroke="black"/>
<path id="Vector 38" d="M18.8168 911.044V91.2643C18.6454 97.1016 17.4836 98.7412 13.8677 99.2515C12.3216 99.5156 11.4547 99.4504 9.90839 99.2515C9.13248 99.0629 8.53727 98.2237 7.43384 96.544V911.771L18.8168 911.044Z" fill="#E0C745" stroke="black"/>
<path id="Vector 39" d="M19.3116 911.044V91.2642L916.088 90.5381C927.767 93.526 932.163 98.3615 935.39 113.774V883.452C935.39 898.7 926.898 911.845 916.088 911.044H19.3116Z" fill="#FFE350" stroke="black"/>
<path id="Vector 47" d="M19.3116 911.044V91.2642L916.088 90.5381C927.933 91.4882 932.275 96.9858 935.39 113.774V883.452C935.39 898.7 926.898 911.845 916.088 911.044H19.3116Z" fill="#FFE350" stroke="black"/>
<path id="Vector 40" d="M931.925 36.0798L934.895 110.869C933.972 87.6337 927.966 76.7421 918.068 76.7421H18.3218L15.8473 20.1053H914.109C926.663 20.9073 930.847 27.3586 931.925 36.0798Z" fill="#F6F6F6" stroke="black"/>
<path id="Vector 41" d="M933.905 84.7292C932.42 69.4808 928.511 63.2591 919.553 62.9458H647.847" stroke="black"/>
<path id="Vector 42" d="M932.915 76.0158C932.42 59.3153 928.708 51.7322 918.563 50.6019H552.33" stroke="black"/>
<path id="Vector 48" d="M932.915 62.9458C932.096 48.5601 929.203 43.0189 919.058 41.8885H884.909" stroke="black"/>
<path id="Vector 50" d="M932.42 51.3281C931.601 36.9425 928.213 31.4012 918.068 30.2709H469.185" stroke="black"/>
<path id="Vector 44" d="M24.7557 66.5763H669.623M34.6539 35.3535H564.207M332.59 54.2324H811.167" stroke="black"/>
<path id="Vector 45" d="M45.5419 31.723H415.734M73.2568 50.6019H513.727" stroke="black"/>
</g>
</svg>
