<svg width="936" height="916" viewBox="0 0 936 916" fill="none" xmlns="http://www.w3.org/2000/svg">
<g id="Group 8">
<g id="Vector 36">
<path d="M913.614 20.6489C894.312 18.4658 15.8473 20.6489 15.8473 20.6489L18.3219 77.41H915.811C917.573 77.41 923.512 76.2618 929.451 84.6871C935.39 93.1123 934.4 102.152 935.39 115.251C932.674 99.9201 928.847 94.1653 916.088 91.2364H18.5075C18.5694 91.6003 18.5693 92.6918 18.3219 95.6026C17.827 101.424 10.8982 99.9827 9.90843 99.9688C8.91861 99.955 5.80258 96.1768 5.94915 89.0533L1.98987 10.461C2.39061 4.515 4.82929 1.23593 7.92879 1.00092C10.6394 0.950612 13.744 2.97661 14.3626 6.09481C14.3626 6.09481 893.43 7.20091 910.149 6.82254C926.869 6.44416 931.555 27.6473 931.926 35.9308C932.296 44.2142 932.915 22.8321 913.614 20.6489Z" fill="#DF4818"/>
<path d="M15.8473 20.6489C15.8473 20.6489 894.312 18.4658 913.614 20.6489C932.915 22.8321 932.296 44.2142 931.926 35.9308C931.555 27.6473 926.869 6.44416 910.15 6.82254C893.43 7.20091 14.3626 6.09481 14.3626 6.09481C13.744 2.97661 10.6394 0.950612 7.92879 1.00092C4.82929 1.23593 2.39061 4.515 1.98987 10.461L5.94915 89.0533C5.80258 96.1768 8.91861 99.955 9.90843 99.9688C10.8982 99.9827 17.827 101.424 18.3219 95.6026C18.8168 89.781 18.3219 91.2364 18.3219 91.2364H916.088C928.847 94.1653 932.674 99.9201 935.39 115.251C934.4 102.152 935.39 93.1123 929.451 84.6871C923.512 76.2618 917.573 77.41 915.811 77.41H18.3219L15.8473 20.6489Z" stroke="black"/>
</g>
<path id="Vector 37" d="M1 853.873L1.98982 12.6445L5.9491 93.4199L7.43383 98.5138V915L1 853.873Z" fill="#C73E12" stroke="black"/>
<path id="Vector 38" d="M18.8168 913.544V91.9641C18.6454 97.8142 17.4836 99.4575 13.8677 99.9689C12.3216 100.234 11.4547 100.168 9.90839 99.9689C9.13248 99.7798 8.53727 98.9388 7.43384 97.2554V914.272L18.8168 913.544Z" fill="#DF4818" stroke="black"/>
<path id="Vector 39" d="M19.3116 913.544V91.964L916.088 91.2363C927.767 94.2308 932.163 99.0769 935.39 114.523V885.891C935.39 901.173 926.898 914.347 916.088 913.544H19.3116Z" fill="#FA531E" stroke="black"/>
<path id="Vector 47" d="M19.3116 913.544V91.964L916.088 91.2363C927.933 92.1885 932.275 97.6982 935.39 114.523V885.891C935.39 901.173 926.898 914.347 916.088 913.544H19.3116Z" fill="#FA531E" stroke="black"/>
<path id="Vector 40" d="M931.925 36.6585L934.895 111.612C933.972 88.3256 927.966 77.41 918.068 77.41H18.3218L15.8473 20.6489H914.109C926.663 21.4526 930.847 27.9181 931.925 36.6585Z" fill="#F6F6F6" stroke="black"/>
<path id="Vector 41" d="M933.905 85.4142C932.42 70.1324 928.511 63.897 919.553 63.583H647.847" stroke="black"/>
<path id="Vector 42" d="M932.915 76.6824C932.42 59.9451 928.708 52.3454 918.563 51.2126H552.33" stroke="black"/>
<path id="Vector 48" d="M932.915 63.5832C932.096 49.166 929.203 43.6125 919.058 42.4797H884.909" stroke="black"/>
<path id="Vector 50" d="M932.42 51.9401C931.601 37.5229 928.213 31.9695 918.068 30.8367H469.185" stroke="black"/>
<path id="Vector 44" d="M24.7557 67.2225H669.623M34.6539 35.9312H564.207M332.59 54.8515H811.167" stroke="black"/>
<path id="Vector 45" d="M45.5419 32.2922H415.734M73.2568 51.2126H513.727" stroke="black"/>
</g>
</svg>
