<svg width="936" height="1678" viewBox="0 0 936 1678" fill="none" xmlns="http://www.w3.org/2000/svg">
<g id="Group 4">
<g id="Vector 36">
<path d="M913.614 36.5404C894.312 32.536 15.8473 36.5404 15.8473 36.5404L18.3219 140.654H915.811C917.573 140.654 923.512 138.548 929.451 154.002C935.39 169.456 934.4 186.037 935.39 210.063C932.674 181.943 928.847 171.387 916.088 166.015H18.5075C18.5694 166.683 18.5693 168.685 18.3219 174.024C17.827 184.702 10.8982 182.058 9.90843 182.033C8.91861 182.007 5.80258 175.077 5.94915 162.011L1.98987 17.8533C2.39061 6.94676 4.82929 0.932152 7.92879 0.501069C10.6394 0.4088 13.744 4.12499 14.3626 9.84452C14.3626 9.84452 893.43 11.8734 910.149 11.1794C926.869 10.4853 931.555 49.3772 931.926 64.571C932.296 79.7649 932.915 40.5448 913.614 36.5404Z" fill="#E0C745"/>
<path d="M15.8473 36.5404C15.8473 36.5404 894.312 32.536 913.614 36.5404C932.915 40.5448 932.296 79.7649 931.926 64.571C931.555 49.3772 926.869 10.4853 910.15 11.1794C893.43 11.8734 14.3626 9.84452 14.3626 9.84452C13.744 4.12499 10.6394 0.4088 7.92879 0.501069C4.82929 0.932152 2.39061 6.94676 1.98987 17.8533L5.94915 162.011C5.80258 175.077 8.91861 182.007 9.90843 182.033C10.8982 182.058 17.827 184.702 18.3219 174.024C18.8168 163.346 18.3219 166.015 18.3219 166.015H916.088C928.847 171.387 932.674 181.943 935.39 210.063C934.4 186.037 935.39 169.456 929.451 154.002C923.512 138.548 917.573 140.654 915.811 140.654H18.3219L15.8473 36.5404Z" stroke="black"/>
</g>
<path id="Vector 37" d="M1 1564.88L1.98982 21.858L5.9491 170.02L7.43383 179.363V1677L1 1564.88Z" fill="#B6A23B" stroke="black"/>
<path id="Vector 38" d="M18.8168 1674.33V167.35C18.6454 178.081 17.4836 181.095 13.8677 182.033C12.3216 182.518 11.4547 182.398 9.90839 182.033C9.13248 181.686 8.53727 180.143 7.43384 177.056V1675.66L18.8168 1674.33Z" fill="#E0C745" stroke="black"/>
<path id="Vector 39" d="M19.3116 1674.33V167.35L916.088 166.015C927.767 171.508 932.163 180.397 935.39 208.728V1623.61C935.39 1651.64 926.898 1675.8 916.088 1674.33H19.3116Z" fill="#FFE350" stroke="black"/>
<path id="Vector 47" d="M19.3116 1674.33V167.35L916.088 166.015C927.933 167.762 932.275 177.868 935.39 208.728V1623.61C935.39 1651.64 926.898 1675.8 916.088 1674.33H19.3116Z" fill="#FFE350" stroke="black"/>
<path id="Vector 40" d="M931.925 65.9061L934.895 203.39C933.972 160.676 927.966 140.654 918.068 140.654H18.3218L15.8473 36.5406H914.109C926.663 38.0148 930.847 49.874 931.925 65.9061Z" fill="#F6F6F6" stroke="black"/>
<path id="Vector 41" d="M933.905 155.337C932.42 127.306 928.511 115.869 919.553 115.293H647.847" stroke="black"/>
<path id="Vector 42" d="M932.915 139.319C932.42 108.619 928.708 94.6793 918.563 92.6014H552.33" stroke="black"/>
<path id="Vector 48" d="M932.915 115.293C932.096 88.8484 929.203 78.6621 919.058 76.5842H884.909" stroke="black"/>
<path id="Vector 50" d="M932.42 93.9365C931.601 67.4918 928.213 57.3054 918.068 55.2275H469.185" stroke="black"/>
<path id="Vector 44" d="M24.7557 121.967H669.623M34.6539 64.5708H564.207M332.59 99.2754H811.167" stroke="black"/>
<path id="Vector 45" d="M45.5419 57.8967H415.734M73.2568 92.6013H513.727" stroke="black"/>
</g>
</svg>
