<svg width="936" height="1679" viewBox="0 0 936 1679" fill="none" xmlns="http://www.w3.org/2000/svg">
<g id="Group 8">
<g id="Vector 36">
<path d="M913.614 37.0517C894.312 33.0461 15.8473 37.0517 15.8473 37.0517L18.3219 141.196H915.811C917.573 141.197 923.512 139.09 929.451 154.548C935.39 170.007 934.4 186.593 935.39 210.626C932.674 182.498 928.847 171.939 916.088 166.565H18.5075C18.5694 167.233 18.5693 169.235 18.3219 174.576C17.827 185.258 10.8982 182.613 9.90843 182.587C8.91861 182.562 5.80258 175.63 5.94915 162.559L1.98987 18.359C2.39061 7.44929 4.82929 1.43289 7.92879 1.00168C10.6394 0.909383 13.744 4.62668 14.3626 10.3479C14.3626 10.3479 893.43 12.3774 910.149 11.6831C926.869 10.9889 931.555 49.8923 931.926 65.0907C932.296 80.2891 932.915 41.0574 913.614 37.0517Z" fill="#DF4818"/>
<path d="M15.8473 37.0517C15.8473 37.0517 894.312 33.0461 913.614 37.0517C932.915 41.0573 932.296 80.2891 931.926 65.0907C931.555 49.8923 926.869 10.9889 910.15 11.6831C893.43 12.3774 14.3626 10.3479 14.3626 10.3479C13.744 4.62668 10.6394 0.909383 7.92879 1.00168C4.82929 1.43289 2.39061 7.44929 1.98987 18.359L5.94915 162.559C5.80258 175.63 8.91861 182.562 9.90843 182.587C10.8982 182.613 17.827 185.258 18.3219 174.576C18.8168 163.895 18.3219 166.565 18.3219 166.565H916.088C928.847 171.939 932.674 182.498 935.39 210.626C934.4 186.593 935.39 170.007 929.451 154.548C923.512 139.09 917.573 141.196 915.811 141.196H18.3219L15.8473 37.0517Z" stroke="black"/>
</g>
<path id="Vector 37" d="M1 1565.84L1.98982 22.3652L5.9491 170.571L7.43383 179.918V1678L1 1565.84Z" fill="#C73E12" stroke="black"/>
<path id="Vector 38" d="M18.8168 1675.33V167.9C18.6454 178.634 17.4836 181.649 13.8677 182.587C12.3216 183.073 11.4547 182.953 9.90839 182.587C9.13248 182.241 8.53727 180.697 7.43384 177.609V1676.66L18.8168 1675.33Z" fill="#DF4818" stroke="black"/>
<path id="Vector 39" d="M19.3116 1675.33V167.9L916.088 166.565C927.767 172.059 932.163 180.951 935.39 209.291V1624.59C935.39 1652.63 926.898 1676.8 916.088 1675.33H19.3116Z" fill="#FA531E" stroke="black"/>
<path id="Vector 47" d="M19.3116 1675.33V167.9L916.088 166.565C927.933 168.312 932.275 178.421 935.39 209.291V1624.59C935.39 1652.63 926.898 1676.8 916.088 1675.33H19.3116Z" fill="#FA531E" stroke="black"/>
<path id="Vector 40" d="M931.925 66.4262L934.895 203.951C933.972 161.225 927.966 141.197 918.068 141.197H18.3218L15.8473 37.052H914.109C926.663 38.5266 930.847 50.3893 931.925 66.4262Z" fill="#F6F6F6" stroke="black"/>
<path id="Vector 41" d="M933.905 155.883C932.42 127.844 928.511 116.403 919.553 115.827H647.847" stroke="black"/>
<path id="Vector 42" d="M932.915 139.861C932.42 109.152 928.708 95.2081 918.563 93.1296H552.33" stroke="black"/>
<path id="Vector 48" d="M932.915 115.827C932.096 89.3746 929.203 79.1851 919.058 77.1067H884.909" stroke="black"/>
<path id="Vector 50" d="M932.42 94.4644C931.601 68.0118 928.213 57.8224 918.068 55.7439H469.185" stroke="black"/>
<path id="Vector 44" d="M24.7557 122.504H669.623M34.6539 65.0913H564.207M332.59 99.8062H811.167" stroke="black"/>
<path id="Vector 45" d="M45.5419 58.4148H415.734M73.2568 93.1297H513.727" stroke="black"/>
</g>
</svg>
